Russolo-10ptMedium.ufo
<glyph name="exclam" format="2">
  <advance width="494"/>
  <unicode hex="0021"/>
  <note>
exclam
</note>
  <outline>
    <contour>
      <point x="197" y="305" type="curve"/>
      <point x="298" y="305" type="line"/>
      <point x="290" y="754"/>
      <point x="358" y="1048"/>
      <point x="358" y="1197" type="curve" smooth="yes"/>
      <point x="358" y="1308"/>
      <point x="291" y="1294"/>
      <point x="317" y="1463" type="curve"/>
      <point x="179" y="1463" type="line"/>
      <point x="205" y="1294"/>
      <point x="136" y="1308"/>
      <point x="136" y="1197" type="curve" smooth="yes"/>
      <point x="136" y="1048"/>
      <point x="204" y="754"/>
    </contour>
    <contour>
      <point x="247" y="-21" type="curve" smooth="yes"/>
      <point x="316" y="-21"/>
      <point x="364" y="39"/>
      <point x="364" y="115" type="curve" smooth="yes"/>
      <point x="364" y="190"/>
      <point x="316" y="249"/>
      <point x="247" y="249" type="curve" smooth="yes"/>
      <point x="178" y="249"/>
      <point x="130" y="190"/>
      <point x="130" y="115" type="curve" smooth="yes"/>
      <point x="130" y="39"/>
      <point x="178" y="-21"/>
    </contour>
  </outline>
</glyph>
<glyph name="quotedbl" format="2">
  <advance width="677"/>
  <unicode hex="0022"/>
  <note>
quotedbl
</note>
  <outline>
    <contour>
      <point x="408" y="795" type="line"/>
      <point x="535" y="795" type="line"/>
      <point x="558" y="1362" type="line"/>
      <point x="389" y="1362" type="line"/>
    </contour>
    <contour>
      <point x="139" y="795" type="line"/>
      <point x="264" y="795" type="line"/>
      <point x="288" y="1362" type="line"/>
      <point x="120" y="1362" type="line"/>
    </contour>
  </outline>
</glyph>
<glyph name="numbersign" format="2">
  <advance width="1464"/>
  <unicode hex="0023"/>
  <note>
numbersign
</note>
  <outline>
    <contour>
      <point x="774" y="0" type="line"/>
      <point x="945" y="0" type="line"/>
      <point x="1249" y="1433" type="line"/>
      <point x="1078" y="1433" type="line"/>
    </contour>
    <contour>
      <point x="123" y="454" type="line"/>
      <point x="1275" y="454" type="line"/>
      <point x="1275" y="581" type="line"/>
      <point x="123" y="581" type="line"/>
    </contour>
    <contour>
      <point x="220" y="0" type="line"/>
      <point x="391" y="0" type="line"/>
      <point x="697" y="1433" type="line"/>
      <point x="526" y="1433" type="line"/>
    </contour>
    <contour>
      <point x="188" y="861" type="line"/>
      <point x="1341" y="861" type="line"/>
      <point x="1341" y="989" type="line"/>
      <point x="188" y="989" type="line"/>
    </contour>
  </outline>
</glyph>
<glyph name="ampersand" format="2">
  <advance width="1418"/>
  <unicode hex="0026"/>
  <note>
ampersand
</note>
  <outline>
    <contour>
      <point x="623" y="-30" type="curve" smooth="yes"/>
      <point x="757" y="-30"/>
      <point x="904" y="-5"/>
      <point x="980" y="47" type="curve"/>
      <point x="900" y="156" type="line"/>
      <point x="868" y="129"/>
      <point x="699" y="97"/>
      <point x="617" y="97" type="curve" smooth="yes"/>
      <point x="419" y="97"/>
      <point x="355" y="232"/>
      <point x="355" y="407" type="curve" smooth="yes"/>
      <point x="355" y="622"/>
      <point x="459" y="713"/>
      <point x="638" y="712" type="curve"/>
      <point x="648" y="842" type="line"/>
      <point x="515" y="836"/>
      <point x="435" y="925"/>
      <point x="435" y="1075" type="curve" smooth="yes"/>
      <point x="435" y="1230"/>
      <point x="527" y="1334"/>
      <point x="664" y="1334" type="curve" smooth="yes"/>
      <point x="848" y="1334" type="line"/>
      <point x="848" y="1461" type="line"/>
      <point x="660" y="1461" type="line" smooth="yes"/>
      <point x="386" y="1461"/>
      <point x="234" y="1319"/>
      <point x="234" y="1075" type="curve" smooth="yes"/>
      <point x="234" y="946"/>
      <point x="282" y="847"/>
      <point x="362" y="788" type="curve"/>
      <point x="235" y="723"/>
      <point x="138" y="592"/>
      <point x="138" y="401" type="curve" smooth="yes"/>
      <point x="138" y="138"/>
      <point x="291" y="-30"/>
    </contour>
    <contour>
      <point x="1069" y="-28" type="curve" smooth="yes"/>
      <point x="1147" y="-28"/>
      <point x="1225" y="-14"/>
      <point x="1282" y="16" type="curve"/>
      <point x="1282" y="171" type="line"/>
      <point x="1198" y="119"/>
      <point x="1163" y="105"/>
      <point x="1111" y="105" type="curve" smooth="yes"/>
      <point x="1087" y="105"/>
      <point x="1084" y="246"/>
      <point x="1084" y="341" type="curve" smooth="yes"/>
      <point x="1084" y="712" type="line"/>
      <point x="1229" y="712" type="line"/>
      <point x="1229" y="841" type="line"/>
      <point x="1084" y="841" type="line"/>
      <point x="1084" y="1126" type="line"/>
      <point x="970" y="1126" type="line"/>
      <point x="988" y="910"/>
      <point x="927" y="841"/>
      <point x="750" y="841" type="curve" smooth="yes"/>
      <point x="626" y="841" type="line"/>
      <point x="608" y="712" type="line"/>
      <point x="877" y="712" type="line"/>
      <point x="877" y="225" type="line" smooth="yes"/>
      <point x="877" y="78"/>
      <point x="919" y="-28"/>
    </contour>
  </outline>
</glyph>
<glyph name="quotesingle" format="2">
  <advance width="406"/>
  <unicode hex="0027"/>
  <note>
quotesingle
</note>
  <outline>
    <contour>
      <point x="139" y="795" type="line"/>
      <point x="264" y="795" type="line"/>
      <point x="288" y="1362" type="line"/>
      <point x="120" y="1362" type="line"/>
    </contour>
  </outline>
</glyph>
<glyph name="parenleft" format="2">
  <advance width="651"/>
  <unicode hex="0028"/>
  <note>
parenleft
</note>
  <outline>
    <contour>
      <point x="478" y="-395" type="curve"/>
      <point x="551" y="-333" type="line"/>
      <point x="378" y="-48"/>
      <point x="277" y="276"/>
      <point x="277" y="576" type="curve" smooth="yes"/>
      <point x="277" y="877"/>
      <point x="382" y="1207"/>
      <point x="554" y="1501" type="curve"/>
      <point x="474" y="1549" type="line"/>
      <point x="219" y="1226"/>
      <point x="105" y="932"/>
      <point x="105" y="581" type="curve" smooth="yes"/>
      <point x="105" y="230"/>
      <point x="219" y="-66"/>
    </contour>
  </outline>
</glyph>
<glyph name="asterisk" format="2">
  <advance width="874"/>
  <unicode hex="002A"/>
  <note>
asterisk
</note>
  <outline>
    <contour>
      <point x="448" y="1121" type="line"/>
      <point x="578" y="1187"/>
      <point x="649" y="1188"/>
      <point x="690" y="1212" type="curve" smooth="yes"/>
      <point x="708" y="1223"/>
      <point x="707" y="1257"/>
      <point x="750" y="1282" type="curve"/>
      <point x="716" y="1340" type="line"/>
      <point x="673" y="1315"/>
      <point x="644" y="1331"/>
      <point x="627" y="1321" type="curve" smooth="yes"/>
      <point x="586" y="1297"/>
      <point x="547" y="1239"/>
      <point x="426" y="1159" type="curve"/>
    </contour>
    <contour>
      <point x="158" y="940" type="line"/>
      <point x="200" y="964"/>
      <point x="230" y="947"/>
      <point x="248" y="957" type="curve" smooth="yes"/>
      <point x="289" y="981"/>
      <point x="326" y="1041"/>
      <point x="448" y="1121" type="curve"/>
      <point x="426" y="1159" type="line"/>
      <point x="296" y="1094"/>
      <point x="227" y="1089"/>
      <point x="185" y="1066" type="curve" smooth="yes"/>
      <point x="169" y="1056"/>
      <point x="167" y="1023"/>
      <point x="124" y="998" type="curve"/>
    </contour>
    <contour>
      <point x="403" y="797" type="curve"/>
      <point x="470" y="797" type="line"/>
      <point x="470" y="846"/>
      <point x="500" y="863"/>
      <point x="500" y="884" type="curve" smooth="yes"/>
      <point x="500" y="933"/>
      <point x="467" y="993"/>
      <point x="459" y="1139" type="curve"/>
      <point x="414" y="1139" type="line"/>
      <point x="406" y="994"/>
      <point x="375" y="932"/>
      <point x="375" y="884" type="curve" smooth="yes"/>
      <point x="375" y="862"/>
      <point x="403" y="846"/>
    </contour>
    <contour>
      <point x="425" y="1121" type="curve"/>
      <point x="448" y="1159" type="line"/>
      <point x="327" y="1239"/>
      <point x="288" y="1297"/>
      <point x="247" y="1321" type="curve" smooth="yes"/>
      <point x="230" y="1331"/>
      <point x="200" y="1315"/>
      <point x="157" y="1339" type="curve"/>
      <point x="124" y="1282" type="line"/>
      <point x="166" y="1257"/>
      <point x="166" y="1223"/>
      <point x="184" y="1212" type="curve" smooth="yes"/>
      <point x="225" y="1188"/>
      <point x="295" y="1186"/>
    </contour>
    <contour>
      <point x="626" y="957" type="curve" smooth="yes"/>
      <point x="644" y="947"/>
      <point x="674" y="964"/>
      <point x="716" y="940" type="curve"/>
      <point x="750" y="997" type="line"/>
      <point x="707" y="1022"/>
      <point x="705" y="1056"/>
      <point x="689" y="1066" type="curve" smooth="yes"/>
      <point x="647" y="1089"/>
      <point x="577" y="1094"/>
      <point x="448" y="1159" type="curve"/>
      <point x="425" y="1121" type="line"/>
      <point x="548" y="1040"/>
      <point x="585" y="981"/>
    </contour>
    <contour>
      <point x="414" y="1139" type="curve"/>
      <point x="459" y="1139" type="line"/>
      <point x="467" y="1285"/>
      <point x="500" y="1344"/>
      <point x="500" y="1394" type="curve" smooth="yes"/>
      <point x="500" y="1415"/>
      <point x="470" y="1432"/>
      <point x="470" y="1481" type="curve"/>
      <point x="403" y="1481" type="line"/>
      <point x="403" y="1431"/>
      <point x="375" y="1415"/>
      <point x="375" y="1394" type="curve" smooth="yes"/>
      <point x="375" y="1346"/>
      <point x="406" y="1284"/>
    </contour>
  </outline>
</glyph>
<glyph name="comma" format="2">
  <advance width="570"/>
  <unicode hex="002C"/>
  <note>
comma
</note>
  <outline>
    <contour>
      <point x="128" y="-157" type="curve"/>
      <point x="297" y="-157" type="line"/>
      <point x="356" y="-53"/>
      <point x="414" y="89"/>
      <point x="445" y="215" type="curve"/>
      <point x="235" y="215" type="line"/>
      <point x="197" y="139"/>
      <point x="144" y="-42"/>
    </contour>
  </outline>
</glyph>
<glyph name="hyphen" format="2">
  <advance width="727"/>
  <unicode hex="002D"/>
  <note>
hyphen
</note>
  <outline>
    <contour>
      <point x="81" y="440" type="line"/>
      <point x="596" y="440" type="line"/>
      <point x="647" y="624" type="line"/>
      <point x="130" y="624" type="line"/>
    </contour>
  </outline>
</glyph>
<glyph name="zero" format="2">
  <advance width="1396"/>
  <unicode hex="0030"/>
  <note>
zero
</note>
  <anchor x="688" y="715" name="center"/>
  <outline>
    <contour>
      <point x="698" y="-29" type="curve" smooth="yes"/>
      <point x="1041" y="-29"/>
      <point x="1290" y="284"/>
      <point x="1290" y="715" type="curve" smooth="yes"/>
      <point x="1290" y="1133"/>
      <point x="1029" y="1459"/>
      <point x="698" y="1459" type="curve" smooth="yes"/>
      <point x="364" y="1459"/>
      <point x="106" y="1135"/>
      <point x="106" y="715" type="curve" smooth="yes"/>
      <point x="106" y="288"/>
      <point x="358" y="-29"/>
    </contour>
    <contour>
      <point x="698" y="100" type="curve" smooth="yes"/>
      <point x="479" y="100"/>
      <point x="331" y="345"/>
      <point x="331" y="715" type="curve" smooth="yes"/>
      <point x="331" y="1084"/>
      <point x="479" y="1331"/>
      <point x="698" y="1331" type="curve" smooth="yes"/>
      <point x="917" y="1331"/>
      <point x="1064" y="1082"/>
      <point x="1064" y="715" type="curve" smooth="yes"/>
      <point x="1064" y="347"/>
      <point x="918" y="100"/>
    </contour>
  </outline>
</glyph>
<glyph name="one" format="2">
  <advance width="672"/>
  <unicode hex="0031"/>
  <note>
one
</note>
  <outline>
    <contour>
      <point x="329" y="-1" type="line"/>
      <point x="537" y="-1" type="line"/>
      <point x="537" y="1426" type="line"/>
      <point x="443" y="1426" type="line"/>
      <point x="96" y="949" type="line"/>
      <point x="173" y="888" type="line"/>
      <point x="394" y="1167" type="line"/>
      <point x="329" y="1198" type="line"/>
    </contour>
  </outline>
</glyph>
<glyph name="three" format="2">
  <advance width="1154"/>
  <unicode hex="0033"/>
  <note>
three
</note>
  <outline>
    <contour>
      <point x="555" y="-28" type="curve" smooth="yes"/>
      <point x="858" y="-28"/>
      <point x="1050" y="141"/>
      <point x="1050" y="402" type="curve" smooth="yes"/>
      <point x="1050" y="614"/>
      <point x="916" y="755"/>
      <point x="700" y="793" type="curve"/>
      <point x="585" y="694" type="line"/>
      <point x="862" y="712"/>
      <point x="1022" y="861"/>
      <point x="1022" y="1078" type="curve" smooth="yes"/>
      <point x="1022" y="1307"/>
      <point x="856" y="1459"/>
      <point x="590" y="1459" type="curve" smooth="yes"/>
      <point x="299" y="1459"/>
      <point x="134" y="1285"/>
      <point x="129" y="1052" type="curve"/>
      <point x="314" y="1051" type="line"/>
      <point x="307" y="1184"/>
      <point x="395" y="1339"/>
      <point x="585" y="1339" type="curve" smooth="yes"/>
      <point x="743" y="1339"/>
      <point x="827" y="1232"/>
      <point x="827" y="1070" type="curve" smooth="yes"/>
      <point x="827" y="897"/>
      <point x="727" y="797"/>
      <point x="541" y="797" type="curve" smooth="yes"/>
      <point x="333" y="797" type="line"/>
      <point x="333" y="694" type="line"/>
      <point x="545" y="694" type="line" smooth="yes"/>
      <point x="721" y="694"/>
      <point x="837" y="591"/>
      <point x="837" y="403" type="curve" smooth="yes"/>
      <point x="837" y="225"/>
      <point x="732" y="89"/>
      <point x="561" y="89" type="curve" smooth="yes"/>
      <point x="404" y="89"/>
      <point x="301" y="206"/>
      <point x="301" y="365" type="curve" smooth="yes"/>
      <point x="301" y="396" type="line"/>
      <point x="101" y="396" type="line"/>
      <point x="101" y="358" type="line" smooth="yes"/>
      <point x="101" y="120"/>
      <point x="269" y="-28"/>
    </contour>
  </outline>
</glyph>
<glyph name="four" format="2">
  <advance width="1200"/>
  <unicode hex="0034"/>
  <note>
four
</note>
  <outline>
    <contour>
      <point x="737" y="0" type="line"/>
      <point x="916" y="0" type="line"/>
      <point x="916" y="472" type="line"/>
      <point x="744" y="345" type="line"/>
      <point x="1100" y="345" type="line"/>
      <point x="1100" y="490" type="line"/>
      <point x="744" y="490" type="line"/>
      <point x="916" y="377" type="line"/>
      <point x="916" y="865" type="line"/>
      <point x="737" y="865" type="line"/>
      <point x="737" y="377" type="line"/>
      <point x="866" y="490" type="line"/>
      <point x="236" y="490" type="line"/>
      <point x="318" y="429" type="line"/>
      <point x="466" y="757"/>
      <point x="567" y="1041"/>
      <point x="664" y="1445" type="curve"/>
      <point x="497" y="1445" type="line"/>
      <point x="389" y="1027"/>
      <point x="277" y="722"/>
      <point x="96" y="345" type="curve"/>
      <point x="866" y="345" type="line"/>
      <point x="737" y="472" type="line"/>
    </contour>
  </outline>
</glyph>
<glyph name="five" format="2">
  <advance width="1114"/>
  <unicode hex="0035"/>
  <note>
five
</note>
  <outline>
    <contour>
      <point x="476" y="-32" type="curve" smooth="yes"/>
      <point x="777" y="-32"/>
      <point x="1012" y="184"/>
      <point x="1012" y="465" type="curve" smooth="yes"/>
      <point x="1012" y="724"/>
      <point x="807" y="888"/>
      <point x="539" y="888" type="curve" smooth="yes"/>
      <point x="404" y="888"/>
      <point x="312" y="841"/>
      <point x="232" y="776" type="curve"/>
      <point x="296" y="763" type="line"/>
      <point x="409" y="1343" type="line"/>
      <point x="283" y="1260" type="line"/>
      <point x="921" y="1260" type="line"/>
      <point x="921" y="1430" type="line"/>
      <point x="301" y="1430" type="line"/>
      <point x="165" y="724" type="line"/>
      <point x="233" y="685" type="line"/>
      <point x="303" y="730"/>
      <point x="413" y="752"/>
      <point x="489" y="752" type="curve" smooth="yes"/>
      <point x="699" y="752"/>
      <point x="811" y="641"/>
      <point x="811" y="451" type="curve" smooth="yes"/>
      <point x="811" y="237"/>
      <point x="658" y="103"/>
      <point x="473" y="103" type="curve" smooth="yes"/>
      <point x="344" y="103"/>
      <point x="221" y="164"/>
      <point x="153" y="215" type="curve"/>
      <point x="96" y="111" type="line"/>
      <point x="201" y="29"/>
      <point x="320" y="-32"/>
    </contour>
  </outline>
</glyph>
<glyph name="seven" format="2">
  <advance width="1145"/>
  <unicode hex="0037"/>
  <note>
seven
</note>
  <outline>
    <contour>
      <point x="323" y="0" type="curve"/>
      <point x="516" y="0" type="line"/>
      <point x="613" y="568"/>
      <point x="789" y="1028"/>
      <point x="1049" y="1419" type="curve"/>
      <point x="101" y="1419" type="line"/>
      <point x="101" y="1235" type="line"/>
      <point x="872" y="1235" type="line"/>
      <point x="809" y="1317" type="line"/>
      <point x="626" y="1025"/>
      <point x="443" y="582"/>
    </contour>
  </outline>
</glyph>
<glyph name="eight" format="2">
  <advance width="1156"/>
  <unicode hex="0038"/>
  <note>
eight
</note>
  <outline>
    <contour>
      <point x="574" y="-31" type="curve" smooth="yes"/>
      <point x="869" y="-31"/>
      <point x="1054" y="132"/>
      <point x="1054" y="388" type="curve" smooth="yes"/>
      <point x="1054" y="614"/>
      <point x="895" y="767"/>
      <point x="611" y="856" type="curve" smooth="yes"/>
      <point x="403" y="923"/>
      <point x="348" y="1003"/>
      <point x="348" y="1108" type="curve" smooth="yes"/>
      <point x="348" y="1243"/>
      <point x="442" y="1331"/>
      <point x="601" y="1331" type="curve" smooth="yes"/>
      <point x="750" y="1331"/>
      <point x="844" y="1232"/>
      <point x="844" y="1103" type="curve" smooth="yes"/>
      <point x="844" y="1011"/>
      <point x="799" y="898"/>
      <point x="503" y="799" type="curve"/>
      <point x="704" y="753" type="line"/>
      <point x="857" y="817"/>
      <point x="985" y="956"/>
      <point x="985" y="1111" type="curve" smooth="yes"/>
      <point x="985" y="1321"/>
      <point x="790" y="1447"/>
      <point x="575" y="1447" type="curve" smooth="yes"/>
      <point x="332" y="1446"/>
      <point x="168" y="1305"/>
      <point x="168" y="1086" type="curve" smooth="yes"/>
      <point x="168" y="900"/>
      <point x="326" y="769"/>
      <point x="518" y="706" type="curve" smooth="yes"/>
      <point x="792" y="613"/>
      <point x="864" y="520"/>
      <point x="864" y="384" type="curve" smooth="yes"/>
      <point x="864" y="201"/>
      <point x="753" y="94"/>
      <point x="556" y="94" type="curve" smooth="yes"/>
      <point x="359" y="94"/>
      <point x="255" y="213"/>
      <point x="255" y="381" type="curve" smooth="yes"/>
      <point x="254" y="509"/>
      <point x="306" y="628"/>
      <point x="554" y="754" type="curve"/>
      <point x="422" y="801" type="line"/>
      <point x="220" y="717"/>
      <point x="102" y="560"/>
      <point x="102" y="366" type="curve" smooth="yes"/>
      <point x="102" y="121"/>
      <point x="296" y="-31"/>
    </contour>
  </outline>
</glyph>
<glyph name="nine" format="2">
  <advance width="1189"/>
  <unicode hex="0039"/>
  <note>
nine
</note>
  <outline>
    <contour>
      <point x="289" y="-41" type="line"/>
      <point x="561" y="-24"/>
      <point x="721" y="80"/>
      <point x="807" y="156" type="curve" smooth="yes"/>
      <point x="880" y="220"/>
      <point x="934" y="302"/>
      <point x="970" y="369" type="curve" smooth="yes"/>
      <point x="1083" y="578"/>
      <point x="1082" y="808"/>
      <point x="1082" y="891" type="curve" smooth="yes"/>
      <point x="1082" y="1324"/>
      <point x="865" y="1447"/>
      <point x="603" y="1449" type="curve" smooth="yes"/>
      <point x="282" y="1451"/>
      <point x="103" y="1251"/>
      <point x="103" y="965" type="curve" smooth="yes"/>
      <point x="103" y="677"/>
      <point x="289" y="487"/>
      <point x="570" y="487" type="curve" smooth="yes"/>
      <point x="725" y="487"/>
      <point x="887" y="566"/>
      <point x="978" y="785" type="curve"/>
      <point x="891" y="760" type="line"/>
      <point x="893" y="630"/>
      <point x="884" y="509"/>
      <point x="784" y="379" type="curve" smooth="yes"/>
      <point x="724" y="283"/>
      <point x="589" y="151"/>
      <point x="306" y="126" type="curve"/>
    </contour>
    <contour>
      <point x="570" y="639" type="curve" smooth="yes"/>
      <point x="356" y="639"/>
      <point x="304" y="822"/>
      <point x="304" y="972" type="curve" smooth="yes"/>
      <point x="304" y="1193"/>
      <point x="430" y="1309"/>
      <point x="591" y="1307" type="curve" smooth="yes"/>
      <point x="781" y="1306"/>
      <point x="875" y="1136"/>
      <point x="873" y="952" type="curve" smooth="yes"/>
      <point x="871" y="724"/>
      <point x="717" y="639"/>
    </contour>
  </outline>
</glyph>
<glyph name="greater" format="2">
  <advance width="1127"/>
  <unicode hex="003E"/>
  <note>
greater
</note>
  <outline>
    <contour>
      <point x="140" y="257" type="line"/>
      <point x="975" y="609" type="line"/>
      <point x="975" y="757" type="line"/>
      <point x="140" y="1108" type="line"/>
      <point x="140" y="933" type="line"/>
      <point x="740" y="683" type="line"/>
      <point x="140" y="432" type="line"/>
    </contour>
  </outline>
</glyph>
<glyph name="at" format="2">
  <advance width="1782"/>
  <unicode hex="0040"/>
  <note>
at
</note>
  <outline>
    <contour>
      <point x="932" y="-36" type="curve" smooth="yes"/>
      <point x="1237" y="-36"/>
      <point x="1510" y="131"/>
      <point x="1647" y="392" type="curve"/>
      <point x="1503" y="400" type="line"/>
      <point x="1385" y="208"/>
      <point x="1173" y="86"/>
      <point x="930" y="86" type="curve" smooth="yes"/>
      <point x="565" y="86"/>
      <point x="267" y="368"/>
      <point x="267" y="713" type="curve" smooth="yes"/>
      <point x="267" y="1058"/>
      <point x="565" y="1340"/>
      <point x="930" y="1340" type="curve" smooth="yes"/>
      <point x="1252" y="1340"/>
      <point x="1489" y="1125"/>
      <point x="1489" y="831" type="curve" smooth="yes"/>
      <point x="1489" y="739"/>
      <point x="1463" y="650"/>
      <point x="1417" y="583" type="curve" smooth="yes"/>
      <point x="1381" y="527"/>
      <point x="1323" y="455"/>
      <point x="1252" y="425" type="curve"/>
      <point x="1220" y="430"/>
      <point x="1180" y="446"/>
      <point x="1183" y="498" type="curve"/>
      <point x="1338" y="1095" type="line"/>
      <point x="1150" y="1095" type="line"/>
      <point x="1129" y="1022" type="line"/>
      <point x="1101" y="1089"/>
      <point x="1046" y="1115"/>
      <point x="959" y="1115" type="curve" smooth="yes"/>
      <point x="683" y="1115"/>
      <point x="468" y="843"/>
      <point x="468" y="584" type="curve" smooth="yes"/>
      <point x="468" y="405"/>
      <point x="580" y="291"/>
      <point x="767" y="291" type="curve" smooth="yes"/>
      <point x="873" y="291"/>
      <point x="960" y="323"/>
      <point x="1025" y="410" type="curve"/>
      <point x="1053" y="344"/>
      <point x="1093" y="304"/>
      <point x="1191" y="304" type="curve" smooth="yes"/>
      <point x="1265" y="304"/>
      <point x="1335" y="331"/>
      <point x="1400" y="380" type="curve" smooth="yes"/>
      <point x="1469" y="431"/>
      <point x="1514" y="487"/>
      <point x="1554" y="564" type="curve" smooth="yes"/>
      <point x="1596" y="647"/>
      <point x="1617" y="736"/>
      <point x="1617" y="830" type="curve" smooth="yes"/>
      <point x="1617" y="1209"/>
      <point x="1335" y="1461"/>
      <point x="932" y="1461" type="curve" smooth="yes"/>
      <point x="493" y="1461"/>
      <point x="140" y="1128"/>
      <point x="140" y="713" type="curve" smooth="yes"/>
      <point x="140" y="297"/>
      <point x="492" y="-36"/>
    </contour>
    <contour>
      <point x="804" y="410" type="curve" smooth="yes"/>
      <point x="715" y="410"/>
      <point x="660" y="468"/>
      <point x="660" y="571" type="curve" smooth="yes"/>
      <point x="660" y="788"/>
      <point x="809" y="997"/>
      <point x="972" y="997" type="curve" smooth="yes"/>
      <point x="1037" y="997"/>
      <point x="1057" y="943"/>
      <point x="1057" y="851" type="curve" smooth="yes"/>
      <point x="1057" y="681"/>
      <point x="950" y="410"/>
    </contour>
  </outline>
</glyph>
<glyph name="A" format="2">
  <advance width="1569"/>
  <unicode hex="0041"/>
  <note>
A
</note>
  <anchor x="784" y="10" name="bottom"/>
  <anchor x="1296" y="0" name="ogonek"/>
  <anchor x="784" y="1430" name="top"/>
  <outline>
    <contour>
      <point x="102" y="0" type="line"/>
      <point x="236" y="0" type="line"/>
      <point x="760" y="1157" type="line"/>
      <point x="714" y="1181" type="line"/>
      <point x="1239" y="0" type="line"/>
      <point x="1467" y="0" type="line"/>
      <point x="783" y="1472" type="line"/>
    </contour>
    <contour>
      <point x="333" y="425" type="line"/>
      <point x="1148" y="425" type="line"/>
      <point x="1096" y="558" type="line"/>
      <point x="389" y="558" type="line"/>
    </contour>
  </outline>
</glyph>
<glyph name="C" format="2">
  <advance width="1574"/>
  <unicode hex="0043"/>
  <note>
C
</note>
  <anchor x="771" y="10" name="bottom"/>
  <anchor x="820.99" y="1430" name="top"/>
  <outline>
    <contour>
      <point x="834" y="-25" type="curve" smooth="yes"/>
      <point x="1122" y="-25"/>
      <point x="1339" y="115"/>
      <point x="1470" y="389" type="curve"/>
      <point x="1253" y="389" type="line"/>
      <point x="1168" y="206"/>
      <point x="1021" y="106"/>
      <point x="834" y="106" type="curve" smooth="yes"/>
      <point x="531" y="106"/>
      <point x="327" y="349"/>
      <point x="327" y="714" type="curve" smooth="yes"/>
      <point x="327" y="1079"/>
      <point x="530" y="1323"/>
      <point x="831" y="1323" type="curve" smooth="yes"/>
      <point x="1022" y="1323"/>
      <point x="1179" y="1221"/>
      <point x="1252" y="1041" type="curve"/>
      <point x="1462" y="1041" type="line"/>
      <point x="1371" y="1297"/>
      <point x="1119" y="1453"/>
      <point x="831" y="1453" type="curve" smooth="yes"/>
      <point x="414" y="1453"/>
      <point x="111" y="1138"/>
      <point x="111" y="714" type="curve" smooth="yes"/>
      <point x="111" y="285"/>
      <point x="410" y="-25"/>
    </contour>
  </outline>
</glyph>
<glyph name="D" format="2">
  <advance width="1462"/>
  <unicode hex="0044"/>
  <note>
D
</note>
  <anchor x="737" y="-11" name="bottom"/>
  <anchor x="251" y="715" name="center"/>
  <anchor x="737" y="1430" name="top"/>
  <outline>
    <contour>
      <point x="141" y="0" type="line"/>
      <point x="543" y="0" type="line" smooth="yes"/>
      <point x="814" y="0"/>
      <point x="930" y="23"/>
      <point x="1080" y="118" type="curve" smooth="yes"/>
      <point x="1237" y="216"/>
      <point x="1350" y="419"/>
      <point x="1350" y="716" type="curve" smooth="yes"/>
      <point x="1350" y="969"/>
      <point x="1265" y="1171"/>
      <point x="1130" y="1279" type="curve" smooth="yes"/>
      <point x="972" y="1406"/>
      <point x="838" y="1433"/>
      <point x="480" y="1433" type="curve" smooth="yes"/>
      <point x="141" y="1433" type="line"/>
    </contour>
    <contour>
      <point x="364" y="9" type="line"/>
      <point x="364" y="1424" type="line"/>
      <point x="192" y="1306" type="line"/>
      <point x="528" y="1306" type="line" smooth="yes"/>
      <point x="948" y="1306"/>
      <point x="1135" y="1136"/>
      <point x="1135" y="722" type="curve" smooth="yes"/>
      <point x="1135" y="302"/>
      <point x="944" y="127"/>
      <point x="524" y="127" type="curve" smooth="yes"/>
      <point x="192" y="127" type="line"/>
    </contour>
  </outline>
</glyph>
<glyph name="E" format="2">
  <advance width="1169"/>
  <unicode hex="0045"/>
  <note>
E
</note>
  <anchor x="573" y="10" name="bottom"/>
  <anchor x="926" y="0" name="ogonek"/>
  <anchor x="617" y="1430" name="top"/>
  <anchor x="8" y="1430" name="topleft"/>
  <outline>
    <contour>
      <point x="141" y="0" type="line"/>
      <point x="1055" y="0" type="line"/>
      <point x="1055" y="127" type="line"/>
      <point x="227" y="127" type="line"/>
      <point x="355" y="12" type="line"/>
      <point x="355" y="786" type="line"/>
      <point x="211" y="666" type="line"/>
      <point x="1055" y="666" type="line"/>
      <point x="1055" y="793" type="line"/>
      <point x="227" y="793" type="line"/>
      <point x="355" y="678" type="line"/>
      <point x="355" y="1422" type="line"/>
      <point x="185" y="1306" type="line"/>
      <point x="1055" y="1306" type="line"/>
      <point x="1055" y="1433" type="line"/>
      <point x="141" y="1433" type="line"/>
    </contour>
  </outline>
</glyph>
<glyph name="G" format="2">
  <advance width="1650"/>
  <unicode hex="0047"/>
  <note>
G
</note>
  <anchor x="821" y="10" name="bottom"/>
  <anchor x="821" y="1430" name="top"/>
  <outline>
    <contour>
      <point x="830" y="-25" type="curve" smooth="yes"/>
      <point x="1231" y="-25"/>
      <point x="1519" y="253"/>
      <point x="1544" y="657" type="curve"/>
      <point x="1323" y="657" type="line"/>
      <point x="1304" y="323"/>
      <point x="1111" y="106"/>
      <point x="829" y="101" type="curve" smooth="yes"/>
      <point x="530" y="107"/>
      <point x="332" y="350"/>
      <point x="332" y="713" type="curve" smooth="yes"/>
      <point x="332" y="1077"/>
      <point x="532" y="1324"/>
      <point x="829" y="1327" type="curve" smooth="yes"/>
      <point x="1020" y="1325"/>
      <point x="1169" y="1224"/>
      <point x="1252" y="1047" type="curve"/>
      <point x="1477" y="1047" type="line"/>
      <point x="1374" y="1292"/>
      <point x="1117" y="1453"/>
      <point x="829" y="1453" type="curve" smooth="yes"/>
      <point x="415" y="1453"/>
      <point x="111" y="1138"/>
      <point x="111" y="714" type="curve" smooth="yes"/>
      <point x="111" y="280"/>
      <point x="406" y="-25"/>
    </contour>
    <contour>
      <point x="960" y="529" type="line"/>
      <point x="1459" y="529" type="line"/>
      <point x="1459" y="656" type="line"/>
      <point x="960" y="656" type="line"/>
    </contour>
  </outline>
</glyph>
<glyph name="K" format="2">
  <advance width="1459"/>
  <unicode hex="004B"/>
  <note>
K
</note>
  <anchor x="695" y="10" name="bottom"/>
  <anchor x="695" y="1430" name="top"/>
  <outline>
    <contour>
      <point x="141" y="0" type="line"/>
      <point x="355" y="0" type="line"/>
      <point x="355" y="1433" type="line"/>
      <point x="141" y="1433" type="line"/>
    </contour>
    <contour>
      <point x="338" y="470" type="line"/>
      <point x="1274" y="1433" type="line"/>
      <point x="1084" y="1433" type="line"/>
      <point x="246" y="564" type="line"/>
    </contour>
    <contour>
      <point x="1095" y="0" type="line"/>
      <point x="1358" y="0" type="line"/>
      <point x="656" y="860" type="line"/>
      <point x="502" y="725" type="line"/>
    </contour>
  </outline>
</glyph>
<glyph name="M" format="2">
  <advance width="1754"/>
  <unicode hex="004D"/>
  <note>
M
</note>
  <anchor x="877" y="10" name="bottom"/>
  <anchor x="877" y="1430" name="top"/>
  <outline>
    <contour>
      <point x="141" y="0" type="line"/>
      <point x="317" y="0" type="line"/>
      <point x="317" y="1288" type="line"/>
      <point x="213" y="1261" type="line"/>
      <point x="861" y="45" type="line"/>
      <point x="1496" y="1302" type="line"/>
      <point x="1404" y="1257" type="line"/>
      <point x="1404" y="0" type="line"/>
      <point x="1613" y="0" type="line"/>
      <point x="1613" y="1433" type="line"/>
      <point x="1360" y="1433" type="line"/>
      <point x="777" y="283" type="line"/>
      <point x="953" y="304" type="line"/>
      <point x="354" y="1433" type="line"/>
      <point x="141" y="1433" type="line"/>
    </contour>
  </outline>
</glyph>
<glyph name="P" format="2">
  <advance width="1175"/>
  <unicode hex="0050"/>
  <note>
P
</note>
  <anchor x="575" y="-70" name="bottom"/>
  <anchor x="575" y="1430" name="top"/>
  <outline>
    <contour>
      <point x="141" y="0" type="line"/>
      <point x="350" y="0" type="line"/>
      <point x="350" y="635" type="line"/>
      <point x="233" y="544" type="line"/>
      <point x="547" y="544" type="line" smooth="yes"/>
      <point x="698" y="544"/>
      <point x="813" y="575"/>
      <point x="908" y="642" type="curve" smooth="yes"/>
      <point x="1006" y="711"/>
      <point x="1066" y="843"/>
      <point x="1066" y="991" type="curve" smooth="yes"/>
      <point x="1066" y="1123"/>
      <point x="1022" y="1234"/>
      <point x="943" y="1304" type="curve" smooth="yes"/>
      <point x="841" y="1392"/>
      <point x="708" y="1433"/>
      <point x="525" y="1433" type="curve" smooth="yes"/>
      <point x="141" y="1433" type="line"/>
    </contour>
    <contour>
      <point x="350" y="565" type="line"/>
      <point x="350" y="1417" type="line"/>
      <point x="175" y="1313" type="line"/>
      <point x="501" y="1313" type="line" smooth="yes"/>
      <point x="742" y="1313"/>
      <point x="854" y="1205"/>
      <point x="854" y="980" type="curve" smooth="yes"/>
      <point x="854" y="801"/>
      <point x="752" y="669"/>
      <point x="501" y="669" type="curve" smooth="yes"/>
      <point x="269" y="669" type="line"/>
    </contour>
  </outline>
</glyph>
<glyph name="S" format="2">
  <advance width="1265"/>
  <unicode hex="0053"/>
  <note>
S
</note>
  <anchor x="633" y="10" name="bottom"/>
  <anchor x="633" y="1430" name="top"/>
  <outline>
    <contour>
      <point x="635" y="-32" type="curve" smooth="yes"/>
      <point x="990" y="-32"/>
      <point x="1156" y="119"/>
      <point x="1156" y="416" type="curve" smooth="yes"/>
      <point x="1156" y="654"/>
      <point x="959" y="762"/>
      <point x="673" y="834" type="curve" smooth="yes"/>
      <point x="402" y="909"/>
      <point x="366" y="987"/>
      <point x="366" y="1099" type="curve" smooth="yes"/>
      <point x="366" y="1270"/>
      <point x="486" y="1331"/>
      <point x="612" y="1331" type="curve" smooth="yes"/>
      <point x="818" y="1331"/>
      <point x="917" y="1189"/>
      <point x="914" y="1088" type="curve"/>
      <point x="1122" y="1088" type="line"/>
      <point x="1111" y="1309"/>
      <point x="895" y="1464"/>
      <point x="625" y="1464" type="curve" smooth="yes"/>
      <point x="320" y="1464"/>
      <point x="156" y="1312"/>
      <point x="156" y="1061" type="curve" smooth="yes"/>
      <point x="156" y="856"/>
      <point x="311" y="745"/>
      <point x="592" y="668" type="curve" smooth="yes"/>
      <point x="801" y="609"/>
      <point x="952" y="565"/>
      <point x="952" y="372" type="curve" smooth="yes"/>
      <point x="952" y="210"/>
      <point x="846" y="105"/>
      <point x="644" y="105" type="curve" smooth="yes"/>
      <point x="440" y="105"/>
      <point x="326" y="229"/>
      <point x="311" y="408" type="curve"/>
      <point x="105" y="408" type="line"/>
      <point x="118" y="137"/>
      <point x="310" y="-32"/>
    </contour>
  </outline>
</glyph>
<glyph name="T" format="2">
  <advance width="1451"/>
  <unicode hex="0054"/>
  <note>
T
</note>
  <anchor x="726" y="10" name="bottom"/>
  <anchor x="726" y="715" name="center"/>
  <anchor x="726" y="1430" name="top"/>
  <outline>
    <contour>
      <point x="618" y="0" type="line"/>
      <point x="833" y="0" type="line"/>
      <point x="833" y="1410" type="line"/>
      <point x="611" y="1263" type="line"/>
      <point x="1345" y="1263" type="line"/>
      <point x="1345" y="1433" type="line"/>
      <point x="106" y="1433" type="line"/>
      <point x="106" y="1263" type="line"/>
      <point x="840" y="1263" type="line"/>
      <point x="618" y="1410" type="line"/>
    </contour>
  </outline>
</glyph>
<glyph name="X" format="2">
  <advance width="1492"/>
  <unicode hex="0058"/>
  <note>
X
</note>
  <anchor x="745" y="10" name="bottom"/>
  <anchor x="745" y="1430" name="top"/>
  <outline>
    <contour>
      <point x="1124" y="0" type="line"/>
      <point x="1389" y="0" type="line"/>
      <point x="390" y="1428" type="line"/>
      <point x="124" y="1428" type="line"/>
    </contour>
    <contour>
      <point x="111" y="0" type="line"/>
      <point x="269" y="0" type="line"/>
      <point x="796" y="737" type="line"/>
      <point x="698" y="830" type="line"/>
    </contour>
    <contour>
      <point x="770" y="671" type="line"/>
      <point x="1306" y="1433" type="line"/>
      <point x="1149" y="1433" type="line"/>
      <point x="671" y="764" type="line"/>
    </contour>
  </outline>
</glyph>
<glyph name="Y" format="2">
  <advance width="1359"/>
  <unicode hex="0059"/>
  <note>
Y
</note>
  <anchor x="689" y="10" name="bottom"/>
  <anchor x="679" y="1430" name="top"/>
  <anchor x="-6" y="1430" name="topleft"/>
  <outline>
    <contour>
      <point x="586" y="0" type="line"/>
      <point x="800" y="0" type="line"/>
      <point x="800" y="609" type="line"/>
      <point x="1256" y="1433" type="line"/>
      <point x="1098" y="1433" type="line"/>
      <point x="637" y="571" type="line"/>
      <point x="783" y="686" type="line"/>
      <point x="356" y="1433" type="line"/>
      <point x="102" y="1433" type="line"/>
      <point x="586" y="603" type="line"/>
    </contour>
  </outline>
</glyph>
<glyph name="Z" format="2">
  <advance width="1402"/>
  <unicode hex="005A"/>
  <note>
Z
</note>
  <anchor x="701" y="10" name="bottom"/>
  <anchor x="701" y="715" name="center"/>
  <anchor x="701" y="1430" name="top"/>
  <outline>
    <contour>
      <point x="102" y="0" type="line"/>
      <point x="1264" y="0" type="line"/>
      <point x="1263" y="157" type="line"/>
      <point x="237" y="157" type="line"/>
      <point x="336" y="20" type="line"/>
      <point x="1299" y="1433" type="line"/>
      <point x="168" y="1433" type="line"/>
      <point x="168" y="1276" type="line"/>
      <point x="1150" y="1276" type="line"/>
      <point x="1064" y="1412" type="line"/>
    </contour>
  </outline>
</glyph>
<glyph name="bracketleft" format="2">
  <advance width="666"/>
  <unicode hex="005B"/>
  <note>
bracketleft
</note>
  <outline>
    <contour>
      <point x="137" y="-386" type="line"/>
      <point x="563" y="-386" type="line"/>
      <point x="563" y="-235" type="line"/>
      <point x="295" y="-235" type="line"/>
      <point x="295" y="1313" type="line"/>
      <point x="563" y="1313" type="line"/>
      <point x="563" y="1463" type="line"/>
      <point x="137" y="1463" type="line"/>
    </contour>
  </outline>
</glyph>
<glyph name="bracketright" format="2">
  <advance width="666"/>
  <unicode hex="005D"/>
  <note>
bracketright
</note>
  <outline>
    <contour>
      <point x="103" y="-386" type="line"/>
      <point x="529" y="-386" type="line"/>
      <point x="529" y="1463" type="line"/>
      <point x="103" y="1463" type="line"/>
      <point x="103" y="1313" type="line"/>
      <point x="372" y="1313" type="line"/>
      <point x="372" y="-235" type="line"/>
      <point x="103" y="-235" type="line"/>
    </contour>
  </outline>
</glyph>
<glyph name="b" format="2">
  <advance width="1240"/>
  <unicode hex="0062"/>
  <note>
b
</note>
  <anchor x="624" y="19" name="bottom"/>
  <anchor x="624" y="1518" name="top"/>
  <outline>
    <contour>
      <point x="685" y="-30" type="curve" smooth="yes"/>
      <point x="970" y="-30"/>
      <point x="1157" y="176"/>
      <point x="1157" y="489" type="curve" smooth="yes"/>
      <point x="1157" y="810"/>
      <point x="969" y="1028"/>
      <point x="688" y="1028" type="curve" smooth="yes"/>
      <point x="464" y="1028"/>
      <point x="311" y="893"/>
      <point x="258" y="648" type="curve"/>
      <point x="321" y="601" type="line"/>
      <point x="321" y="1518" type="line"/>
      <point x="114" y="1518" type="line"/>
      <point x="114" y="0" type="line"/>
      <point x="318" y="0" type="line"/>
      <point x="318" y="381" type="line"/>
      <point x="255" y="334" type="line"/>
      <point x="311" y="94"/>
      <point x="456" y="-30"/>
    </contour>
    <contour>
      <point x="658" y="103" type="curve" smooth="yes"/>
      <point x="466" y="103"/>
      <point x="343" y="262"/>
      <point x="343" y="488" type="curve" smooth="yes"/>
      <point x="343" y="725"/>
      <point x="471" y="895"/>
      <point x="661" y="895" type="curve" smooth="yes"/>
      <point x="849" y="895"/>
      <point x="959" y="757"/>
      <point x="959" y="497" type="curve" smooth="yes"/>
      <point x="959" y="238"/>
      <point x="850" y="103"/>
    </contour>
  </outline>
</glyph>
<glyph name="c" format="2">
  <advance width="1013"/>
  <unicode hex="0063"/>
  <note>
c
</note>
  <anchor x="507" y="-9" name="bottom"/>
  <anchor x="597" y="1016" name="top"/>
  <outline>
    <contour>
      <point x="601" y="-34" type="curve" smooth="yes"/>
      <point x="724" y="-34"/>
      <point x="833" y="-1"/>
      <point x="928" y="71" type="curve"/>
      <point x="928" y="231" type="line"/>
      <point x="845" y="153"/>
      <point x="720" y="99"/>
      <point x="609" y="99" type="curve" smooth="yes"/>
      <point x="412" y="99"/>
      <point x="290" y="257"/>
      <point x="290" y="498" type="curve" smooth="yes"/>
      <point x="290" y="742"/>
      <point x="413" y="894"/>
      <point x="609" y="894" type="curve" smooth="yes"/>
      <point x="720" y="894"/>
      <point x="846" y="841"/>
      <point x="927" y="764" type="curve"/>
      <point x="927" y="922" type="line"/>
      <point x="832" y="994"/>
      <point x="720" y="1028"/>
      <point x="601" y="1028" type="curve" smooth="yes"/>
      <point x="320" y="1028"/>
      <point x="83" y="829"/>
      <point x="83" y="498" type="curve" smooth="yes"/>
      <point x="83" y="160"/>
      <point x="320" y="-34"/>
    </contour>
  </outline>
</glyph>
<glyph name="d" format="2">
  <advance width="1239"/>
  <unicode hex="0064"/>
  <note>
d
</note>
  <anchor x="606" y="19" name="bottom"/>
  <anchor x="1020" y="1329" name="center"/>
  <anchor x="617" y="1518" name="top"/>
  <anchor x="1296" y="1518" name="topright"/>
  <outline>
    <contour>
      <point x="555" y="-30" type="curve" smooth="yes"/>
      <point x="783" y="-30"/>
      <point x="930" y="90"/>
      <point x="986" y="332" type="curve"/>
      <point x="921" y="378" type="line"/>
      <point x="921" y="0" type="line"/>
      <point x="1125" y="0" type="line"/>
      <point x="1125" y="1518" type="line"/>
      <point x="920" y="1518" type="line"/>
      <point x="920" y="601" type="line"/>
      <point x="982" y="647" type="line"/>
      <point x="929" y="895"/>
      <point x="777" y="1029"/>
      <point x="552" y="1029" type="curve" smooth="yes"/>
      <point x="272" y="1029"/>
      <point x="83" y="813"/>
      <point x="83" y="490" type="curve" smooth="yes"/>
      <point x="83" y="175"/>
      <point x="270" y="-30"/>
    </contour>
    <contour>
      <point x="582" y="104" type="curve" smooth="yes"/>
      <point x="390" y="104"/>
      <point x="281" y="237"/>
      <point x="281" y="497" type="curve" smooth="yes"/>
      <point x="281" y="760"/>
      <point x="390" y="895"/>
      <point x="579" y="895" type="curve" smooth="yes"/>
      <point x="770" y="895"/>
      <point x="897" y="724"/>
      <point x="897" y="485" type="curve" smooth="yes"/>
      <point x="897" y="258"/>
      <point x="774" y="104"/>
    </contour>
  </outline>
</glyph>
<glyph name="e" format="2">
  <advance width="1144"/>
  <unicode hex="0065"/>
  <note>
e
</note>
  <anchor x="572" y="-24" name="bottom"/>
  <anchor x="740" y="10" name="ogonek"/>
  <anchor x="572" y="1016" name="top"/>
  <outline>
    <contour>
      <point x="578" y="-34" type="curve" smooth="yes"/>
      <point x="815" y="-34"/>
      <point x="979" y="91"/>
      <point x="1043" y="308" type="curve"/>
      <point x="870" y="308" type="line"/>
      <point x="840" y="192"/>
      <point x="727" y="99"/>
      <point x="583" y="99" type="curve" smooth="yes"/>
      <point x="389" y="99"/>
      <point x="293" y="274"/>
      <point x="293" y="494" type="curve" smooth="yes"/>
      <point x="293" y="731"/>
      <point x="403" y="894"/>
      <point x="578" y="894" type="curve" smooth="yes"/>
      <point x="741" y="894"/>
      <point x="844" y="754"/>
      <point x="864" y="503" type="curve"/>
      <point x="1066" y="503" type="line"/>
      <point x="1041" y="834"/>
      <point x="857" y="1028"/>
      <point x="575" y="1028" type="curve" smooth="yes"/>
      <point x="277" y="1028"/>
      <point x="83" y="811"/>
      <point x="83" y="491" type="curve" smooth="yes"/>
      <point x="83" y="176"/>
      <point x="272" y="-34"/>
    </contour>
    <contour>
      <point x="257" y="502" type="line"/>
      <point x="1017" y="503" type="line"/>
      <point x="1015" y="617" type="line"/>
      <point x="224" y="617" type="line"/>
    </contour>
  </outline>
</glyph>
<glyph name="g" format="2">
  <advance width="1229"/>
  <unicode hex="0067"/>
  <note>
g
</note>
  <anchor x="614" y="-507" name="bottom"/>
  <anchor x="588" y="1016" name="top"/>
  <outline>
    <contour>
      <point x="592" y="-568" type="curve" smooth="yes"/>
      <point x="947" y="-568"/>
      <point x="1117" y="-330"/>
      <point x="1117" y="115" type="curve" smooth="yes"/>
      <point x="1117" y="1001" type="line"/>
      <point x="909" y="1001" type="line"/>
      <point x="909" y="677" type="line"/>
      <point x="948" y="731" type="line"/>
      <point x="880" y="924"/>
      <point x="741" y="1028"/>
      <point x="546" y="1028" type="curve" smooth="yes"/>
      <point x="269" y="1028"/>
      <point x="83" y="809"/>
      <point x="83" y="487" type="curve" smooth="yes"/>
      <point x="83" y="172"/>
      <point x="268" y="-35"/>
      <point x="550" y="-35" type="curve" smooth="yes"/>
      <point x="751" y="-35"/>
      <point x="889" y="78"/>
      <point x="953" y="261" type="curve"/>
      <point x="916" y="314" type="line"/>
      <point x="911" y="66" type="line"/>
      <point x="911" y="-265"/>
      <point x="797" y="-435"/>
      <point x="571" y="-435" type="curve" smooth="yes"/>
      <point x="392" y="-435"/>
      <point x="305" y="-365"/>
      <point x="281" y="-251" type="curve"/>
      <point x="93" y="-251" type="line"/>
      <point x="153" y="-464"/>
      <point x="324" y="-568"/>
    </contour>
    <contour>
      <point x="571" y="99" type="curve" smooth="yes"/>
      <point x="385" y="99"/>
      <point x="282" y="234"/>
      <point x="282" y="495" type="curve" smooth="yes"/>
      <point x="282" y="756"/>
      <point x="387" y="894"/>
      <point x="568" y="894" type="curve" smooth="yes"/>
      <point x="751" y="894"/>
      <point x="875" y="724"/>
      <point x="875" y="485" type="curve" smooth="yes"/>
      <point x="875" y="259"/>
      <point x="756" y="99"/>
    </contour>
  </outline>
</glyph>
<glyph name="h" format="2">
  <advance width="1122"/>
  <unicode hex="0068"/>
  <note>
h
</note>
  <anchor x="559" y="0" name="bottom"/>
  <anchor x="227" y="1329" name="center"/>
  <anchor x="559" y="1518" name="top"/>
  <outline>
    <contour>
      <point x="114" y="0" type="line"/>
      <point x="326" y="0" type="line"/>
      <point x="326" y="578" type="line" smooth="yes"/>
      <point x="326" y="756"/>
      <point x="430" y="892"/>
      <point x="587" y="892" type="curve" smooth="yes"/>
      <point x="735" y="892"/>
      <point x="811" y="796"/>
      <point x="811" y="564" type="curve" smooth="yes"/>
      <point x="811" y="0" type="line"/>
      <point x="1023" y="0" type="line"/>
      <point x="1023" y="608" type="line" smooth="yes"/>
      <point x="1023" y="878"/>
      <point x="887" y="1027"/>
      <point x="635" y="1027" type="curve" smooth="yes"/>
      <point x="434" y="1027"/>
      <point x="316" y="918"/>
      <point x="271" y="674" type="curve"/>
      <point x="324" y="564" type="line"/>
      <point x="326" y="1518" type="line"/>
      <point x="114" y="1518" type="line"/>
    </contour>
  </outline>
</glyph>
<glyph name="k" format="2">
  <advance width="1132"/>
  <unicode hex="006B"/>
  <note>
k
</note>
  <anchor x="542" y="0" name="bottom"/>
  <anchor x="570" y="1518" name="top"/>
  <outline>
    <contour>
      <point x="114" y="0" type="line"/>
      <point x="319" y="0" type="line"/>
      <point x="319" y="1518" type="line"/>
      <point x="114" y="1518" type="line"/>
    </contour>
    <contour>
      <point x="816" y="0" type="line"/>
      <point x="1060" y="0" type="line"/>
      <point x="511" y="633" type="line"/>
      <point x="388" y="482" type="line"/>
    </contour>
    <contour>
      <point x="282" y="321" type="line"/>
      <point x="959" y="1001" type="line"/>
      <point x="754" y="1001" type="line"/>
      <point x="274" y="515" type="line"/>
    </contour>
  </outline>
</glyph>
<glyph name="m" format="2">
  <advance width="1810"/>
  <unicode hex="006D"/>
  <note>
m
</note>
  <anchor x="905" y="0" name="bottom"/>
  <anchor x="905" y="1016" name="top"/>
  <outline>
    <contour>
      <point x="108" y="0" type="line"/>
      <point x="318" y="0" type="line"/>
      <point x="318" y="578" type="line" smooth="yes"/>
      <point x="318" y="757"/>
      <point x="426" y="893"/>
      <point x="595" y="893" type="curve" smooth="yes"/>
      <point x="737" y="893"/>
      <point x="806" y="806"/>
      <point x="806" y="593" type="curve" smooth="yes"/>
      <point x="806" y="0" type="line"/>
      <point x="1016" y="0" type="line"/>
      <point x="1016" y="578" type="line" smooth="yes"/>
      <point x="1016" y="758"/>
      <point x="1119" y="891"/>
      <point x="1289" y="891" type="curve" smooth="yes"/>
      <point x="1430" y="891"/>
      <point x="1500" y="806"/>
      <point x="1500" y="593" type="curve" smooth="yes"/>
      <point x="1500" y="1" type="line"/>
      <point x="1710" y="1" type="line"/>
      <point x="1710" y="649" type="line" smooth="yes"/>
      <point x="1710" y="891"/>
      <point x="1576" y="1028"/>
      <point x="1337" y="1028" type="curve" smooth="yes"/>
      <point x="1120" y="1028"/>
      <point x="996" y="918"/>
      <point x="955" y="683" type="curve"/>
      <point x="1007" y="699" type="line"/>
      <point x="988" y="914"/>
      <point x="863" y="1028"/>
      <point x="643" y="1028" type="curve" smooth="yes"/>
      <point x="448" y="1028"/>
      <point x="328" y="936"/>
      <point x="280" y="748" type="curve"/>
      <point x="317" y="699" type="line"/>
      <point x="318" y="1001" type="line"/>
      <point x="108" y="1001" type="line"/>
    </contour>
  </outline>
</glyph>
<glyph name="o" format="2">
  <advance width="1167"/>
  <unicode hex="006F"/>
  <note>
o
</note>
  <anchor x="584" y="-3" name="bottom"/>
  <anchor x="584" y="498" name="center"/>
  <anchor x="719" y="0" name="ogonek"/>
  <anchor x="584" y="1016" name="top"/>
  <anchor x="1167" y="996" name="topright"/>
  <outline>
    <contour>
      <point x="583" y="-34" type="curve" smooth="yes"/>
      <point x="886" y="-34"/>
      <point x="1084" y="174"/>
      <point x="1084" y="488" type="curve" smooth="yes"/>
      <point x="1084" y="806"/>
      <point x="880" y="1028"/>
      <point x="583" y="1028" type="curve" smooth="yes"/>
      <point x="286" y="1028"/>
      <point x="83" y="806"/>
      <point x="83" y="488" type="curve" smooth="yes"/>
      <point x="83" y="174"/>
      <point x="281" y="-34"/>
    </contour>
    <contour>
      <point x="583" y="100" type="curve" smooth="yes"/>
      <point x="414" y="100"/>
      <point x="303" y="257"/>
      <point x="303" y="493" type="curve" smooth="yes"/>
      <point x="303" y="728"/>
      <point x="417" y="895"/>
      <point x="583" y="895" type="curve" smooth="yes"/>
      <point x="749" y="895"/>
      <point x="864" y="722"/>
      <point x="864" y="488" type="curve" smooth="yes"/>
      <point x="864" y="255"/>
      <point x="754" y="100"/>
    </contour>
  </outline>
</glyph>
<glyph name="s" format="2">
  <advance width="945"/>
  <unicode hex="0073"/>
  <note>
s
</note>
  <anchor x="439" y="-11" name="bottom"/>
  <anchor x="473" y="1012" name="top"/>
  <outline>
    <contour>
      <point x="452" y="-28" type="curve" smooth="yes"/>
      <point x="722" y="-27"/>
      <point x="867" y="84"/>
      <point x="866" y="286" type="curve" smooth="yes"/>
      <point x="866" y="476"/>
      <point x="705" y="545"/>
      <point x="474" y="593" type="curve" smooth="yes"/>
      <point x="286" y="632"/>
      <point x="255" y="689"/>
      <point x="255" y="750" type="curve" smooth="yes"/>
      <point x="255" y="853"/>
      <point x="345" y="888"/>
      <point x="473" y="889" type="curve" smooth="yes"/>
      <point x="605" y="889"/>
      <point x="708" y="851"/>
      <point x="810" y="793" type="curve"/>
      <point x="809" y="938" type="line"/>
      <point x="701" y="995"/>
      <point x="615" y="1028"/>
      <point x="472" y="1028" type="curve" smooth="yes"/>
      <point x="248" y="1027"/>
      <point x="98" y="938"/>
      <point x="99" y="744" type="curve" smooth="yes"/>
      <point x="100" y="569"/>
      <point x="189" y="503"/>
      <point x="413" y="456" type="curve" smooth="yes"/>
      <point x="615" y="414"/>
      <point x="692" y="374"/>
      <point x="692" y="271" type="curve" smooth="yes"/>
      <point x="692" y="158"/>
      <point x="538" y="117"/>
      <point x="445" y="117" type="curve" smooth="yes"/>
      <point x="291" y="116"/>
      <point x="185" y="169"/>
      <point x="83" y="244" type="curve"/>
      <point x="84" y="82" type="line"/>
      <point x="176" y="8"/>
      <point x="285" y="-29"/>
    </contour>
  </outline>
</glyph>
<glyph name="t" format="2">
  <advance width="804"/>
  <unicode hex="0074"/>
  <note>
t
</note>
  <anchor x="459" y="-10" name="bottom"/>
  <anchor x="390" y="573" name="center"/>
  <anchor x="419" y="996" name="top"/>
  <anchor x="799" y="1405" name="topright"/>
  <outline>
    <contour>
      <point x="480" y="-29" type="curve" smooth="yes"/>
      <point x="554" y="-29"/>
      <point x="669" y="-12"/>
      <point x="726" y="5" type="curve"/>
      <point x="726" y="140" type="line"/>
      <point x="653" y="117"/>
      <point x="591" y="105"/>
      <point x="538" y="105" type="curve" smooth="yes"/>
      <point x="427" y="105"/>
      <point x="452" y="182"/>
      <point x="452" y="382" type="curve" smooth="yes"/>
      <point x="452" y="869" type="line"/>
      <point x="678" y="869" type="line"/>
      <point x="678" y="1002" type="line"/>
      <point x="452" y="1002" type="line"/>
      <point x="452" y="1298" type="line"/>
      <point x="350" y="1298" type="line"/>
      <point x="373" y="1071"/>
      <point x="317" y="1000"/>
      <point x="77" y="1002" type="curve"/>
      <point x="77" y="869" type="line"/>
      <point x="259" y="869" type="line"/>
      <point x="259" y="241" type="line" smooth="yes"/>
      <point x="259" y="109"/>
      <point x="286" y="-29"/>
    </contour>
  </outline>
</glyph>
<glyph name="u" format="2">
  <advance width="1149"/>
  <unicode hex="0075"/>
  <note>
u
</note>
  <anchor x="518" y="-11" name="bottom"/>
  <anchor x="954" y="0" name="ogonek"/>
  <anchor x="571" y="1001" name="top"/>
  <anchor x="1297" y="1001" name="topright"/>
  <outline>
    <contour>
      <point x="490" y="-27" type="curve" smooth="yes"/>
      <point x="701" y="-27"/>
      <point x="822" y="115"/>
      <point x="874" y="369" type="curve"/>
      <point x="831" y="456" type="line"/>
      <point x="830" y="0" type="line"/>
      <point x="1041" y="0" type="line"/>
      <point x="1041" y="1001" type="line"/>
      <point x="830" y="1001" type="line"/>
      <point x="830" y="483" type="line" smooth="yes"/>
      <point x="830" y="258"/>
      <point x="714" y="108"/>
      <point x="515" y="108" type="curve" smooth="yes"/>
      <point x="359" y="108"/>
      <point x="311" y="214"/>
      <point x="311" y="410" type="curve" smooth="yes"/>
      <point x="311" y="1001" type="line"/>
      <point x="99" y="1001" type="line"/>
      <point x="99" y="350" type="line" smooth="yes"/>
      <point x="99" y="114"/>
      <point x="256" y="-27"/>
    </contour>
  </outline>
</glyph>
<glyph name="v" format="2">
  <advance width="1198"/>
  <unicode hex="0076"/>
  <note>
v
</note>
  <anchor x="599" y="19" name="bottom"/>
  <anchor x="599" y="996" name="top"/>
  <outline>
    <contour>
      <point x="578" y="-26" type="line"/>
      <point x="628" y="-26" type="line"/>
      <point x="1120" y="1001" type="line"/>
      <point x="979" y="1001" type="line"/>
      <point x="618" y="213" type="line"/>
      <point x="672" y="235" type="line"/>
      <point x="309" y="1001" type="line"/>
      <point x="78" y="1001" type="line"/>
    </contour>
  </outline>
</glyph>
<glyph name="w" format="2">
  <advance width="1697"/>
  <unicode hex="0077"/>
  <note>
w
</note>
  <anchor x="849" y="0" name="bottom"/>
  <anchor x="849" y="1001" name="top"/>
  <outline>
    <contour>
      <point x="1084" y="-20" type="line"/>
      <point x="1135" y="-20" type="line"/>
      <point x="1624" y="1001" type="line"/>
      <point x="1485" y="1001" type="line"/>
      <point x="1120" y="207" type="line"/>
      <point x="1207" y="212" type="line"/>
      <point x="827" y="1001" type="line"/>
      <point x="597" y="1001" type="line"/>
    </contour>
    <contour>
      <point x="561" y="-20" type="line"/>
      <point x="612" y="-20" type="line"/>
      <point x="898" y="589" type="line"/>
      <point x="829" y="735" type="line"/>
      <point x="595" y="207" type="line"/>
      <point x="666" y="212" type="line"/>
      <point x="303" y="1001" type="line"/>
      <point x="73" y="1001" type="line"/>
    </contour>
    <contour>
      <point x="926" y="615" type="line"/>
      <point x="1105" y="1001" type="line"/>
      <point x="964" y="1001" type="line"/>
      <point x="833" y="715" type="line"/>
    </contour>
  </outline>
</glyph>
<glyph name="x" format="2">
  <advance width="1161"/>
  <unicode hex="0078"/>
  <note>
x
</note>
  <anchor x="581" y="19" name="bottom"/>
  <anchor x="581" y="996" name="top"/>
  <outline>
    <contour>
      <point x="827" y="0" type="line"/>
      <point x="1088" y="0" type="line"/>
      <point x="338" y="1001" type="line"/>
      <point x="77" y="1001" type="line"/>
    </contour>
    <contour>
      <point x="93" y="0" type="line"/>
      <point x="261" y="0" type="line"/>
      <point x="610" y="455" type="line"/>
      <point x="523" y="559" type="line"/>
    </contour>
    <contour>
      <point x="634" y="467" type="line"/>
      <point x="1045" y="1001" type="line"/>
      <point x="875" y="1001" type="line"/>
      <point x="548" y="572" type="line"/>
    </contour>
  </outline>
</glyph>
<glyph name="z" format="2">
  <advance width="1052"/>
  <unicode hex="007A"/>
  <note>
z
</note>
  <anchor x="526" y="0" name="bottom"/>
  <anchor x="526" y="501" name="center"/>
  <anchor x="526" y="1001" name="top"/>
  <outline>
    <contour>
      <point x="73" y="0" type="line"/>
      <point x="955" y="0" type="line"/>
      <point x="955" y="136" type="line"/>
      <point x="296" y="136" type="line"/>
      <point x="301" y="37" type="line"/>
      <point x="975" y="1001" type="line"/>
      <point x="117" y="1001" type="line"/>
      <point x="117" y="866" type="line"/>
      <point x="738" y="866" type="line"/>
      <point x="746" y="963" type="line"/>
    </contour>
  </outline>
</glyph>
<glyph name="braceleft" format="2">
  <advance width="778"/>
  <unicode hex="007B"/>
  <note>
braceleft
</note>
  <outline>
    <contour>
      <point x="675" y="-382" type="curve"/>
      <point x="675" y="-230" type="line"/>
      <point x="473" y="-252"/>
      <point x="407" y="-186"/>
      <point x="407" y="48" type="curve" smooth="yes"/>
      <point x="407" y="350" type="line" smooth="yes"/>
      <point x="407" y="406"/>
      <point x="386" y="447"/>
      <point x="337" y="490" type="curve"/>
      <point x="386" y="535"/>
      <point x="407" y="575"/>
      <point x="407" y="629" type="curve" smooth="yes"/>
      <point x="407" y="1030" type="line" smooth="yes"/>
      <point x="407" y="1254"/>
      <point x="482" y="1330"/>
      <point x="675" y="1307" type="curve"/>
      <point x="675" y="1460" type="line"/>
      <point x="414" y="1483"/>
      <point x="249" y="1340"/>
      <point x="249" y="1096" type="curve" smooth="yes"/>
      <point x="249" y="629" type="line" smooth="yes"/>
      <point x="249" y="583"/>
      <point x="229" y="572"/>
      <point x="95" y="491" type="curve"/>
      <point x="226" y="412"/>
      <point x="249" y="396"/>
      <point x="249" y="350" type="curve" smooth="yes"/>
      <point x="249" y="-17" type="line" smooth="yes"/>
      <point x="249" y="-264"/>
      <point x="413" y="-404"/>
    </contour>
  </outline>
</glyph>
<glyph name="braceright" format="2">
  <advance width="779"/>
  <unicode hex="007D"/>
  <note>
braceright
</note>
  <outline>
    <contour>
      <point x="103" y="-382" type="line"/>
      <point x="366" y="-404"/>
      <point x="529" y="-264"/>
      <point x="529" y="-17" type="curve" smooth="yes"/>
      <point x="529" y="350" type="line" smooth="yes"/>
      <point x="529" y="396"/>
      <point x="552" y="411"/>
      <point x="684" y="490" type="curve"/>
      <point x="548" y="572"/>
      <point x="529" y="583"/>
      <point x="529" y="629" type="curve" smooth="yes"/>
      <point x="529" y="1096" type="line" smooth="yes"/>
      <point x="529" y="1340"/>
      <point x="365" y="1483"/>
      <point x="103" y="1460" type="curve"/>
      <point x="103" y="1307" type="line"/>
      <point x="298" y="1330"/>
      <point x="372" y="1254"/>
      <point x="372" y="1030" type="curve" smooth="yes"/>
      <point x="372" y="629" type="line" smooth="yes"/>
      <point x="372" y="574"/>
      <point x="393" y="535"/>
      <point x="442" y="490" type="curve"/>
      <point x="393" y="447"/>
      <point x="372" y="406"/>
      <point x="372" y="350" type="curve" smooth="yes"/>
      <point x="372" y="48" type="line" smooth="yes"/>
      <point x="372" y="-186"/>
      <point x="306" y="-252"/>
      <point x="103" y="-230" type="curve"/>
    </contour>
  </outline>
</glyph>
<glyph name="asciitilde" format="2">
  <advance width="1335"/>
  <unicode hex="007E"/>
  <note>
asciitilde
</note>
  <outline>
    <contour>
      <point x="856" y="558" type="curve" smooth="yes"/>
      <point x="990" y="558"/>
      <point x="1125" y="641"/>
      <point x="1200" y="710" type="curve"/>
      <point x="1110" y="841" type="line"/>
      <point x="1038" y="784"/>
      <point x="937" y="744"/>
      <point x="854" y="744" type="curve" smooth="yes"/>
      <point x="781" y="744"/>
      <point x="731" y="779"/>
      <point x="695" y="799" type="curve" smooth="yes"/>
      <point x="611" y="847"/>
      <point x="547" y="874"/>
      <point x="471" y="874" type="curve" smooth="yes"/>
      <point x="365" y="874"/>
      <point x="240" y="812"/>
      <point x="135" y="700" type="curve"/>
      <point x="222" y="578" type="line"/>
      <point x="312" y="649"/>
      <point x="400" y="685"/>
      <point x="472" y="685" type="curve" smooth="yes"/>
      <point x="536" y="685"/>
      <point x="595" y="652"/>
      <point x="650" y="623" type="curve" smooth="yes"/>
      <point x="739" y="572"/>
      <point x="789" y="558"/>
    </contour>
  </outline>
</glyph>
<glyph name="currency" format="2">
  <advance width="1287"/>
  <unicode hex="00A4"/>
  <note>
currency
</note>
  <outline>
    <contour>
      <point x="239" y="214" type="line"/>
      <point x="387" y="362" type="line"/>
      <point x="458" y="310"/>
      <point x="547" y="279"/>
      <point x="643" y="279" type="curve" smooth="yes"/>
      <point x="739" y="279"/>
      <point x="828" y="310"/>
      <point x="899" y="362" type="curve"/>
      <point x="1048" y="214" type="line"/>
      <point x="1141" y="307" type="line"/>
      <point x="993" y="456" type="line"/>
      <point x="1045" y="528"/>
      <point x="1076" y="616"/>
      <point x="1076" y="712" type="curve" smooth="yes"/>
      <point x="1076" y="808"/>
      <point x="1045" y="897"/>
      <point x="993" y="968" type="curve"/>
      <point x="1141" y="1116" type="line"/>
      <point x="1047" y="1210" type="line"/>
      <point x="899" y="1062" type="line"/>
      <point x="828" y="1114"/>
      <point x="739" y="1145"/>
      <point x="643" y="1145" type="curve" smooth="yes"/>
      <point x="548" y="1145"/>
      <point x="459" y="1114"/>
      <point x="387" y="1062" type="curve"/>
      <point x="239" y="1209" type="line"/>
      <point x="146" y="1116" type="line"/>
      <point x="294" y="968" type="line"/>
      <point x="241" y="897"/>
      <point x="210" y="808"/>
      <point x="210" y="712" type="curve" smooth="yes"/>
      <point x="210" y="616"/>
      <point x="241" y="528"/>
      <point x="293" y="456" type="curve"/>
      <point x="146" y="308" type="line"/>
    </contour>
    <contour>
      <point x="643" y="417" type="curve" smooth="yes"/>
      <point x="480" y="417"/>
      <point x="348" y="549"/>
      <point x="348" y="712" type="curve" smooth="yes"/>
      <point x="348" y="875"/>
      <point x="480" y="1007"/>
      <point x="643" y="1007" type="curve" smooth="yes"/>
      <point x="806" y="1007"/>
      <point x="938" y="875"/>
      <point x="938" y="712" type="curve" smooth="yes"/>
      <point x="938" y="549"/>
      <point x="806" y="417"/>
    </contour>
  </outline>
</glyph>
<glyph name="section" format="2">
  <advance width="1370"/>
  <unicode hex="00A7"/>
  <note>
section
</note>
  <outline>
    <contour>
      <point x="671" y="-439" type="curve" smooth="yes"/>
      <point x="974" y="-439"/>
      <point x="1161" y="-308"/>
      <point x="1161" y="-90" type="curve" smooth="yes"/>
      <point x="1161" y="101"/>
      <point x="1047" y="200"/>
      <point x="782" y="244" type="curve"/>
      <point x="772" y="130" type="line"/>
      <point x="1087" y="184"/>
      <point x="1234" y="304"/>
      <point x="1234" y="525" type="curve" smooth="yes"/>
      <point x="1234" y="717"/>
      <point x="1124" y="840"/>
      <point x="847" y="931" type="curve" smooth="yes"/>
      <point x="630" y="1003"/>
      <point x="520" y="1047"/>
      <point x="520" y="1125" type="curve" smooth="yes"/>
      <point x="520" y="1238"/>
      <point x="583" y="1347"/>
      <point x="680" y="1347" type="curve" smooth="yes"/>
      <point x="791" y="1347"/>
      <point x="841" y="1229"/>
      <point x="839" y="1054" type="curve"/>
      <point x="1152" y="1054" type="line"/>
      <point x="1152" y="1116" type="line" smooth="yes"/>
      <point x="1152" y="1347"/>
      <point x="986" y="1474"/>
      <point x="692" y="1474" type="curve" smooth="yes"/>
      <point x="391" y="1474"/>
      <point x="194" y="1339"/>
      <point x="194" y="1127" type="curve" smooth="yes"/>
      <point x="194" y="951"/>
      <point x="303" y="866"/>
      <point x="625" y="783" type="curve"/>
      <point x="573" y="905" type="line"/>
      <point x="298" y="876"/>
      <point x="136" y="728"/>
      <point x="136" y="510" type="curve" smooth="yes"/>
      <point x="136" y="301"/>
      <point x="247" y="203"/>
      <point x="612" y="80" type="curve" smooth="yes"/>
      <point x="751" y="34"/>
      <point x="840" y="-18"/>
      <point x="840" y="-84" type="curve" smooth="yes"/>
      <point x="840" y="-201"/>
      <point x="781" y="-312"/>
      <point x="675" y="-312" type="curve" smooth="yes"/>
      <point x="556" y="-312"/>
      <point x="495" y="-184"/>
      <point x="499" y="-11" type="curve"/>
      <point x="183" y="-11" type="line"/>
      <point x="183" y="-74" type="line" smooth="yes"/>
      <point x="183" y="-296"/>
      <point x="377" y="-439"/>
    </contour>
    <contour>
      <point x="682" y="279" type="curve" smooth="yes"/>
      <point x="552" y="279"/>
      <point x="442" y="391"/>
      <point x="442" y="524" type="curve" smooth="yes"/>
      <point x="442" y="660"/>
      <point x="551" y="768"/>
      <point x="682" y="768" type="curve" smooth="yes"/>
      <point x="814" y="768"/>
      <point x="928" y="658"/>
      <point x="928" y="524" type="curve" smooth="yes"/>
      <point x="928" y="392"/>
      <point x="811" y="279"/>
    </contour>
  </outline>
</glyph>
<glyph name="registered" format="2">
  <advance width="1798"/>
  <unicode hex="00AE"/>
  <note>
registered
</note>
  <outline>
    <contour>
      <point x="898" y="-17" type="curve" smooth="yes"/>
      <point x="1102" y="-17"/>
      <point x="1294" y="63"/>
      <point x="1438" y="195" type="curve" smooth="yes"/>
      <point x="1586" y="332"/>
      <point x="1658" y="510"/>
      <point x="1658" y="706" type="curve" smooth="yes"/>
      <point x="1658" y="913"/>
      <point x="1584" y="1083"/>
      <point x="1439" y="1217" type="curve" smooth="yes"/>
      <point x="1295" y="1351"/>
      <point x="1109" y="1429"/>
      <point x="898" y="1429" type="curve" smooth="yes"/>
      <point x="699" y="1429"/>
      <point x="513" y="1359"/>
      <point x="366" y="1219" type="curve" smooth="yes"/>
      <point x="220" y="1080"/>
      <point x="140" y="898"/>
      <point x="140" y="706" type="curve" smooth="yes"/>
      <point x="140" y="511"/>
      <point x="216" y="334"/>
      <point x="366" y="194" type="curve" smooth="yes"/>
      <point x="510" y="59"/>
      <point x="699" y="-17"/>
    </contour>
    <contour>
      <point x="898" y="117" type="curve" smooth="yes"/>
      <point x="732" y="117"/>
      <point x="577" y="182"/>
      <point x="459" y="292" type="curve" smooth="yes"/>
      <point x="333" y="409"/>
      <point x="275" y="555"/>
      <point x="275" y="706" type="curve" smooth="yes"/>
      <point x="275" y="868"/>
      <point x="335" y="1007"/>
      <point x="460" y="1123" type="curve" smooth="yes"/>
      <point x="579" y="1234"/>
      <point x="724" y="1296"/>
      <point x="898" y="1296" type="curve" smooth="yes"/>
      <point x="1067" y="1296"/>
      <point x="1228" y="1228"/>
      <point x="1345" y="1121" type="curve" smooth="yes"/>
      <point x="1469" y="1008"/>
      <point x="1524" y="861"/>
      <point x="1524" y="706" type="curve" smooth="yes"/>
      <point x="1524" y="537"/>
      <point x="1469" y="405"/>
      <point x="1347" y="294" type="curve" smooth="yes"/>
      <point x="1228" y="186"/>
      <point x="1069" y="117"/>
    </contour>
    <contour>
      <point x="626" y="336" type="line"/>
      <point x="749" y="336" type="line"/>
      <point x="749" y="653" type="line"/>
      <point x="895" y="653" type="line"/>
      <point x="1058" y="336" type="line"/>
      <point x="1194" y="336" type="line"/>
      <point x="1015" y="671" type="line"/>
      <point x="1104" y="704"/>
      <point x="1182" y="776"/>
      <point x="1182" y="883" type="curve" smooth="yes"/>
      <point x="1182" y="1022"/>
      <point x="1078" y="1102"/>
      <point x="852" y="1102" type="curve" smooth="yes"/>
      <point x="626" y="1102" type="line"/>
    </contour>
    <contour>
      <point x="749" y="747" type="line"/>
      <point x="749" y="1003" type="line"/>
      <point x="882" y="1003" type="line" smooth="yes"/>
      <point x="1005" y="1002"/>
      <point x="1062" y="973"/>
      <point x="1062" y="879" type="curve" smooth="yes"/>
      <point x="1062" y="794"/>
      <point x="1006" y="747"/>
      <point x="886" y="747" type="curve" smooth="yes"/>
    </contour>
  </outline>
</glyph>
<glyph name="degree" format="2">
  <advance width="826"/>
  <unicode hex="00B0"/>
  <note>
degree
</note>
  <outline>
    <contour>
      <point x="411" y="893" type="curve" smooth="yes"/>
      <point x="562" y="893"/>
      <point x="684" y="1014"/>
      <point x="684" y="1164" type="curve" smooth="yes"/>
      <point x="684" y="1313"/>
      <point x="562" y="1434"/>
      <point x="413" y="1434" type="curve" smooth="yes"/>
      <point x="262" y="1434"/>
      <point x="142" y="1314"/>
      <point x="142" y="1164" type="curve" smooth="yes"/>
      <point x="142" y="1013"/>
      <point x="262" y="893"/>
    </contour>
    <contour>
      <point x="413" y="987" type="curve" smooth="yes"/>
      <point x="315" y="987"/>
      <point x="237" y="1066"/>
      <point x="237" y="1164" type="curve" smooth="yes"/>
      <point x="237" y="1261"/>
      <point x="315" y="1339"/>
      <point x="413" y="1339" type="curve" smooth="yes"/>
      <point x="511" y="1339"/>
      <point x="589" y="1261"/>
      <point x="589" y="1164" type="curve" smooth="yes"/>
      <point x="589" y="1066"/>
      <point x="511" y="987"/>
    </contour>
  </outline>
</glyph>
<glyph name="paragraph" format="2">
  <advance width="1236"/>
  <unicode hex="00B6"/>
  <note>
paragraph
</note>
  <outline>
    <contour>
      <point x="515" y="0" type="line"/>
      <point x="669" y="0" type="line"/>
      <point x="669" y="1298" type="line"/>
      <point x="821" y="1298" type="line"/>
      <point x="821" y="0" type="line"/>
      <point x="974" y="0" type="line"/>
      <point x="974" y="1298" type="line"/>
      <point x="1100" y="1298" type="line"/>
      <point x="1100" y="1446" type="line"/>
      <point x="571" y="1446" type="line" smooth="yes"/>
      <point x="314" y="1446"/>
      <point x="138" y="1283"/>
      <point x="138" y="1049" type="curve" smooth="yes"/>
      <point x="138" y="829"/>
      <point x="294" y="664"/>
      <point x="515" y="654" type="curve"/>
    </contour>
  </outline>
</glyph>
<glyph name="germandbls" format="2">
  <advance width="1344"/>
  <unicode hex="00DF"/>
  <note>
germandbls
</note>
  <anchor x="672" y="19" name="bottom"/>
  <anchor x="672" y="996" name="top"/>
  <outline>
    <contour>
      <point x="860" y="-31" type="curve" smooth="yes"/>
      <point x="1131" y="-31"/>
      <point x="1265" y="60"/>
      <point x="1265" y="288" type="curve" smooth="yes"/>
      <point x="1265" y="476"/>
      <point x="1138" y="553"/>
      <point x="911" y="600" type="curve" smooth="yes"/>
      <point x="742" y="633"/>
      <point x="730" y="666"/>
      <point x="730" y="729" type="curve" smooth="yes"/>
      <point x="730" y="818"/>
      <point x="795" y="839"/>
      <point x="881" y="892" type="curve" smooth="yes"/>
      <point x="958" y="940"/>
      <point x="1084" y="994"/>
      <point x="1084" y="1179" type="curve" smooth="yes"/>
      <point x="1084" y="1403"/>
      <point x="929" y="1558"/>
      <point x="658" y="1558" type="curve" smooth="yes"/>
      <point x="414" y="1558"/>
      <point x="251" y="1379"/>
      <point x="251" y="1097" type="curve" smooth="yes"/>
      <point x="251" y="0" type="line"/>
      <point x="454" y="0" type="line"/>
      <point x="454" y="1046" type="line" smooth="yes"/>
      <point x="454" y="1266"/>
      <point x="497" y="1424"/>
      <point x="668" y="1424" type="curve" smooth="yes"/>
      <point x="832" y="1424"/>
      <point x="912" y="1325"/>
      <point x="912" y="1170" type="curve" smooth="yes"/>
      <point x="912" y="1058"/>
      <point x="847" y="1020"/>
      <point x="766" y="971" type="curve" smooth="yes"/>
      <point x="690" y="925"/>
      <point x="579" y="868"/>
      <point x="579" y="713" type="curve" smooth="yes"/>
      <point x="579" y="568"/>
      <point x="631" y="508"/>
      <point x="853" y="463" type="curve" smooth="yes"/>
      <point x="991" y="437"/>
      <point x="1089" y="395"/>
      <point x="1089" y="273" type="curve" smooth="yes"/>
      <point x="1089" y="160"/>
      <point x="1007" y="114"/>
      <point x="862" y="114" type="curve" smooth="yes"/>
      <point x="752" y="114"/>
      <point x="685" y="141"/>
      <point x="594" y="184" type="curve"/>
      <point x="587" y="33" type="line"/>
      <point x="678" y="-13"/>
      <point x="774" y="-31"/>
    </contour>
    <contour>
      <point x="77" y="869" type="line"/>
      <point x="359" y="869" type="line"/>
      <point x="359" y="1002" type="line"/>
      <point x="77" y="1002" type="line"/>
    </contour>
  </outline>
</glyph>
<glyph name="ae" format="2">
  <advance width="2016"/>
  <unicode hex="00E6"/>
  <note>
ae
</note>
  <anchor x="994" y="19" name="bottom"/>
  <anchor x="1031" y="996" name="top"/>
  <outline>
    <contour>
      <point x="552" y="-31" type="curve" smooth="yes"/>
      <point x="777" y="-31"/>
      <point x="923" y="94"/>
      <point x="980" y="332" type="curve"/>
      <point x="921" y="383" type="line"/>
      <point x="915" y="0" type="line"/>
      <point x="1104" y="0" type="line"/>
      <point x="1104" y="1001" type="line"/>
      <point x="913" y="1001" type="line"/>
      <point x="913" y="610" type="line"/>
      <point x="977" y="657" type="line"/>
      <point x="924" y="904"/>
      <point x="765" y="1028"/>
      <point x="549" y="1028" type="curve" smooth="yes"/>
      <point x="263" y="1028"/>
      <point x="83" y="808"/>
      <point x="83" y="491" type="curve" smooth="yes"/>
      <point x="83" y="168"/>
      <point x="268" y="-31"/>
    </contour>
    <contour>
      <point x="568" y="103" type="curve" smooth="yes"/>
      <point x="389" y="103"/>
      <point x="289" y="237"/>
      <point x="289" y="498" type="curve" smooth="yes"/>
      <point x="289" y="758"/>
      <point x="390" y="894"/>
      <point x="565" y="894" type="curve" smooth="yes"/>
      <point x="752" y="894"/>
      <point x="877" y="732"/>
      <point x="877" y="494" type="curve" smooth="yes"/>
      <point x="877" y="259"/>
      <point x="758" y="103"/>
    </contour>
    <contour>
      <point x="1472" y="-28" type="curve" smooth="yes"/>
      <point x="1702" y="-28"/>
      <point x="1854" y="104"/>
      <point x="1928" y="367" type="curve"/>
      <point x="1771" y="367" type="line"/>
      <point x="1769" y="235"/>
      <point x="1629" y="105"/>
      <point x="1476" y="105" type="curve" smooth="yes"/>
      <point x="1307" y="105"/>
      <point x="1201" y="269"/>
      <point x="1201" y="496" type="curve" smooth="yes"/>
      <point x="1201" y="721"/>
      <point x="1303" y="894"/>
      <point x="1472" y="894" type="curve" smooth="yes"/>
      <point x="1625" y="894"/>
      <point x="1725" y="756"/>
      <point x="1745" y="505" type="curve"/>
      <point x="1938" y="505" type="line"/>
      <point x="1913" y="837"/>
      <point x="1735" y="1028"/>
      <point x="1469" y="1028" type="curve" smooth="yes"/>
      <point x="1184" y="1028"/>
      <point x="1000" y="805"/>
      <point x="1000" y="493" type="curve" smooth="yes"/>
      <point x="1000" y="177"/>
      <point x="1186" y="-28"/>
    </contour>
    <contour>
      <point x="1164" y="504" type="line"/>
      <point x="1890" y="505" type="line"/>
      <point x="1888" y="632" type="line"/>
      <point x="1137" y="632" type="line"/>
    </contour>
  </outline>
</glyph>
<glyph name="eth" format="2">
  <advance width="1207"/>
  <unicode hex="00F0"/>
  <note>
eth
</note>
  <outline>
    <contour>
      <point x="601" y="-34" type="curve" smooth="yes"/>
      <point x="779" y="-34"/>
      <point x="910" y="25"/>
      <point x="998" y="134" type="curve" smooth="yes"/>
      <point x="1077" y="226"/>
      <point x="1121" y="347"/>
      <point x="1121" y="504" type="curve" smooth="yes"/>
      <point x="1120" y="651"/>
      <point x="1100" y="863"/>
      <point x="1015" y="1029" type="curve" smooth="yes"/>
      <point x="883" y="1290"/>
      <point x="562" y="1525"/>
      <point x="206" y="1589" type="curve"/>
      <point x="140" y="1488" type="line"/>
      <point x="576" y="1406"/>
      <point x="880" y="1099"/>
      <point x="914" y="706" type="curve"/>
      <point x="1034" y="757" type="line"/>
      <point x="917" y="921"/>
      <point x="789" y="1000"/>
      <point x="601" y="1000" type="curve" smooth="yes"/>
      <point x="466" y="1000"/>
      <point x="352" y="963"/>
      <point x="258" y="884" type="curve" smooth="yes"/>
      <point x="151" y="796"/>
      <point x="82" y="651"/>
      <point x="82" y="475" type="curve" smooth="yes"/>
      <point x="82" y="321"/>
      <point x="140" y="196"/>
      <point x="216" y="116" type="curve" smooth="yes"/>
      <point x="313" y="11"/>
      <point x="444" y="-34"/>
    </contour>
    <contour>
      <point x="601" y="95" type="curve" smooth="yes"/>
      <point x="416" y="95"/>
      <point x="291" y="257"/>
      <point x="291" y="481" type="curve" smooth="yes"/>
      <point x="291" y="706"/>
      <point x="419" y="871"/>
      <point x="601" y="871" type="curve" smooth="yes"/>
      <point x="781" y="871"/>
      <point x="911" y="703"/>
      <point x="911" y="476" type="curve" smooth="yes"/>
      <point x="911" y="254"/>
      <point x="784" y="95"/>
    </contour>
    <contour>
      <point x="208" y="1125" type="line"/>
      <point x="382" y="1125" type="line"/>
      <point x="933" y="1616" type="line"/>
      <point x="760" y="1616" type="line"/>
    </contour>
  </outline>
</glyph>
<glyph name="divide" format="2">
  <advance width="1127"/>
  <unicode hex="00F7"/>
  <note>
divide
</note>
  <outline>
    <contour>
      <point x="138" y="554" type="line"/>
      <point x="1191" y="554" type="line"/>
      <point x="1191" y="718" type="line"/>
      <point x="138" y="718" type="line"/>
    </contour>
    <contour>
      <point x="664" y="154" type="curve" smooth="yes"/>
      <point x="745" y="154"/>
      <point x="802" y="222"/>
      <point x="802" y="310" type="curve" smooth="yes"/>
      <point x="802" y="398"/>
      <point x="744" y="467"/>
      <point x="664" y="467" type="curve" smooth="yes"/>
      <point x="585" y="467"/>
      <point x="528" y="398"/>
      <point x="528" y="310" type="curve" smooth="yes"/>
      <point x="528" y="223"/>
      <point x="585" y="154"/>
    </contour>
    <contour>
      <point x="664" y="792" type="curve" smooth="yes"/>
      <point x="744" y="792"/>
      <point x="802" y="860"/>
      <point x="802" y="948" type="curve" smooth="yes"/>
      <point x="802" y="1035"/>
      <point x="744" y="1104"/>
      <point x="664" y="1104" type="curve" smooth="yes"/>
      <point x="585" y="1104"/>
      <point x="528" y="1035"/>
      <point x="528" y="948" type="curve" smooth="yes"/>
      <point x="528" y="860"/>
      <point x="585" y="792"/>
    </contour>
  </outline>
</glyph>
<glyph name="thorn" format="2">
  <advance width="1235"/>
  <unicode hex="00FE"/>
  <note>
thorn
</note>
  <anchor x="622" y="19" name="bottom"/>
  <anchor x="622" y="996" name="top"/>
  <outline>
    <contour>
      <point x="121" y="-526" type="line"/>
      <point x="327" y="-526" type="line"/>
      <point x="327" y="396" type="line"/>
      <point x="265" y="349" type="line"/>
      <point x="317" y="103"/>
      <point x="467" y="-31"/>
      <point x="689" y="-31" type="curve" smooth="yes"/>
      <point x="967" y="-31"/>
      <point x="1152" y="188"/>
      <point x="1152" y="508" type="curve" smooth="yes"/>
      <point x="1152" y="821"/>
      <point x="968" y="1028"/>
      <point x="686" y="1028" type="curve" smooth="yes"/>
      <point x="459" y="1028"/>
      <point x="316" y="904"/>
      <point x="262" y="664" type="curve"/>
      <point x="325" y="617" type="line"/>
      <point x="325" y="1518" type="line"/>
      <point x="121" y="1518" type="line"/>
    </contour>
    <contour>
      <point x="662" y="103" type="curve" smooth="yes"/>
      <point x="475" y="103"/>
      <point x="349" y="273"/>
      <point x="349" y="510" type="curve" smooth="yes"/>
      <point x="349" y="736"/>
      <point x="470" y="895"/>
      <point x="659" y="895" type="curve" smooth="yes"/>
      <point x="847" y="895"/>
      <point x="954" y="760"/>
      <point x="954" y="501" type="curve" smooth="yes"/>
      <point x="954" y="240"/>
      <point x="847" y="103"/>
    </contour>
  </outline>
</glyph>
<glyph name="idotless" format="2">
  <advance width="420"/>
  <unicode hex="0131"/>
  <note>
dotlessi
</note>
  <anchor x="210" y="-11" name="bottom"/>
  <anchor x="234" y="0" name="ogonek"/>
  <anchor x="210" y="1001" name="top"/>
  <outline>
    <contour>
      <point x="108" y="0" type="line"/>
      <point x="312" y="0" type="line"/>
      <point x="312" y="1001" type="line"/>
      <point x="108" y="1001" type="line"/>
    </contour>
  </outline>
</glyph>
<glyph name="kgreenlandic" format="2">
  <advance width="1126"/>
  <unicode hex="0138"/>
  <anchor x="569" y="19" name="bottom"/>
  <anchor x="569" y="996" name="top"/>
  <outline>
    <contour>
      <point x="108" y="0" type="line"/>
      <point x="313" y="0" type="line"/>
      <point x="313" y="1001" type="line"/>
      <point x="108" y="1001" type="line"/>
    </contour>
    <contour>
      <point x="810" y="0" type="line"/>
      <point x="1054" y="0" type="line"/>
      <point x="505" y="633" type="line"/>
      <point x="382" y="482" type="line"/>
    </contour>
    <contour>
      <point x="276" y="321" type="line"/>
      <point x="953" y="1001" type="line"/>
      <point x="748" y="1001" type="line"/>
      <point x="268" y="515" type="line"/>
    </contour>
  </outline>
</glyph>
<glyph name="lslash" format="2">
  <advance width="868"/>
  <unicode hex="0142"/>
  <outline>
    <contour>
      <point x="334" y="0" type="line"/>
      <point x="539" y="0" type="line"/>
      <point x="539" y="1518" type="line"/>
      <point x="334" y="1518" type="line"/>
    </contour>
    <contour>
      <point x="144" y="506" type="line"/>
      <point x="795" y="882" type="line"/>
      <point x="725" y="996" type="line"/>
      <point x="73" y="620" type="line"/>
    </contour>
  </outline>
</glyph>
<glyph name="Eng" format="2">
  <advance width="1563"/>
  <unicode hex="014A"/>
  <outline>
    <contour>
      <point x="1119" y="-421" type="curve" smooth="yes"/>
      <point x="1291" y="-421"/>
      <point x="1418" y="-307"/>
      <point x="1418" y="-89" type="curve" smooth="yes"/>
      <point x="1418" y="1433" type="line"/>
      <point x="1242" y="1433" type="line"/>
      <point x="1242" y="228" type="line"/>
      <point x="1299" y="249" type="line"/>
      <point x="340" y="1433" type="line"/>
      <point x="139" y="1433" type="line"/>
      <point x="144" y="0" type="line"/>
      <point x="319" y="0" type="line"/>
      <point x="319" y="1191" type="line"/>
      <point x="261" y="1170" type="line"/>
      <point x="1202" y="23" type="line" smooth="yes"/>
      <point x="1237" y="-19"/>
      <point x="1259" y="-65"/>
      <point x="1259" y="-115" type="curve" smooth="yes"/>
      <point x="1259" y="-254"/>
      <point x="1200" y="-295"/>
      <point x="1116" y="-295" type="curve" smooth="yes"/>
      <point x="1021" y="-295"/>
      <point x="940" y="-242"/>
      <point x="878" y="-186" type="curve"/>
      <point x="878" y="-347" type="line"/>
      <point x="937" y="-391"/>
      <point x="1013" y="-421"/>
    </contour>
  </outline>
</glyph>
<glyph name="eng" format="2">
  <advance width="1116"/>
  <unicode hex="014B"/>
  <outline>
    <contour>
      <point x="745" y="-465" type="curve" smooth="yes"/>
      <point x="979" y="-465"/>
      <point x="1017" y="-217"/>
      <point x="1017" y="61" type="curve" smooth="yes"/>
      <point x="1017" y="608" type="line" smooth="yes"/>
      <point x="1017" y="879"/>
      <point x="881" y="1028"/>
      <point x="629" y="1028" type="curve" smooth="yes"/>
      <point x="457" y="1028"/>
      <point x="346" y="948"/>
      <point x="291" y="787" type="curve"/>
      <point x="319" y="758" type="line"/>
      <point x="320" y="1001" type="line"/>
      <point x="108" y="1001" type="line"/>
      <point x="108" y="0" type="line"/>
      <point x="320" y="0" type="line"/>
      <point x="320" y="578" type="line" smooth="yes"/>
      <point x="320" y="756"/>
      <point x="424" y="892"/>
      <point x="582" y="892" type="curve" smooth="yes"/>
      <point x="729" y="892"/>
      <point x="805" y="797"/>
      <point x="805" y="564" type="curve" smooth="yes"/>
      <point x="805" y="71" type="line" smooth="yes"/>
      <point x="805" y="-145"/>
      <point x="833" y="-339"/>
      <point x="727" y="-339" type="curve" smooth="yes"/>
      <point x="678" y="-339"/>
      <point x="638" y="-308"/>
      <point x="638" y="-254" type="curve" smooth="yes"/>
      <point x="638" y="-242"/>
      <point x="640" y="-227"/>
      <point x="644" y="-203" type="curve"/>
      <point x="504" y="-203" type="line"/>
      <point x="501" y="-221"/>
      <point x="500" y="-242"/>
      <point x="500" y="-256" type="curve" smooth="yes"/>
      <point x="503" y="-399"/>
      <point x="623" y="-465"/>
    </contour>
  </outline>
</glyph>
<glyph name="Schwa" format="2">
  <advance width="1635"/>
  <unicode hex="018F"/>
  <anchor x="818" y="10" name="bottom"/>
  <anchor x="817.99" y="1430" name="top"/>
  <outline>
    <contour>
      <point x="806" y="-25" type="curve" smooth="yes"/>
      <point x="1230" y="-25"/>
      <point x="1524" y="280"/>
      <point x="1524" y="714" type="curve" smooth="yes"/>
      <point x="1524" y="1139"/>
      <point x="1221" y="1453"/>
      <point x="807" y="1453" type="curve" smooth="yes"/>
      <point x="529" y="1453"/>
      <point x="278" y="1301"/>
      <point x="180" y="1072" type="curve"/>
      <point x="394" y="1072" type="line"/>
      <point x="484" y="1234"/>
      <point x="625" y="1326"/>
      <point x="806" y="1327" type="curve" smooth="yes"/>
      <point x="1104" y="1324"/>
      <point x="1304" y="1077"/>
      <point x="1304" y="713" type="curve" smooth="yes"/>
      <point x="1304" y="350"/>
      <point x="1106" y="107"/>
      <point x="807" y="101" type="curve" smooth="yes"/>
      <point x="501" y="107"/>
      <point x="321" y="348"/>
      <point x="315" y="733" type="curve"/>
      <point x="107" y="733" type="line"/>
      <point x="102" y="278"/>
      <point x="380" y="-25"/>
    </contour>
    <contour>
      <point x="258" y="606" type="line"/>
      <point x="1364" y="606" type="line"/>
      <point x="1364" y="733" type="line"/>
      <point x="258" y="733" type="line"/>
    </contour>
  </outline>
</glyph>
<glyph name="florin" format="2">
  <advance width="1469"/>
  <unicode hex="0192"/>
  <note>
florin
</note>
  <outline>
    <contour>
      <point x="582" y="396" type="line"/>
      <point x="800" y="396" type="line"/>
      <point x="980" y="1057" type="line"/>
      <point x="1005" y="1303"/>
      <point x="1032" y="1397"/>
      <point x="1155" y="1408" type="curve"/>
      <point x="1184" y="1400"/>
      <point x="1191" y="1383"/>
      <point x="1162" y="1299" type="curve"/>
      <point x="1325" y="1402" type="line"/>
      <point x="1289" y="1505"/>
      <point x="1234" y="1544"/>
      <point x="1120" y="1544" type="curve" smooth="yes"/>
      <point x="921" y="1544"/>
      <point x="850" y="1403"/>
      <point x="783" y="1150" type="curve" smooth="yes"/>
    </contour>
    <contour>
      <point x="348" y="-448" type="curve" smooth="yes"/>
      <point x="551" y="-448"/>
      <point x="611" y="-295"/>
      <point x="680" y="-46" type="curve" smooth="yes"/>
      <point x="863" y="622" type="line"/>
      <point x="644" y="622" type="line"/>
      <point x="489" y="39" type="line"/>
      <point x="463" y="-209"/>
      <point x="436" y="-300"/>
      <point x="312" y="-312" type="curve"/>
      <point x="284" y="-304"/>
      <point x="278" y="-287"/>
      <point x="304" y="-204" type="curve"/>
      <point x="144" y="-305" type="line"/>
      <point x="178" y="-409"/>
      <point x="234" y="-448"/>
    </contour>
    <contour>
      <point x="508" y="819" type="line"/>
      <point x="1110" y="819" type="line"/>
      <point x="1144" y="945" type="line"/>
      <point x="542" y="945" type="line"/>
    </contour>
  </outline>
</glyph>
<glyph name="primemod" format="2">
  <advance width="259.69"/>
  <unicode hex="02B9"/>
  <outline>
    <contour>
      <point x="260" y="1343" type="curve"/>
      <point x="87" y="1343" type="line"/>
      <point x="57" y="1258"/>
      <point x="12" y="1086"/>
      <point x="0" y="997" type="curve"/>
      <point x="135" y="997" type="line"/>
      <point x="188" y="1111"/>
      <point x="235" y="1238"/>
    </contour>
  </outline>
</glyph>
<glyph name="circumflexcomb" format="2">
  <unicode hex="0302"/>
  <note>
circumflex
</note>
  <anchor x="319" y="965" name="_top"/>
  <anchor x="319" y="1410" name="top"/>
  <outline>
    <contour>
      <point x="32" y="1085" type="line"/>
      <point x="146" y="1085" type="line"/>
      <point x="314" y="1296" type="line"/>
      <point x="493" y="1085" type="line"/>
      <point x="606" y="1085" type="line"/>
      <point x="384" y="1429" type="line"/>
      <point x="253" y="1429" type="line"/>
    </contour>
  </outline>
</glyph>
<glyph name="tildecomb" format="2">
  <unicode hex="0303"/>
  <note>
tilde
</note>
  <anchor x="384" y="965" name="_top"/>
  <anchor x="384" y="1369" name="top"/>
  <outline>
    <contour>
      <point x="505" y="1093" type="curve" smooth="yes"/>
      <point x="597" y="1093"/>
      <point x="662" y="1152"/>
      <point x="713" y="1288" type="curve"/>
      <point x="682" y="1326" type="line"/>
      <point x="632" y="1248"/>
      <point x="562" y="1217"/>
      <point x="515" y="1217" type="curve" smooth="yes"/>
      <point x="404" y="1217"/>
      <point x="411" y="1354"/>
      <point x="261" y="1354" type="curve" smooth="yes"/>
      <point x="166" y="1354"/>
      <point x="101" y="1291"/>
      <point x="54" y="1155" type="curve"/>
      <point x="85" y="1119" type="line"/>
      <point x="137" y="1197"/>
      <point x="196" y="1228"/>
      <point x="249" y="1228" type="curve" smooth="yes"/>
      <point x="360" y="1228"/>
      <point x="357" y="1093"/>
    </contour>
  </outline>
</glyph>
<glyph name="macroncomb" format="2">
  <unicode hex="0304"/>
  <note>
macron
</note>
  <anchor x="388" y="965" name="_top"/>
  <anchor x="388" y="1244" name="top"/>
  <outline>
    <contour>
      <point x="76" y="1120" type="line"/>
      <point x="699" y="1120" type="line"/>
      <point x="699" y="1229" type="line"/>
      <point x="76" y="1229" type="line"/>
    </contour>
  </outline>
</glyph>
<glyph name="brevecomb" format="2">
  <unicode hex="0306"/>
  <note>
breve
</note>
  <anchor x="351" y="965" name="_top"/>
  <anchor x="351" y="1379" name="top"/>
  <outline>
    <contour>
      <point x="351" y="1065" type="curve" smooth="yes"/>
      <point x="508" y="1065"/>
      <point x="602" y="1156"/>
      <point x="640" y="1364" type="curve"/>
      <point x="558" y="1364" type="line"/>
      <point x="510" y="1234"/>
      <point x="457" y="1185"/>
      <point x="351" y="1185" type="curve" smooth="yes"/>
      <point x="246" y="1185"/>
      <point x="189" y="1232"/>
      <point x="140" y="1364" type="curve"/>
      <point x="61" y="1364" type="line"/>
      <point x="98" y="1159"/>
      <point x="191" y="1065"/>
    </contour>
  </outline>
</glyph>
<glyph name="dotaccentcomb" format="2">
  <unicode hex="0307"/>
  <anchor x="175" y="965" name="_top"/>
  <anchor x="175" y="1340" name="top"/>
  <outline>
    <contour>
      <point x="175" y="1089" type="curve" smooth="yes"/>
      <point x="241" y="1089"/>
      <point x="292" y="1140"/>
      <point x="292" y="1207" type="curve" smooth="yes"/>
      <point x="292" y="1273"/>
      <point x="241" y="1324"/>
      <point x="175" y="1324" type="curve" smooth="yes"/>
      <point x="110" y="1324"/>
      <point x="59" y="1273"/>
      <point x="59" y="1207" type="curve" smooth="yes"/>
      <point x="59" y="1140"/>
      <point x="110" y="1089"/>
    </contour>
  </outline>
</glyph>
<glyph name="dieresiscomb" format="2">
  <unicode hex="0308"/>
  <note>
dieresis
</note>
  <anchor x="321" y="965" name="_top"/>
  <anchor x="321" y="1318" name="top"/>
  <outline>
    <contour>
      <point x="492" y="1074" type="curve" smooth="yes"/>
      <point x="554" y="1074"/>
      <point x="605" y="1125"/>
      <point x="605" y="1188" type="curve" smooth="yes"/>
      <point x="605" y="1252"/>
      <point x="555" y="1303"/>
      <point x="492" y="1303" type="curve" smooth="yes"/>
      <point x="430" y="1303"/>
      <point x="379" y="1252"/>
      <point x="379" y="1188" type="curve" smooth="yes"/>
      <point x="379" y="1125"/>
      <point x="430" y="1074"/>
    </contour>
    <contour>
      <point x="150" y="1074" type="curve" smooth="yes"/>
      <point x="212" y="1074"/>
      <point x="263" y="1125"/>
      <point x="263" y="1188" type="curve" smooth="yes"/>
      <point x="263" y="1252"/>
      <point x="212" y="1303"/>
      <point x="150" y="1303" type="curve" smooth="yes"/>
      <point x="87" y="1303"/>
      <point x="37" y="1252"/>
      <point x="37" y="1188" type="curve" smooth="yes"/>
      <point x="37" y="1125"/>
      <point x="88" y="1074"/>
    </contour>
  </outline>
</glyph>
<glyph name="cedillacomb" format="2">
  <unicode hex="0327"/>
  <anchor x="240" y="0" name="_bottom"/>
  <anchor x="239" y="-408" name="bottom"/>
  <outline>
    <contour>
      <point x="222" y="-408" type="curve" smooth="yes"/>
      <point x="357" y="-408"/>
      <point x="438" y="-352"/>
      <point x="438" y="-259" type="curve" smooth="yes"/>
      <point x="438" y="-158"/>
      <point x="356" y="-95"/>
      <point x="257" y="-118" type="curve" smooth="yes"/>
      <point x="252" y="-113"/>
      <point x="209" y="-134"/>
      <point x="160" y="-158" type="curve"/>
      <point x="93" y="-214" type="line"/>
      <point x="179" y="-194"/>
      <point x="189" y="-191"/>
      <point x="226" y="-191" type="curve" smooth="yes"/>
      <point x="288" y="-191"/>
      <point x="319" y="-220"/>
      <point x="319" y="-260" type="curve" smooth="yes"/>
      <point x="319" y="-311"/>
      <point x="276" y="-339"/>
      <point x="209" y="-339" type="curve" smooth="yes"/>
      <point x="160" y="-339"/>
      <point x="113" y="-329"/>
      <point x="46" y="-307" type="curve"/>
      <point x="46" y="-365" type="line"/>
      <point x="112" y="-394"/>
      <point x="168" y="-408"/>
    </contour>
    <contour>
      <point x="92" y="-214" type="line"/>
      <point x="236" y="-147" type="line"/>
      <point x="321" y="-1" type="line"/>
      <point x="210" y="-1" type="line"/>
    </contour>
  </outline>
</glyph>
<glyph name="ogonekcomb" format="2">
  <unicode hex="0328"/>
  <anchor x="369" y="0" name="_ogonek"/>
  <outline>
    <contour>
      <point x="240" y="-394" type="curve" smooth="yes"/>
      <point x="299" y="-394"/>
      <point x="388" y="-377"/>
      <point x="469" y="-341" type="curve"/>
      <point x="469" y="-265" type="line"/>
      <point x="363" y="-307"/>
      <point x="320" y="-326"/>
      <point x="276" y="-326" type="curve" smooth="yes"/>
      <point x="226" y="-326"/>
      <point x="198" y="-282"/>
      <point x="198" y="-223" type="curve" smooth="yes"/>
      <point x="198" y="-131"/>
      <point x="277" y="-66"/>
      <point x="431" y="0" type="curve"/>
      <point x="314" y="0" type="line" smooth="yes"/>
      <point x="246" y="0"/>
      <point x="36" y="-92"/>
      <point x="36" y="-230" type="curve" smooth="yes"/>
      <point x="36" y="-328"/>
      <point x="117" y="-394"/>
    </contour>
  </outline>
</glyph>
<glyph name="slashshortcomb" format="2">
  <unicode hex="0337"/>
  <anchor x="343" y="710" name="_center"/>
  <outline>
    <contour>
      <point x="60" y="493" type="line"/>
      <point x="671" y="854" type="line"/>
      <point x="626" y="927" type="line"/>
      <point x="14" y="566" type="line"/>
    </contour>
  </outline>
</glyph>
<glyph name="Dje-cy" format="2">
  <advance width="1570"/>
  <unicode hex="0402"/>
  <outline>
    <contour>
      <point x="952" y="-31" type="line"/>
      <point x="1303" y="-31"/>
      <point x="1457" y="150"/>
      <point x="1457" y="431" type="curve" smooth="yes"/>
      <point x="1457" y="703"/>
      <point x="1310" y="860"/>
      <point x="1069" y="860" type="curve" smooth="yes"/>
      <point x="910" y="860"/>
      <point x="742" y="791"/>
      <point x="660" y="644" type="curve"/>
      <point x="661" y="1433" type="line"/>
      <point x="450" y="1433" type="line"/>
      <point x="450" y="0" type="line"/>
      <point x="660" y="0" type="line"/>
      <point x="660" y="411" type="line" smooth="yes"/>
      <point x="660" y="589"/>
      <point x="854" y="726"/>
      <point x="1021" y="726" type="curve" smooth="yes"/>
      <point x="1173" y="726"/>
      <point x="1260" y="609"/>
      <point x="1260" y="417" type="curve" smooth="yes"/>
      <point x="1260" y="221"/>
      <point x="1169" y="97"/>
      <point x="962" y="97" type="curve"/>
    </contour>
    <contour>
      <point x="79" y="1305" type="line"/>
      <point x="1031" y="1305" type="line"/>
      <point x="1031" y="1433" type="line"/>
      <point x="79" y="1433" type="line"/>
    </contour>
  </outline>
</glyph>
<glyph name="Tshe-cy" format="2">
  <advance width="1570"/>
  <unicode hex="040B"/>
  <outline>
    <contour>
      <point x="661" y="1433" type="line"/>
      <point x="450" y="1433" type="line"/>
      <point x="450" y="0" type="line"/>
      <point x="660" y="0" type="line"/>
      <point x="660" y="411" type="line" smooth="yes"/>
      <point x="660" y="589"/>
      <point x="869" y="726"/>
      <point x="1021" y="726" type="curve" smooth="yes"/>
      <point x="1171" y="726"/>
      <point x="1247" y="595"/>
      <point x="1247" y="429" type="curve" smooth="yes"/>
      <point x="1247" y="0" type="line"/>
      <point x="1457" y="0" type="line"/>
      <point x="1457" y="472" type="line" smooth="yes"/>
      <point x="1457" y="693"/>
      <point x="1314" y="860"/>
      <point x="1069" y="860" type="curve" smooth="yes"/>
      <point x="873" y="860"/>
      <point x="650" y="751"/>
      <point x="605" y="507" type="curve"/>
      <point x="659" y="397" type="line"/>
    </contour>
    <contour>
      <point x="79" y="1305" type="line"/>
      <point x="1031" y="1305" type="line"/>
      <point x="1031" y="1433" type="line"/>
      <point x="79" y="1433" type="line"/>
    </contour>
  </outline>
</glyph>
<glyph name="Be-cy" format="2">
  <advance width="1234"/>
  <unicode hex="0411"/>
  <outline>
    <contour>
      <point x="176" y="0" type="line"/>
      <point x="656" y="0" type="line" smooth="yes"/>
      <point x="965" y="0"/>
      <point x="1144" y="160"/>
      <point x="1144" y="417" type="curve" smooth="yes"/>
      <point x="1144" y="675"/>
      <point x="965" y="835"/>
      <point x="656" y="835" type="curve" smooth="yes"/>
      <point x="294" y="835" type="line"/>
      <point x="390" y="739" type="line"/>
      <point x="390" y="1433" type="line"/>
      <point x="176" y="1433" type="line"/>
    </contour>
    <contour>
      <point x="390" y="31" type="line"/>
      <point x="390" y="803" type="line"/>
      <point x="294" y="708" type="line"/>
      <point x="573" y="709" type="line" smooth="yes"/>
      <point x="800" y="709"/>
      <point x="936" y="598"/>
      <point x="936" y="417" type="curve" smooth="yes"/>
      <point x="936" y="236"/>
      <point x="800" y="126"/>
      <point x="573" y="126" type="curve" smooth="yes"/>
      <point x="294" y="126" type="line"/>
    </contour>
    <contour>
      <point x="990" y="1305" type="line"/>
      <point x="990" y="1433" type="line"/>
      <point x="178" y="1433" type="line"/>
      <point x="178" y="1305" type="line"/>
    </contour>
  </outline>
</glyph>
<glyph name="De-cy" format="2">
  <advance width="1637"/>
  <unicode hex="0414"/>
  <outline>
    <contour>
      <point x="94" y="0" type="line"/>
      <point x="1507" y="0" type="line"/>
      <point x="1507" y="128" type="line"/>
      <point x="1160" y="128" type="line"/>
      <point x="1337" y="17" type="line"/>
      <point x="1337" y="1430" type="line"/>
      <point x="473" y="1430" type="line"/>
      <point x="473" y="1302" type="line"/>
      <point x="1300" y="1302" type="line"/>
      <point x="1123" y="1409" type="line"/>
      <point x="1123" y="17" type="line"/>
      <point x="1300" y="128" type="line"/>
      <point x="94" y="128" type="line"/>
    </contour>
    <contour>
      <point x="369" y="79" type="line"/>
      <point x="649" y="182"/>
      <point x="599" y="602"/>
      <point x="600" y="1401" type="curve"/>
      <point x="473" y="1401" type="line"/>
      <point x="474" y="603"/>
      <point x="525" y="189"/>
      <point x="204" y="91" type="curve"/>
    </contour>
    <component base="_cyrillicdescender01.case" xOffset="1419"/>
    <component base="_cyrillicdescender01.case" xScale="-1" xOffset="218"/>
  </outline>
</glyph>
<glyph name="Zhe-cy" format="2">
  <advance width="1964"/>
  <unicode hex="0416"/>
  <anchor x="1944" y="0" name="bottomright"/>
  <anchor x="982" y="1430" name="top"/>
  <outline>
    <contour>
      <point x="1662" y="0" type="line"/>
      <point x="1892" y="0" type="line"/>
      <point x="1301" y="788" type="line"/>
      <point x="1131" y="721" type="line"/>
    </contour>
    <contour>
      <point x="892" y="0" type="line"/>
      <point x="1072" y="0" type="line"/>
      <point x="1072" y="1430" type="line"/>
      <point x="892" y="1430" type="line"/>
    </contour>
    <contour>
      <point x="968" y="665" type="line"/>
      <point x="1311" y="665" type="line"/>
      <point x="1311" y="800" type="line"/>
      <point x="968" y="800" type="line"/>
    </contour>
    <contour>
      <point x="1142" y="748" type="line"/>
      <point x="1306" y="723" type="line"/>
      <point x="1831" y="1430" type="line"/>
      <point x="1650" y="1430" type="line"/>
    </contour>
    <contour>
      <point x="301" y="0" type="line"/>
      <point x="833" y="721" type="line"/>
      <point x="663" y="788" type="line"/>
      <point x="72" y="0" type="line"/>
    </contour>
    <contour>
      <point x="996" y="665" type="line"/>
      <point x="996" y="800" type="line"/>
      <point x="653" y="800" type="line"/>
      <point x="653" y="665" type="line"/>
    </contour>
    <contour>
      <point x="822" y="748" type="line"/>
      <point x="314" y="1430" type="line"/>
      <point x="132" y="1430" type="line"/>
      <point x="657" y="723" type="line"/>
    </contour>
  </outline>
</glyph>
<glyph name="Ze-cy" format="2">
  <advance width="1287"/>
  <unicode hex="0417"/>
  <anchor x="644" y="0" name="bottom"/>
  <anchor x="644" y="1430" name="top"/>
  <outline>
    <contour>
      <point x="619" y="-28" type="curve" smooth="yes"/>
      <point x="990" y="-28"/>
      <point x="1178" y="107"/>
      <point x="1178" y="402" type="curve" smooth="yes"/>
      <point x="1178" y="654"/>
      <point x="1062" y="740"/>
      <point x="814" y="791" type="curve"/>
      <point x="655" y="694" type="line"/>
      <point x="976" y="716"/>
      <point x="1114" y="821"/>
      <point x="1114" y="1078" type="curve" smooth="yes"/>
      <point x="1114" y="1335"/>
      <point x="967" y="1459"/>
      <point x="656" y="1459" type="curve" smooth="yes"/>
      <point x="431" y="1459"/>
      <point x="292" y="1376"/>
      <point x="217" y="1250" type="curve"/>
      <point x="364" y="1174" type="line"/>
      <point x="407" y="1268"/>
      <point x="497" y="1338"/>
      <point x="651" y="1338" type="curve" smooth="yes"/>
      <point x="827" y="1338"/>
      <point x="910" y="1257"/>
      <point x="910" y="1070" type="curve" smooth="yes"/>
      <point x="910" y="879"/>
      <point x="819" y="797"/>
      <point x="605" y="797" type="curve" smooth="yes"/>
      <point x="472" y="797" type="line"/>
      <point x="472" y="694" type="line"/>
      <point x="609" y="694" type="line" smooth="yes"/>
      <point x="849" y="694"/>
      <point x="951" y="614"/>
      <point x="951" y="403" type="curve" smooth="yes"/>
      <point x="951" y="192"/>
      <point x="838" y="90"/>
      <point x="626" y="90" type="curve" smooth="yes"/>
      <point x="439" y="90"/>
      <point x="324" y="184"/>
      <point x="292" y="323" type="curve"/>
      <point x="103" y="283" type="line"/>
      <point x="168" y="89"/>
      <point x="303" y="-28"/>
    </contour>
  </outline>
</glyph>
<glyph name="Ka-cy" format="2">
  <advance width="1335"/>
  <unicode hex="041A"/>
  <guideline x="448" y="209" angle="130.088"/>
  <guideline x="339" y="178" angle="130.088"/>
  <anchor x="1315" y="0" name="bottomright"/>
  <anchor x="668" y="1430" name="top"/>
  <outline>
    <contour>
      <point x="141" y="0" type="line"/>
      <point x="355" y="0" type="line"/>
      <point x="355" y="1430" type="line"/>
      <point x="141" y="1430" type="line"/>
    </contour>
    <contour>
      <point x="459" y="654" type="line"/>
      <point x="1200" y="1430" type="line"/>
      <point x="994" y="1430" type="line"/>
      <point x="301" y="703" type="line"/>
    </contour>
    <contour>
      <point x="964" y="0" type="line"/>
      <point x="1233" y="0" type="line"/>
      <point x="512" y="739" type="line"/>
      <point x="286" y="696" type="line"/>
    </contour>
  </outline>
</glyph>
<glyph name="El-cy" format="2">
  <advance width="1485"/>
  <unicode hex="041B"/>
  <outline>
    <contour>
      <point x="514" y="1430" type="line"/>
      <point x="516" y="916"/>
      <point x="506" y="690"/>
      <point x="466" y="502" type="curve"/>
      <point x="415" y="177"/>
      <point x="290" y="129"/>
      <point x="164" y="129" type="curve" smooth="yes"/>
      <point x="105" y="129" type="line"/>
      <point x="105" y="0" type="line"/>
      <point x="176" y="0" type="line" smooth="yes"/>
      <point x="380" y="0"/>
      <point x="522" y="126"/>
      <point x="581" y="476" type="curve"/>
      <point x="637" y="729"/>
      <point x="642" y="1132"/>
      <point x="641" y="1352" type="curve"/>
      <point x="546" y="1302" type="line"/>
      <point x="1225" y="1302" type="line"/>
      <point x="1130" y="1397" type="line"/>
      <point x="1130" y="0" type="line"/>
      <point x="1344" y="0" type="line"/>
      <point x="1344" y="1430" type="line"/>
    </contour>
  </outline>
</glyph>
<glyph name="Pe-cy" format="2">
  <advance width="1441"/>
  <unicode hex="041F"/>
  <anchor x="1421" y="0" name="bottomright"/>
  <outline>
    <contour>
      <point x="141" y="0" type="line"/>
      <point x="353" y="0" type="line"/>
      <point x="353" y="1302" type="line"/>
      <point x="1088" y="1302" type="line"/>
      <point x="1088" y="0" type="line"/>
      <point x="1300" y="0" type="line"/>
      <point x="1300" y="1430" type="line"/>
      <point x="141" y="1430" type="line"/>
    </contour>
  </outline>
</glyph>
<glyph name="Che-cy" format="2">
  <advance width="1267"/>
  <unicode hex="0427"/>
  <anchor x="1327" y="0" name="bottomright"/>
  <anchor x="634" y="1433" name="top"/>
  <outline>
    <contour>
      <point x="913" y="0" type="line"/>
      <point x="1124" y="0" type="line"/>
      <point x="1124" y="1430" type="line"/>
      <point x="915" y="1430" type="line"/>
      <point x="915" y="1019" type="line" smooth="yes"/>
      <point x="915" y="841"/>
      <point x="705" y="704"/>
      <point x="553" y="704" type="curve" smooth="yes"/>
      <point x="404" y="704"/>
      <point x="328" y="835"/>
      <point x="328" y="1001" type="curve" smooth="yes"/>
      <point x="328" y="1430" type="line"/>
      <point x="118" y="1430" type="line"/>
      <point x="118" y="958" type="line" smooth="yes"/>
      <point x="118" y="737"/>
      <point x="260" y="570"/>
      <point x="505" y="570" type="curve" smooth="yes"/>
      <point x="702" y="570"/>
      <point x="924" y="679"/>
      <point x="969" y="923" type="curve"/>
      <point x="915" y="1033" type="line"/>
    </contour>
  </outline>
</glyph>
<glyph name="Sha-cy" format="2">
  <advance width="1756"/>
  <unicode hex="0428"/>
  <outline>
    <contour>
      <point x="141" y="0" type="line"/>
      <point x="1615" y="0" type="line"/>
      <point x="1615" y="1433" type="line"/>
      <point x="1412" y="1433" type="line"/>
      <point x="1412" y="128" type="line"/>
      <point x="345" y="128" type="line"/>
      <point x="345" y="1433" type="line"/>
      <point x="141" y="1433" type="line"/>
    </contour>
    <contour>
      <point x="776" y="0" type="line"/>
      <point x="981" y="0" type="line"/>
      <point x="981" y="1433" type="line"/>
      <point x="776" y="1433" type="line"/>
    </contour>
  </outline>
</glyph>
<glyph name="ve-cy" format="2">
  <advance width="1035"/>
  <unicode hex="0432"/>
  <outline>
    <contour>
      <point x="108" y="0" type="line"/>
      <point x="527" y="0" type="line" smooth="yes"/>
      <point x="802" y="0"/>
      <point x="956" y="89"/>
      <point x="956" y="284" type="curve" smooth="yes"/>
      <point x="956" y="438"/>
      <point x="860" y="535"/>
      <point x="702" y="564" type="curve"/>
      <point x="699" y="488" type="line"/>
      <point x="839" y="532"/>
      <point x="914" y="622"/>
      <point x="914" y="739" type="curve" smooth="yes"/>
      <point x="914" y="911"/>
      <point x="751" y="1001"/>
      <point x="524" y="1001" type="curve" smooth="yes"/>
      <point x="108" y="1001" type="line"/>
    </contour>
    <contour>
      <point x="322" y="8" type="line"/>
      <point x="322" y="561" type="line"/>
      <point x="270" y="470" type="line"/>
      <point x="541" y="470" type="line" smooth="yes"/>
      <point x="668" y="470"/>
      <point x="748" y="401"/>
      <point x="749" y="302" type="curve" smooth="yes"/>
      <point x="749" y="195"/>
      <point x="652" y="122"/>
      <point x="506" y="122" type="curve" smooth="yes"/>
      <point x="168" y="122" type="line"/>
    </contour>
    <contour>
      <point x="322" y="489" type="line"/>
      <point x="322" y="986" type="line"/>
      <point x="156" y="881" type="line"/>
      <point x="507" y="881" type="line" smooth="yes"/>
      <point x="628" y="881"/>
      <point x="704" y="820"/>
      <point x="704" y="718" type="curve" smooth="yes"/>
      <point x="704" y="618"/>
      <point x="633" y="581"/>
      <point x="513" y="581" type="curve" smooth="yes"/>
      <point x="287" y="581" type="line"/>
    </contour>
  </outline>
</glyph>
<glyph name="ge-cy" format="2">
  <advance width="898"/>
  <unicode hex="0433"/>
  <anchor x="878" y="0" name="bottomright"/>
  <anchor x="214" y="495" name="center"/>
  <anchor x="449" y="1001" name="top"/>
  <outline>
    <contour>
      <point x="103" y="1001" type="line"/>
      <point x="103" y="-1" type="line"/>
      <point x="318" y="-1" type="line"/>
      <point x="318" y="985" type="line"/>
      <point x="141" y="870" type="line"/>
      <point x="809" y="870" type="line"/>
      <point x="809" y="1001" type="line"/>
    </contour>
  </outline>
</glyph>
<glyph name="de-cy" format="2">
  <advance width="1291"/>
  <unicode hex="0434"/>
  <outline>
    <contour>
      <point x="96" y="0" type="line"/>
      <point x="1158" y="0" type="line"/>
      <point x="1158" y="131" type="line"/>
      <point x="839" y="131" type="line"/>
      <point x="1030" y="13" type="line"/>
      <point x="1030" y="1001" type="line"/>
      <point x="340" y="1001" type="line"/>
      <point x="340" y="870" type="line"/>
      <point x="1006" y="870" type="line"/>
      <point x="821" y="984" type="line"/>
      <point x="821" y="13" type="line"/>
      <point x="1006" y="132" type="line"/>
      <point x="96" y="132" type="line"/>
    </contour>
    <contour>
      <point x="304" y="78" type="line"/>
      <point x="504" y="125"/>
      <point x="453" y="368"/>
      <point x="456" y="979" type="curve"/>
      <point x="340" y="978" type="line"/>
      <point x="338" y="370"/>
      <point x="388" y="128"/>
      <point x="150" y="84" type="curve"/>
    </contour>
    <component base="_cyrillicdescender02" xOffset="922"/>
    <component base="_cyrillicdescender02" xScale="-1" xOffset="369"/>
  </outline>
</glyph>
<glyph name="zhe-cy" format="2">
  <advance width="1483"/>
  <unicode hex="0436"/>
  <anchor x="1463" y="0" name="bottomright"/>
  <anchor x="742" y="1001" name="top"/>
  <outline>
    <contour>
      <point x="1205" y="0" type="line"/>
      <point x="1410" y="0" type="line"/>
      <point x="1006" y="569" type="line"/>
      <point x="856" y="503" type="line"/>
    </contour>
    <contour>
      <point x="651" y="0" type="line"/>
      <point x="832" y="0" type="line"/>
      <point x="832" y="1001" type="line"/>
      <point x="651" y="1001" type="line"/>
    </contour>
    <contour>
      <point x="715" y="452" type="line"/>
      <point x="1027" y="452" type="line"/>
      <point x="1027" y="581" type="line"/>
      <point x="715" y="581" type="line"/>
    </contour>
    <contour>
      <point x="874" y="531" type="line"/>
      <point x="1030" y="498" type="line"/>
      <point x="1380" y="1001" type="line"/>
      <point x="1203" y="1001" type="line"/>
    </contour>
    <contour>
      <point x="278" y="0" type="line"/>
      <point x="626" y="503" type="line"/>
      <point x="476" y="569" type="line"/>
      <point x="73" y="0" type="line"/>
    </contour>
    <contour>
      <point x="768" y="452" type="line"/>
      <point x="768" y="581" type="line"/>
      <point x="455" y="581" type="line"/>
      <point x="455" y="452" type="line"/>
    </contour>
    <contour>
      <point x="608" y="531" type="line"/>
      <point x="280" y="1001" type="line"/>
      <point x="102" y="1001" type="line"/>
      <point x="453" y="498" type="line"/>
    </contour>
  </outline>
</glyph>
<glyph name="ze-cy" format="2">
  <advance width="1014"/>
  <unicode hex="0437"/>
  <anchor x="503" y="0" name="bottom"/>
  <anchor x="503" y="1001" name="top"/>
  <outline>
    <contour>
      <point x="485" y="-30" type="curve" smooth="yes"/>
      <point x="777" y="-30"/>
      <point x="933" y="65"/>
      <point x="933" y="276" type="curve" smooth="yes"/>
      <point x="933" y="455"/>
      <point x="846" y="516"/>
      <point x="661" y="548" type="curve"/>
      <point x="550" y="466" type="line"/>
      <point x="783" y="495"/>
      <point x="882" y="566"/>
      <point x="882" y="742" type="curve" smooth="yes"/>
      <point x="882" y="927"/>
      <point x="751" y="1020"/>
      <point x="513" y="1020" type="curve" smooth="yes"/>
      <point x="317" y="1020"/>
      <point x="216" y="952"/>
      <point x="162" y="838" type="curve"/>
      <point x="306" y="801" type="line"/>
      <point x="328" y="869"/>
      <point x="412" y="897"/>
      <point x="509" y="897" type="curve" smooth="yes"/>
      <point x="638" y="897"/>
      <point x="684" y="829"/>
      <point x="684" y="734" type="curve" smooth="yes"/>
      <point x="684" y="585"/>
      <point x="608" y="563"/>
      <point x="472" y="563" type="curve" smooth="yes"/>
      <point x="358" y="563" type="line"/>
      <point x="358" y="462" type="line"/>
      <point x="475" y="462" type="line" smooth="yes"/>
      <point x="628" y="462"/>
      <point x="716" y="430"/>
      <point x="716" y="279" type="curve" smooth="yes"/>
      <point x="716" y="162"/>
      <point x="640" y="92"/>
      <point x="490" y="92" type="curve" smooth="yes"/>
      <point x="343" y="92"/>
      <point x="279" y="143"/>
      <point x="251" y="239" type="curve"/>
      <point x="73" y="222" type="line"/>
      <point x="130" y="56"/>
      <point x="224" y="-30"/>
    </contour>
  </outline>
</glyph>
<glyph name="ka-cy" format="2">
  <advance width="1067"/>
  <unicode hex="043A"/>
  <anchor x="997" y="0" name="bottomright"/>
  <anchor x="534" y="1001" name="top"/>
  <outline>
    <contour>
      <point x="103" y="0" type="line"/>
      <point x="315" y="0" type="line"/>
      <point x="315" y="1001" type="line"/>
      <point x="103" y="1001" type="line"/>
    </contour>
    <contour>
      <point x="448" y="464" type="line"/>
      <point x="962" y="1001" type="line"/>
      <point x="765" y="1001" type="line"/>
      <point x="295" y="502" type="line"/>
    </contour>
    <contour>
      <point x="734" y="0" type="line"/>
      <point x="985" y="0" type="line"/>
      <point x="482" y="525" type="line"/>
      <point x="272" y="497" type="line"/>
    </contour>
  </outline>
</glyph>
<glyph name="em-cy" format="2">
  <advance width="1310"/>
  <unicode hex="043C"/>
  <guideline x="307" y="209" angle="247.123"/>
  <guideline x="276" y="203" angle="293.1291"/>
  <outline>
    <contour>
      <point x="108" y="0" type="line"/>
      <point x="305" y="0" type="line"/>
      <point x="305" y="829" type="line"/>
      <point x="205" y="838" type="line"/>
      <point x="654" y="57" type="line"/>
      <point x="1108" y="846" type="line"/>
      <point x="1011" y="828" type="line"/>
      <point x="1011" y="0" type="line"/>
      <point x="1202" y="0" type="line"/>
      <point x="1202" y="1013" type="line"/>
      <point x="1010" y="1013" type="line"/>
      <point x="616" y="315" type="line"/>
      <point x="678" y="315" type="line"/>
      <point x="286" y="1013" type="line"/>
      <point x="108" y="1013" type="line"/>
    </contour>
  </outline>
</glyph>
<glyph name="en-cy" format="2">
  <advance width="1178"/>
  <unicode hex="043D"/>
  <anchor x="1149" y="0" name="bottomright"/>
  <outline>
    <contour>
      <point x="108" y="0" type="line"/>
      <point x="320" y="0" type="line"/>
      <point x="320" y="576" type="line"/>
      <point x="133" y="453" type="line"/>
      <point x="1040" y="453" type="line"/>
      <point x="859" y="576" type="line"/>
      <point x="859" y="0" type="line"/>
      <point x="1071" y="0" type="line"/>
      <point x="1071" y="1001" type="line"/>
      <point x="859" y="1001" type="line"/>
      <point x="859" y="450" type="line"/>
      <point x="1040" y="574" type="line"/>
      <point x="133" y="574" type="line"/>
      <point x="320" y="450" type="line"/>
      <point x="320" y="1001" type="line"/>
      <point x="108" y="1001" type="line"/>
    </contour>
  </outline>
</glyph>
<glyph name="pe-cy" format="2">
  <advance width="1114"/>
  <unicode hex="043F"/>
  <anchor x="1085" y="0" name="bottomright"/>
  <outline>
    <contour>
      <point x="108" y="0" type="line"/>
      <point x="323" y="0" type="line"/>
      <point x="323" y="869" type="line"/>
      <point x="792" y="869" type="line"/>
      <point x="792" y="0" type="line"/>
      <point x="1007" y="0" type="line"/>
      <point x="1007" y="1001" type="line"/>
      <point x="108" y="1001" type="line"/>
    </contour>
  </outline>
</glyph>
<glyph name="tse-cy" format="2">
  <advance width="1252"/>
  <unicode hex="0446"/>
  <anchor x="1085" y="1001" name="bottomright"/>
  <outline>
    <contour>
      <point x="1178" y="0" type="line"/>
      <point x="1178" y="132" type="line"/>
      <point x="949" y="132" type="line"/>
      <point x="949" y="0" type="line"/>
    </contour>
    <component base="pe-cy" yScale="-1" yOffset="1001"/>
    <component base="_cyrillicdescender01" xScale="-1" xOffset="1242"/>
  </outline>
</glyph>
<glyph name="che-cy" format="2">
  <advance width="1026"/>
  <unicode hex="0447"/>
  <anchor x="1006" y="0" name="bottomright"/>
  <anchor x="513" y="1001" name="top"/>
  <outline>
    <contour>
      <point x="703" y="0" type="line"/>
      <point x="918" y="0" type="line"/>
      <point x="918" y="1001" type="line"/>
      <point x="705" y="1001" type="line"/>
      <point x="705" y="644" type="line" smooth="yes"/>
      <point x="705" y="544"/>
      <point x="565" y="450"/>
      <point x="453" y="450" type="curve" smooth="yes"/>
      <point x="343" y="450"/>
      <point x="300" y="541"/>
      <point x="300" y="645" type="curve" smooth="yes"/>
      <point x="300" y="1001" type="line"/>
      <point x="87" y="1001" type="line"/>
      <point x="87" y="595" type="line" smooth="yes"/>
      <point x="87" y="443"/>
      <point x="201" y="322"/>
      <point x="394" y="322" type="curve" smooth="yes"/>
      <point x="537" y="322"/>
      <point x="718" y="392"/>
      <point x="760" y="566" type="curve"/>
      <point x="706" y="709" type="line"/>
    </contour>
  </outline>
</glyph>
<glyph name="softsign-cy" format="2">
  <advance width="943"/>
  <unicode hex="044C"/>
  <outline>
    <contour>
      <point x="108" y="0" type="line"/>
      <point x="456" y="-2" type="line" smooth="yes"/>
      <point x="712" y="-3"/>
      <point x="862" y="98"/>
      <point x="862" y="342" type="curve" smooth="yes"/>
      <point x="862" y="587"/>
      <point x="717" y="688"/>
      <point x="455" y="688" type="curve" smooth="yes"/>
      <point x="207" y="688" type="line"/>
      <point x="320" y="625" type="line"/>
      <point x="320" y="1001" type="line"/>
      <point x="108" y="1001" type="line"/>
    </contour>
    <contour>
      <point x="320" y="14" type="line"/>
      <point x="320" y="672" type="line"/>
      <point x="255" y="570" type="line"/>
      <point x="395" y="571" type="line" smooth="yes"/>
      <point x="567" y="571"/>
      <point x="654" y="506"/>
      <point x="654" y="342" type="curve" smooth="yes"/>
      <point x="654" y="176"/>
      <point x="562" y="118"/>
      <point x="395" y="118" type="curve" smooth="yes"/>
      <point x="132" y="117" type="line"/>
    </contour>
  </outline>
</glyph>
<glyph name="ereversed-cy" format="2">
  <advance width="1137"/>
  <unicode hex="044D"/>
  <anchor x="571" y="1001" name="top"/>
  <outline>
    <contour>
      <point x="538" y="-24" type="curve" smooth="yes"/>
      <point x="857" y="-24"/>
      <point x="1054" y="187"/>
      <point x="1054" y="495" type="curve" smooth="yes"/>
      <point x="1054" y="804"/>
      <point x="850" y="1020"/>
      <point x="538" y="1020" type="curve" smooth="yes"/>
      <point x="323" y="1020"/>
      <point x="156" y="917"/>
      <point x="81" y="749" type="curve"/>
      <point x="302" y="749" type="line"/>
      <point x="340" y="837"/>
      <point x="429" y="894"/>
      <point x="538" y="894" type="curve" smooth="yes"/>
      <point x="720" y="894"/>
      <point x="839" y="726"/>
      <point x="839" y="495" type="curve" smooth="yes"/>
      <point x="839" y="264"/>
      <point x="718" y="100"/>
      <point x="537" y="100" type="curve" smooth="yes"/>
      <point x="428" y="100"/>
      <point x="341" y="158"/>
      <point x="297" y="257" type="curve"/>
      <point x="75" y="257" type="line"/>
      <point x="162" y="74"/>
      <point x="319" y="-24"/>
    </contour>
    <contour>
      <point x="393" y="441" type="line"/>
      <point x="893" y="441" type="line"/>
      <point x="893" y="564" type="line"/>
      <point x="393" y="564" type="line"/>
    </contour>
  </outline>
</glyph>
<glyph name="ia-cy" format="2">
  <advance width="987"/>
  <unicode hex="044F"/>
  <anchor x="494" y="1001" name="top"/>
  <outline>
    <contour>
      <point x="676" y="0" type="line"/>
      <point x="880" y="0" type="line"/>
      <point x="880" y="1001" type="line"/>
      <point x="561" y="1001" type="line" smooth="yes"/>
      <point x="321" y="1001"/>
      <point x="126" y="927"/>
      <point x="126" y="701" type="curve" smooth="yes"/>
      <point x="126" y="504"/>
      <point x="291" y="415"/>
      <point x="492" y="393" type="curve" smooth="yes"/>
      <point x="546" y="393" type="line"/>
      <point x="772" y="398" type="line"/>
      <point x="676" y="478" type="line"/>
    </contour>
    <contour>
      <point x="676" y="421" type="line"/>
      <point x="728" y="505" type="line"/>
      <point x="576" y="505" type="line" smooth="yes"/>
      <point x="411" y="505"/>
      <point x="321" y="546"/>
      <point x="321" y="696" type="curve" smooth="yes"/>
      <point x="321" y="844"/>
      <point x="408" y="879"/>
      <point x="576" y="879" type="curve" smooth="yes"/>
      <point x="852" y="879" type="line"/>
      <point x="676" y="984" type="line"/>
    </contour>
    <contour>
      <point x="75" y="0" type="curve"/>
      <point x="285" y="0" type="line"/>
      <point x="296" y="48"/>
      <point x="294" y="58"/>
      <point x="316" y="141" type="curve" smooth="yes"/>
      <point x="351" y="275"/>
      <point x="381" y="333"/>
      <point x="425" y="361" type="curve" smooth="yes"/>
      <point x="471" y="391"/>
      <point x="555" y="398"/>
      <point x="631" y="397" type="curve"/>
      <point x="324" y="443" type="line"/>
      <point x="295" y="435"/>
      <point x="255" y="430"/>
      <point x="219" y="397" type="curve" smooth="yes"/>
      <point x="192" y="374"/>
      <point x="158" y="347"/>
      <point x="122" y="196" type="curve" smooth="yes"/>
      <point x="113" y="160"/>
      <point x="92" y="66"/>
    </contour>
  </outline>
</glyph>
<glyph name="Yat-cy" format="2">
  <advance width="1223"/>
  <unicode hex="0462"/>
  <outline>
    <contour>
      <point x="311" y="0" type="line"/>
      <point x="657" y="-2" type="line" smooth="yes"/>
      <point x="802" y="-2"/>
      <point x="907" y="27"/>
      <point x="995" y="95" type="curve" smooth="yes"/>
      <point x="1069" y="153"/>
      <point x="1129" y="266"/>
      <point x="1129" y="398" type="curve" smooth="yes"/>
      <point x="1129" y="525"/>
      <point x="1072" y="641"/>
      <point x="995" y="701" type="curve" smooth="yes"/>
      <point x="909" y="766"/>
      <point x="802" y="797"/>
      <point x="657" y="798" type="curve" smooth="yes"/>
      <point x="437" y="799" type="line"/>
      <point x="520" y="717" type="line"/>
      <point x="520" y="1433" type="line"/>
      <point x="311" y="1433" type="line"/>
    </contour>
    <contour>
      <point x="520" y="16" type="line"/>
      <point x="520" y="765" type="line"/>
      <point x="443" y="680" type="line"/>
      <point x="628" y="680" type="line" smooth="yes"/>
      <point x="837" y="680"/>
      <point x="939" y="582"/>
      <point x="939" y="398" type="curve" smooth="yes"/>
      <point x="939" y="214"/>
      <point x="837" y="117"/>
      <point x="628" y="116" type="curve" smooth="yes"/>
      <point x="401" y="115" type="line"/>
    </contour>
    <contour>
      <point x="105" y="1189" type="line"/>
      <point x="721" y="1189" type="line"/>
      <point x="721" y="1317" type="line"/>
      <point x="105" y="1317" type="line"/>
    </contour>
  </outline>
</glyph>
<glyph name="yat-cy" format="2">
  <advance width="1065"/>
  <unicode hex="0463"/>
  <anchor x="336" y="1125" name="center"/>
  <outline>
    <contour>
      <point x="230" y="0" type="line"/>
      <point x="578" y="-2" type="line" smooth="yes"/>
      <point x="834" y="-3"/>
      <point x="984" y="98"/>
      <point x="984" y="342" type="curve" smooth="yes"/>
      <point x="984" y="587"/>
      <point x="839" y="688"/>
      <point x="577" y="688" type="curve" smooth="yes"/>
      <point x="329" y="688" type="line"/>
      <point x="442" y="625" type="line"/>
      <point x="442" y="1518" type="line"/>
      <point x="230" y="1518" type="line"/>
    </contour>
    <contour>
      <point x="442" y="14" type="line"/>
      <point x="442" y="672" type="line"/>
      <point x="377" y="570" type="line"/>
      <point x="517" y="571" type="line" smooth="yes"/>
      <point x="689" y="571"/>
      <point x="776" y="506"/>
      <point x="776" y="342" type="curve" smooth="yes"/>
      <point x="776" y="176"/>
      <point x="684" y="118"/>
      <point x="517" y="118" type="curve" smooth="yes"/>
      <point x="254" y="117" type="line"/>
    </contour>
    <component base="_cyrillic_bar" xOffset="76" yOffset="672"/>
  </outline>
</glyph>
<glyph name="izhitsa-cy" format="2">
  <advance width="1414"/>
  <unicode hex="0475"/>
  <guideline x="346" y="277" angle="245.7"/>
  <anchor x="707" y="1001" name="top"/>
  <outline>
    <contour>
      <point x="578" y="-26" type="line"/>
      <point x="628" y="-26" type="line"/>
      <point x="897" y="536" type="line" smooth="yes"/>
      <point x="1004" y="760"/>
      <point x="1065" y="928"/>
      <point x="1170" y="928" type="curve" smooth="yes"/>
      <point x="1200" y="928"/>
      <point x="1227" y="914"/>
      <point x="1246" y="893" type="curve"/>
      <point x="1342" y="986" type="line"/>
      <point x="1301" y="1014"/>
      <point x="1245" y="1029"/>
      <point x="1178" y="1029" type="curve" smooth="yes"/>
      <point x="963" y="1029"/>
      <point x="921" y="873"/>
      <point x="796" y="601" type="curve" smooth="yes"/>
      <point x="610" y="195" type="line"/>
      <point x="691" y="196" type="line"/>
      <point x="309" y="1001" type="line"/>
      <point x="78" y="1001" type="line"/>
    </contour>
  </outline>
</glyph>
<glyph name="Germandbls" format="2">
  <advance width="1549"/>
  <unicode hex="1E9E"/>
  <anchor x="771" y="10" name="bottom"/>
  <anchor x="771" y="1430" name="top"/>
  <outline>
    <contour>
      <point x="926" y="-31" type="curve" smooth="yes"/>
      <point x="1277" y="-31"/>
      <point x="1440" y="140"/>
      <point x="1440" y="397" type="curve" smooth="yes"/>
      <point x="1440" y="701"/>
      <point x="1180" y="773"/>
      <point x="938" y="849" type="curve" smooth="yes"/>
      <point x="857" y="875"/>
      <point x="844" y="876"/>
      <point x="792" y="894" type="curve"/>
      <point x="899" y="750" type="line"/>
      <point x="1128" y="1426" type="line"/>
      <point x="1038" y="1468"/>
      <point x="940" y="1512"/>
      <point x="730" y="1512" type="curve" smooth="yes"/>
      <point x="343" y="1512"/>
      <point x="137" y="1397"/>
      <point x="137" y="1172" type="curve" smooth="yes"/>
      <point x="137" y="0" type="line"/>
      <point x="350" y="0" type="line"/>
      <point x="350" y="1233" type="line" smooth="yes"/>
      <point x="350" y="1315"/>
      <point x="479" y="1385"/>
      <point x="730" y="1385" type="curve" smooth="yes"/>
      <point x="803" y="1385"/>
      <point x="935" y="1376"/>
      <point x="1024" y="1331" type="curve"/>
      <point x="932" y="1446" type="line"/>
      <point x="701" y="747" type="line"/>
      <point x="768" y="725"/>
      <point x="853" y="701"/>
      <point x="898" y="686" type="curve" smooth="yes"/>
      <point x="1110" y="620"/>
      <point x="1239" y="561"/>
      <point x="1239" y="381" type="curve" smooth="yes"/>
      <point x="1239" y="220"/>
      <point x="1142" y="97"/>
      <point x="936" y="97" type="curve" smooth="yes"/>
      <point x="814" y="97"/>
      <point x="680" y="142"/>
      <point x="594" y="229" type="curve"/>
      <point x="559" y="86" type="line"/>
      <point x="640" y="12"/>
      <point x="746" y="-31"/>
    </contour>
  </outline>
</glyph>
<glyph name="endash" format="2">
  <advance width="1401"/>
  <unicode hex="2013"/>
  <note>
endash
</note>
  <outline>
    <contour>
      <point x="80" y="443" type="line"/>
      <point x="1270" y="443" type="line"/>
      <point x="1321" y="626" type="line"/>
      <point x="130" y="626" type="line"/>
    </contour>
  </outline>
</glyph>
<glyph name="emdash" format="2">
  <advance width="1923"/>
  <unicode hex="2014"/>
  <note>
emdash
</note>
  <outline>
    <contour>
      <point x="80" y="442" type="line"/>
      <point x="1792" y="442" type="line"/>
      <point x="1843" y="627" type="line"/>
      <point x="130" y="627" type="line"/>
    </contour>
  </outline>
</glyph>
<glyph name="dagger" format="2">
  <advance width="1192"/>
  <unicode hex="2020"/>
  <note>
dagger
</note>
  <outline>
    <contour>
      <point x="596" y="-300" type="curve" smooth="yes"/>
      <point x="647" y="-300"/>
      <point x="684" y="-252"/>
      <point x="684" y="-187" type="curve" smooth="yes"/>
      <point x="684" y="614" type="line" smooth="yes"/>
      <point x="684" y="771"/>
      <point x="656" y="972"/>
      <point x="637" y="952" type="curve" smooth="yes"/>
      <point x="617" y="933"/>
      <point x="766" y="904"/>
      <point x="947" y="904" type="curve" smooth="yes"/>
      <point x="1012" y="904"/>
      <point x="1060" y="928"/>
      <point x="1060" y="960" type="curve" smooth="yes"/>
      <point x="1060" y="992"/>
      <point x="1012" y="1016"/>
      <point x="947" y="1016" type="curve" smooth="yes"/>
      <point x="749" y="1016"/>
      <point x="613" y="992"/>
      <point x="637" y="968" type="curve" smooth="yes"/>
      <point x="660" y="945"/>
      <point x="684" y="1095"/>
      <point x="684" y="1251" type="curve" smooth="yes"/>
      <point x="684" y="1316"/>
      <point x="647" y="1381"/>
      <point x="596" y="1381" type="curve" smooth="yes"/>
      <point x="545" y="1381"/>
      <point x="508" y="1316"/>
      <point x="508" y="1251" type="curve" smooth="yes"/>
      <point x="508" y="1095"/>
      <point x="532" y="945"/>
      <point x="556" y="968" type="curve" smooth="yes"/>
      <point x="579" y="992"/>
      <point x="443" y="1016"/>
      <point x="246" y="1016" type="curve" smooth="yes"/>
      <point x="181" y="1016"/>
      <point x="132" y="992"/>
      <point x="132" y="960" type="curve" smooth="yes"/>
      <point x="132" y="928"/>
      <point x="181" y="904"/>
      <point x="246" y="904" type="curve" smooth="yes"/>
      <point x="426" y="904"/>
      <point x="575" y="933"/>
      <point x="556" y="952" type="curve" smooth="yes"/>
      <point x="537" y="972"/>
      <point x="508" y="771"/>
      <point x="508" y="614" type="curve" smooth="yes"/>
      <point x="508" y="-187" type="line" smooth="yes"/>
      <point x="508" y="-252"/>
      <point x="545" y="-300"/>
    </contour>
  </outline>
</glyph>
<glyph name="daggerdbl" format="2">
  <advance width="1195"/>
  <unicode hex="2021"/>
  <note>
daggerdbl
</note>
  <outline>
    <contour>
      <point x="598" y="-300" type="curve" smooth="yes"/>
      <point x="649" y="-300"/>
      <point x="686" y="-235"/>
      <point x="686" y="-170" type="curve" smooth="yes"/>
      <point x="686" y="-60"/>
      <point x="676" y="49"/>
      <point x="664" y="87" type="curve"/>
      <point x="703" y="74"/>
      <point x="811" y="65"/>
      <point x="948" y="65" type="curve" smooth="yes"/>
      <point x="1013" y="65"/>
      <point x="1061" y="89"/>
      <point x="1061" y="121" type="curve" smooth="yes"/>
      <point x="1061" y="153"/>
      <point x="1013" y="177"/>
      <point x="948" y="177" type="curve" smooth="yes"/>
      <point x="811" y="177"/>
      <point x="690" y="163"/>
      <point x="655" y="149" type="curve"/>
      <point x="669" y="193"/>
      <point x="685" y="354"/>
      <point x="685" y="444" type="curve"/>
      <point x="685" y="637" type="line"/>
      <point x="685" y="725"/>
      <point x="670" y="888"/>
      <point x="655" y="933" type="curve"/>
      <point x="690" y="919"/>
      <point x="811" y="904"/>
      <point x="948" y="904" type="curve" smooth="yes"/>
      <point x="1013" y="904"/>
      <point x="1061" y="928"/>
      <point x="1061" y="960" type="curve" smooth="yes"/>
      <point x="1061" y="992"/>
      <point x="1013" y="1016"/>
      <point x="948" y="1016" type="curve" smooth="yes"/>
      <point x="811" y="1016"/>
      <point x="703" y="1007"/>
      <point x="664" y="994" type="curve"/>
      <point x="676" y="1032"/>
      <point x="686" y="1141"/>
      <point x="686" y="1251" type="curve" smooth="yes"/>
      <point x="686" y="1316"/>
      <point x="649" y="1381"/>
      <point x="598" y="1381" type="curve" smooth="yes"/>
      <point x="547" y="1381"/>
      <point x="510" y="1316"/>
      <point x="510" y="1251" type="curve" smooth="yes"/>
      <point x="510" y="1141"/>
      <point x="519" y="1032"/>
      <point x="531" y="994" type="curve"/>
      <point x="493" y="1007"/>
      <point x="385" y="1016"/>
      <point x="247" y="1016" type="curve" smooth="yes"/>
      <point x="182" y="1016"/>
      <point x="134" y="992"/>
      <point x="134" y="960" type="curve" smooth="yes"/>
      <point x="134" y="928"/>
      <point x="182" y="904"/>
      <point x="247" y="904" type="curve" smooth="yes"/>
      <point x="384" y="904"/>
      <point x="505" y="919"/>
      <point x="540" y="933" type="curve"/>
      <point x="526" y="889"/>
      <point x="510" y="727"/>
      <point x="510" y="637" type="curve"/>
      <point x="510" y="445" type="line"/>
      <point x="510" y="356"/>
      <point x="526" y="193"/>
      <point x="540" y="149" type="curve"/>
      <point x="505" y="163"/>
      <point x="384" y="177"/>
      <point x="247" y="177" type="curve" smooth="yes"/>
      <point x="182" y="177"/>
      <point x="134" y="153"/>
      <point x="134" y="121" type="curve" smooth="yes"/>
      <point x="134" y="89"/>
      <point x="182" y="65"/>
      <point x="247" y="65" type="curve" smooth="yes"/>
      <point x="385" y="65"/>
      <point x="493" y="74"/>
      <point x="531" y="87" type="curve"/>
      <point x="519" y="49"/>
      <point x="510" y="-60"/>
      <point x="510" y="-170" type="curve" smooth="yes"/>
      <point x="510" y="-235"/>
      <point x="547" y="-300"/>
    </contour>
  </outline>
</glyph>
<glyph name="bullet" format="2">
  <advance width="835"/>
  <unicode hex="2022"/>
  <note>
bullet
</note>
  <outline>
    <contour>
      <point x="417" y="462" type="curve" smooth="yes"/>
      <point x="570" y="462"/>
      <point x="706" y="589"/>
      <point x="706" y="747" type="curve" smooth="yes"/>
      <point x="706" y="905"/>
      <point x="572" y="1030"/>
      <point x="419" y="1030" type="curve" smooth="yes"/>
      <point x="265" y="1030"/>
      <point x="130" y="906"/>
      <point x="130" y="747" type="curve" smooth="yes"/>
      <point x="130" y="590"/>
      <point x="264" y="462"/>
    </contour>
  </outline>
</glyph>
<glyph name="guilsinglleft" format="2">
  <advance width="647"/>
  <unicode hex="2039"/>
  <note>
guilsinglleft
</note>
  <outline>
    <contour>
      <point x="456" y="-10" type="line"/>
      <point x="547" y="88" type="line"/>
      <point x="291" y="448" type="line"/>
      <point x="548" y="818" type="line"/>
      <point x="446" y="903" type="line"/>
      <point x="97" y="448" type="line"/>
    </contour>
  </outline>
</glyph>
<glyph name="guilsinglright" format="2">
  <advance width="646"/>
  <unicode hex="203A"/>
  <note>
guilsinglright
</note>
  <outline>
    <contour>
      <point x="191" y="-9" type="line"/>
      <point x="549" y="448" type="line"/>
      <point x="200" y="903" type="line"/>
      <point x="99" y="818" type="line"/>
      <point x="356" y="448" type="line"/>
      <point x="100" y="87" type="line"/>
    </contour>
  </outline>
</glyph>
<glyph name="franc" format="2">
  <advance width="1651"/>
  <unicode hex="20A3"/>
  <note>
franc
</note>
  <outline>
    <contour>
      <point x="183" y="0" type="line"/>
      <point x="400" y="0" type="line"/>
      <point x="400" y="782" type="line"/>
      <point x="209" y="655" type="line"/>
      <point x="951" y="655" type="line"/>
      <point x="951" y="784" type="line"/>
      <point x="212" y="784" type="line"/>
      <point x="400" y="660" type="line"/>
      <point x="400" y="1416" type="line"/>
      <point x="222" y="1302" type="line"/>
      <point x="951" y="1302" type="line"/>
      <point x="951" y="1433" type="line"/>
      <point x="183" y="1433" type="line"/>
    </contour>
    <contour>
      <point x="739" y="0" type="line"/>
      <point x="951" y="0" type="line"/>
      <point x="951" y="395" type="line" smooth="yes"/>
      <point x="951" y="548"/>
      <point x="1052" y="680"/>
      <point x="1182" y="680" type="curve" smooth="yes"/>
      <point x="1255" y="680"/>
      <point x="1349" y="663"/>
      <point x="1332" y="552" type="curve" smooth="yes"/>
      <point x="1331" y="545"/>
      <point x="1325" y="497"/>
      <point x="1312" y="475" type="curve"/>
      <point x="1474" y="446" type="line"/>
      <point x="1497" y="489"/>
      <point x="1502" y="569"/>
      <point x="1502" y="602" type="curve" smooth="yes"/>
      <point x="1502" y="783"/>
      <point x="1341" y="820"/>
      <point x="1230" y="820" type="curve" smooth="yes"/>
      <point x="1030" y="820"/>
      <point x="950" y="700"/>
      <point x="909" y="551" type="curve"/>
      <point x="949" y="355" type="line"/>
      <point x="951" y="784" type="line"/>
      <point x="739" y="784" type="line"/>
    </contour>
  </outline>
</glyph>
<glyph name="lira" format="2">
  <advance width="1311"/>
  <unicode hex="20A4"/>
  <outline>
    <contour>
      <point x="161" y="-10" type="line"/>
      <point x="1162" y="-10" type="line"/>
      <point x="1162" y="137" type="line"/>
      <point x="161" y="137" type="line"/>
    </contour>
    <contour>
      <point x="156" y="723" type="line"/>
      <point x="1011" y="723" type="line"/>
      <point x="1011" y="836" type="line"/>
      <point x="156" y="836" type="line"/>
    </contour>
    <contour>
      <point x="161" y="137" type="curve"/>
      <point x="345" y="122" type="line"/>
      <point x="462" y="228"/>
      <point x="556" y="471"/>
      <point x="576" y="624" type="curve" smooth="yes"/>
      <point x="622" y="963"/>
      <point x="412" y="939"/>
      <point x="412" y="1140" type="curve" smooth="yes"/>
      <point x="412" y="1283"/>
      <point x="488" y="1341"/>
      <point x="646" y="1341" type="curve" smooth="yes"/>
      <point x="833" y="1341"/>
      <point x="939" y="1262"/>
      <point x="941" y="1160" type="curve"/>
      <point x="1147" y="1160" type="line"/>
      <point x="1142" y="1341"/>
      <point x="942" y="1468"/>
      <point x="653" y="1468" type="curve" smooth="yes"/>
      <point x="362" y="1468"/>
      <point x="194" y="1334"/>
      <point x="194" y="1124" type="curve" smooth="yes"/>
      <point x="194" y="870"/>
      <point x="416" y="887"/>
      <point x="375" y="625" type="curve" smooth="yes"/>
      <point x="347" y="455"/>
      <point x="304" y="277"/>
    </contour>
    <contour>
      <point x="156" y="470" type="line"/>
      <point x="1011" y="470" type="line"/>
      <point x="1011" y="583" type="line"/>
      <point x="156" y="583" type="line"/>
    </contour>
  </outline>
</glyph>
<glyph name="peseta" format="2">
  <advance width="1496"/>
  <unicode hex="20A7"/>
  <anchor x="855" y="10" name="_bottom"/>
  <anchor x="855" y="514" name="bar"/>
  <anchor x="855" y="-327" name="bottom"/>
  <anchor x="855" y="1430" name="top"/>
  <outline>
    <contour>
      <point x="147" y="544" type="line"/>
      <point x="538" y="544" type="line"/>
      <point x="538" y="669" type="line"/>
      <point x="147" y="669" type="line"/>
    </contour>
    <component base="P" xOffset="280"/>
  </outline>
</glyph>
<glyph name="rupeeIndian" format="2">
  <advance width="1450"/>
  <unicode hex="20B9"/>
  <outline>
    <contour>
      <point x="437" y="599" type="line"/>
      <point x="523" y="599"/>
      <point x="630" y="596"/>
      <point x="703" y="544" type="curve" smooth="yes"/>
      <point x="755" y="507"/>
      <point x="787" y="481"/>
      <point x="852" y="208" type="curve" smooth="yes"/>
      <point x="867" y="143"/>
      <point x="882" y="70"/>
      <point x="898" y="0" type="curve"/>
      <point x="1106" y="0" type="line"/>
      <point x="1080" y="95"/>
      <point x="1054" y="218"/>
      <point x="1039" y="283" type="curve" smooth="yes"/>
      <point x="993" y="484"/>
      <point x="941" y="553"/>
      <point x="907" y="586" type="curve" smooth="yes"/>
      <point x="857" y="636"/>
      <point x="819" y="642"/>
      <point x="770" y="653" type="curve"/>
    </contour>
    <contour>
      <point x="156" y="719" type="line"/>
      <point x="156" y="599" type="line"/>
      <point x="519" y="599" type="line"/>
      <point x="598" y="599" type="line" smooth="yes"/>
      <point x="854" y="627"/>
      <point x="1047" y="742"/>
      <point x="1047" y="1019" type="curve" smooth="yes"/>
      <point x="1047" y="1300"/>
      <point x="828" y="1433"/>
      <point x="506" y="1433" type="curve" smooth="yes"/>
      <point x="156" y="1433" type="line"/>
      <point x="156" y="1313" type="line"/>
      <point x="482" y="1313" type="line" smooth="yes"/>
      <point x="722" y="1313"/>
      <point x="834" y="1234"/>
      <point x="834" y="1022" type="curve" smooth="yes"/>
      <point x="834" y="808"/>
      <point x="733" y="719"/>
      <point x="482" y="719" type="curve" smooth="yes"/>
    </contour>
    <contour>
      <point x="156" y="1313" type="line"/>
      <point x="1298" y="1313" type="line"/>
      <point x="1298" y="1433" type="line"/>
      <point x="156" y="1433" type="line"/>
    </contour>
    <contour>
      <point x="156" y="960" type="line"/>
      <point x="1298" y="960" type="line"/>
      <point x="1298" y="1080" type="line"/>
      <point x="156" y="1080" type="line"/>
    </contour>
  </outline>
</glyph>
<glyph name="liraTurkish" format="2">
  <advance width="1344"/>
  <unicode hex="20BA"/>
  <outline>
    <contour>
      <point x="391" y="0" type="line"/>
      <point x="860" y="0"/>
      <point x="1145" y="-11"/>
      <point x="1198" y="473" type="curve"/>
      <point x="1045" y="473" type="line"/>
      <point x="1030" y="87"/>
      <point x="737" y="148"/>
      <point x="432" y="137" type="curve"/>
      <point x="596" y="19" type="line"/>
      <point x="596" y="1433" type="line"/>
      <point x="391" y="1433" type="line"/>
    </contour>
    <contour>
      <point x="217" y="351" type="line"/>
      <point x="858" y="714" type="line"/>
      <point x="786" y="825" type="line"/>
      <point x="147" y="462" type="line"/>
    </contour>
    <contour>
      <point x="217" y="622" type="line"/>
      <point x="858" y="986" type="line"/>
      <point x="786" y="1096" type="line"/>
      <point x="146" y="733" type="line"/>
    </contour>
  </outline>
</glyph>
<glyph name="ruble" format="2">
  <advance width="1501"/>
  <unicode hex="20BD"/>
  <anchor x="860" y="10" name="_bottom"/>
  <anchor x="860" y="514" name="bar"/>
  <anchor x="860" y="-327" name="bottom"/>
  <anchor x="860" y="1430" name="top"/>
  <outline>
    <contour>
      <point x="152" y="544" type="line"/>
      <point x="543" y="544" type="line"/>
      <point x="543" y="669" type="line"/>
      <point x="152" y="669" type="line"/>
    </contour>
    <contour>
      <point x="152" y="231" type="line"/>
      <point x="897" y="231" type="line"/>
      <point x="897" y="356" type="line"/>
      <point x="152" y="356" type="line"/>
    </contour>
    <component base="P" xOffset="285"/>
  </outline>
</glyph>
<glyph name="emptyset" format="2">
  <advance width="1236"/>
  <unicode hex="2205"/>
  <outline>
    <contour>
      <point x="597" y="-26" type="curve" smooth="yes"/>
      <point x="887" y="-26"/>
      <point x="1122" y="209"/>
      <point x="1122" y="501" type="curve" smooth="yes"/>
      <point x="1122" y="791"/>
      <point x="887" y="1026"/>
      <point x="597" y="1026" type="curve" smooth="yes"/>
      <point x="305" y="1026"/>
      <point x="70" y="791"/>
      <point x="70" y="501" type="curve" smooth="yes"/>
      <point x="70" y="209"/>
      <point x="305" y="-26"/>
    </contour>
    <contour>
      <point x="597" y="101" type="curve" smooth="yes"/>
      <point x="376" y="101"/>
      <point x="197" y="280"/>
      <point x="197" y="501" type="curve" smooth="yes"/>
      <point x="197" y="722"/>
      <point x="376" y="900"/>
      <point x="597" y="900" type="curve" smooth="yes"/>
      <point x="817" y="900"/>
      <point x="996" y="722"/>
      <point x="996" y="501" type="curve" smooth="yes"/>
      <point x="996" y="280"/>
      <point x="817" y="101"/>
    </contour>
    <component base="slashlongcomb" xOffset="182" yOffset="27"/>
  </outline>
</glyph>
<glyph name="product" format="2">
  <advance width="1578"/>
  <unicode hex="220F"/>
  <note>
product
</note>
  <outline>
    <contour>
      <point x="172" y="-368" type="line"/>
      <point x="383" y="-368" type="line"/>
      <point x="383" y="1184" type="line"/>
      <point x="1195" y="1184" type="line"/>
      <point x="1195" y="-368" type="line"/>
      <point x="1406" y="-368" type="line"/>
      <point x="1406" y="1380" type="line"/>
      <point x="172" y="1380" type="line"/>
    </contour>
  </outline>
</glyph>
<glyph name="fraction" format="2">
  <unicode hex="2215"/>
  <note>
fraction
</note>
  <outline>
    <contour>
      <point x="-577" y="-25" type="line"/>
      <point x="-405" y="-25" type="line"/>
      <point x="334" y="1431" type="line"/>
      <point x="162" y="1431" type="line"/>
    </contour>
  </outline>
</glyph>
<glyph name="radical" format="2">
  <advance width="1525"/>
  <unicode hex="221A"/>
  <note>
radical
</note>
  <outline>
    <contour>
      <point x="619" y="-47" type="line"/>
      <point x="711" y="-47" type="line"/>
      <point x="1247" y="1393" type="line"/>
      <point x="1389" y="1393" type="line"/>
      <point x="1389" y="1562" type="line"/>
      <point x="1153" y="1562" type="line"/>
      <point x="678" y="295" type="line"/>
      <point x="401" y="978" type="line"/>
      <point x="133" y="884" type="line"/>
      <point x="181" y="749" type="line"/>
      <point x="288" y="785" type="line"/>
    </contour>
  </outline>
</glyph>
<glyph name="integral" format="2">
  <advance width="1337"/>
  <unicode hex="222B"/>
  <note>
integral
</note>
  <outline>
    <contour>
      <point x="342" y="-509" type="curve" smooth="yes"/>
      <point x="540" y="-509"/>
      <point x="605" y="-353"/>
      <point x="656" y="-96" type="curve" smooth="yes"/>
      <point x="882" y="1066" type="line" smooth="yes"/>
      <point x="921" y="1267"/>
      <point x="916" y="1388"/>
      <point x="1026" y="1413" type="curve"/>
      <point x="1055" y="1416"/>
      <point x="1067" y="1411"/>
      <point x="1067" y="1393" type="curve" smooth="yes"/>
      <point x="1067" y="1361"/>
      <point x="1041" y="1294"/>
      <point x="1011" y="1207" type="curve"/>
      <point x="1156" y="1207" type="line"/>
      <point x="1182" y="1272"/>
      <point x="1203" y="1316"/>
      <point x="1203" y="1374" type="curve" smooth="yes"/>
      <point x="1203" y="1486"/>
      <point x="1125" y="1546"/>
      <point x="995" y="1546" type="curve" smooth="yes"/>
      <point x="798" y="1546"/>
      <point x="732" y="1393"/>
      <point x="681" y="1132" type="curve" smooth="yes"/>
      <point x="455" y="-28" type="line" smooth="yes"/>
      <point x="416" y="-229"/>
      <point x="422" y="-351"/>
      <point x="311" y="-375" type="curve"/>
      <point x="281" y="-378"/>
      <point x="270" y="-375"/>
      <point x="270" y="-356" type="curve" smooth="yes"/>
      <point x="270" y="-323"/>
      <point x="297" y="-251"/>
      <point x="324" y="-170" type="curve"/>
      <point x="181" y="-170" type="line"/>
      <point x="158" y="-228"/>
      <point x="134" y="-281"/>
      <point x="134" y="-338" type="curve" smooth="yes"/>
      <point x="134" y="-449"/>
      <point x="213" y="-509"/>
    </contour>
  </outline>
</glyph>
<glyph name="notequal" format="2">
  <advance width="1127"/>
  <unicode hex="2260"/>
  <note>
notequal
</note>
  <outline>
    <contour>
      <point x="715" y="1174" type="line"/>
      <point x="314" y="156" type="line"/>
      <point x="486" y="156" type="line"/>
      <point x="886" y="1174" type="line"/>
    </contour>
    <component base="equal" yOffset="28"/>
  </outline>
</glyph>
<glyph name="lozenge" format="2">
  <advance width="1243"/>
  <unicode hex="25CA"/>
  <note>
lozenge
</note>
  <outline>
    <contour>
      <point x="622" y="-423" type="line"/>
      <point x="1111" y="581" type="line"/>
      <point x="622" y="1579" type="line"/>
      <point x="132" y="581" type="line"/>
    </contour>
    <contour>
      <point x="622" y="-232" type="line"/>
      <point x="216" y="581" type="line"/>
      <point x="622" y="1386" type="line"/>
      <point x="1027" y="581" type="line"/>
    </contour>
  </outline>
</glyph>
<glyph name="leftanglebracket-math" format="2">
  <advance width="842"/>
  <unicode hex="27E8"/>
  <outline>
    <contour>
      <point x="665" y="155" type="line"/>
      <point x="743" y="264" type="line"/>
      <point x="323" y="701" type="line"/>
      <point x="744" y="1148" type="line"/>
      <point x="653" y="1244" type="line"/>
      <point x="96" y="700" type="line"/>
    </contour>
  </outline>
</glyph>
<glyph name="apple" format="2">
  <advance width="1541"/>
  <unicode hex="F000"/>
  <note>
apple
</note>
  <outline>
    <contour>
      <point x="537" y="-33" type="curve" smooth="yes"/>
      <point x="552" y="-33"/>
      <point x="608" y="-12"/>
      <point x="637" y="-1" type="curve" smooth="yes"/>
      <point x="681" y="17"/>
      <point x="745" y="29"/>
      <point x="792" y="29" type="curve" smooth="yes"/>
      <point x="834" y="29"/>
      <point x="894" y="17"/>
      <point x="939" y="0" type="curve" smooth="yes"/>
      <point x="1012" y="-28"/>
      <point x="1025" y="-33"/>
      <point x="1043" y="-33" type="curve" smooth="yes"/>
      <point x="1100" y="-33"/>
      <point x="1111" y="-17"/>
      <point x="1195" y="64" type="curve" smooth="yes"/>
      <point x="1225" y="92"/>
      <point x="1308" y="228"/>
      <point x="1408" y="435" type="curve"/>
      <point x="1232" y="506"/>
      <point x="1148" y="589"/>
      <point x="1148" y="721" type="curve" smooth="yes"/>
      <point x="1148" y="844"/>
      <point x="1219" y="912"/>
      <point x="1396" y="1014" type="curve"/>
      <point x="1255" y="1172"/>
      <point x="1199" y="1208"/>
      <point x="1061" y="1208" type="curve" smooth="yes"/>
      <point x="1034" y="1208"/>
      <point x="1014" y="1202"/>
      <point x="959" y="1182" type="curve" smooth="yes"/>
      <point x="904" y="1160"/>
      <point x="842" y="1143"/>
      <point x="790" y="1143" type="curve" smooth="yes"/>
      <point x="737" y="1143"/>
      <point x="664" y="1160"/>
      <point x="619" y="1180" type="curve" smooth="yes"/>
      <point x="565" y="1202"/>
      <point x="550" y="1206"/>
      <point x="514" y="1206" type="curve" smooth="yes"/>
      <point x="295" y="1206"/>
      <point x="139" y="1003"/>
      <point x="139" y="717" type="curve" smooth="yes"/>
      <point x="139" y="518"/>
      <point x="230" y="268"/>
      <point x="358" y="117" type="curve" smooth="yes"/>
      <point x="441" y="11"/>
      <point x="490" y="-33"/>
    </contour>
    <contour>
      <point x="829" y="1140" type="curve" smooth="yes"/>
      <point x="803" y="1140" type="line"/>
      <point x="811" y="1139" type="line"/>
      <point x="917" y="1139"/>
      <point x="1045" y="1325"/>
      <point x="1045" y="1482" type="curve" smooth="yes"/>
      <point x="1045" y="1509"/>
      <point x="1043" y="1519"/>
      <point x="1043" y="1551" type="curve"/>
      <point x="950" y="1489"/>
      <point x="853" y="1356"/>
      <point x="853" y="1201" type="curve" smooth="yes"/>
      <point x="853" y="1182"/>
      <point x="855" y="1158"/>
      <point x="855" y="1140" type="curve"/>
      <point x="825" y="1141"/>
      <point x="828" y="1140"/>
    </contour>
  </outline>
</glyph>
<glyph name="fl" format="2">
  <advance width="995"/>
  <unicode hex="F002"/>
  <note>
fl
</note>
  <anchor x="497.5" y="0" name="caret_1"/>
  <outline>
    <contour>
      <point x="287" y="0" type="line"/>
      <point x="491" y="0" type="line"/>
      <point x="491" y="1056" type="line" smooth="yes"/>
      <point x="491" y="1275"/>
      <point x="458" y="1408"/>
      <point x="574" y="1408" type="curve" smooth="yes"/>
      <point x="624" y="1408"/>
      <point x="679" y="1394"/>
      <point x="679" y="1337" type="curve"/>
      <point x="806" y="1264" type="line"/>
      <point x="814" y="1281"/>
      <point x="824" y="1324"/>
      <point x="824" y="1356" type="curve" smooth="yes"/>
      <point x="824" y="1477"/>
      <point x="693" y="1549"/>
      <point x="551" y="1549" type="curve" smooth="yes"/>
      <point x="338" y="1549"/>
      <point x="287" y="1365"/>
      <point x="287" y="1105" type="curve" smooth="yes"/>
    </contour>
    <contour>
      <point x="77" y="842" type="line"/>
      <point x="722" y="842" type="line"/>
      <point x="722" y="974" type="line"/>
      <point x="77" y="974" type="line"/>
    </contour>
    <contour>
      <point x="679" y="0" type="line"/>
      <point x="881" y="0" type="line"/>
      <point x="881" y="1518" type="line"/>
      <point x="679" y="1518" type="line"/>
    </contour>
  </outline>
</glyph>
<glyph name="H.t" format="2">
  <advance width="1543"/>
  <note>
H
</note>
  <anchor x="795" y="10" name="bottom"/>
  <anchor x="795" y="715" name="center"/>
  <anchor x="795" y="1430" name="top"/>
  <anchor x="21" y="1430" name="topleft"/>
  <outline>
    <contour>
      <point x="141" y="0" type="line"/>
      <point x="354" y="0" type="line"/>
      <point x="354" y="792" type="line"/>
      <point x="139" y="670" type="line"/>
      <point x="1401" y="670" type="line"/>
      <point x="1190" y="792" type="line"/>
      <point x="1190" y="0" type="line"/>
      <point x="1402" y="0" type="line"/>
      <point x="1402" y="1433" type="line"/>
      <point x="1190" y="1433" type="line"/>
      <point x="1190" y="676" type="line"/>
      <point x="1401" y="797" type="line"/>
      <point x="139" y="797" type="line"/>
      <point x="354" y="676" type="line"/>
      <point x="354" y="1433" type="line"/>
      <point x="141" y="1433" type="line"/>
    </contour>
  </outline>
</glyph>
<glyph name="O.t" format="2">
  <advance width="1710"/>
  <note>
O
</note>
  <anchor x="855" y="10" name="bottom"/>
  <anchor x="855" y="715" name="center"/>
  <anchor x="1507" y="10" name="ogonek"/>
  <anchor x="855" y="1430" name="top"/>
  <anchor x="60" y="1430" name="topleft"/>
  <anchor x="1649" y="1430" name="topright"/>
  <outline>
    <contour>
      <point x="856" y="-25" type="curve" smooth="yes"/>
      <point x="1289" y="-25"/>
      <point x="1599" y="282"/>
      <point x="1599" y="711" type="curve" smooth="yes"/>
      <point x="1599" y="1140"/>
      <point x="1286" y="1454"/>
      <point x="856" y="1454" type="curve" smooth="yes"/>
      <point x="426" y="1454"/>
      <point x="111" y="1139"/>
      <point x="111" y="711" type="curve" smooth="yes"/>
      <point x="111" y="282"/>
      <point x="421" y="-25"/>
    </contour>
    <contour>
      <point x="856" y="100" type="curve" smooth="yes"/>
      <point x="546" y="105"/>
      <point x="340" y="350"/>
      <point x="340" y="712" type="curve" smooth="yes"/>
      <point x="340" y="1076"/>
      <point x="549" y="1326"/>
      <point x="856" y="1328" type="curve" smooth="yes"/>
      <point x="1162" y="1326"/>
      <point x="1370" y="1076"/>
      <point x="1370" y="712" type="curve" smooth="yes"/>
      <point x="1370" y="349"/>
      <point x="1165" y="105"/>
    </contour>
  </outline>
</glyph>
<glyph name="_cyrillicdescender01" format="2">
  <advance width="1297"/>
  <outline>
    <contour>
      <point x="187" y="0" type="line"/>
      <point x="64" y="0" type="line"/>
      <point x="69" y="-200" type="line"/>
      <point x="182" y="-200" type="line"/>
    </contour>
  </outline>
</glyph>
<glyph name="_cyrillicdescender02.case" format="2">
  <advance width="134"/>
  <outline>
    <contour>
      <point x="0" y="0" type="line"/>
      <point x="9" y="-256" type="line"/>
      <point x="125" y="-256" type="line"/>
      <point x="134" y="0" type="line"/>
    </contour>
  </outline>
</glyph>
<glyph name="currency_vert_stroke.case" format="2">
  <advance width="473"/>
  <anchor x="233" y="0" name="_bottom"/>
  <outline>
    <contour>
      <point x="172" y="-166" type="line"/>
      <point x="301" y="-166" type="line"/>
      <point x="301" y="1588" type="line"/>
      <point x="172" y="1588" type="line"/>
    </contour>
  </outline>
</glyph>
<glyph name="currency_vert_stroke" format="2">
  <advance width="464"/>
  <anchor x="217" y="1208" name="_top"/>
  <outline>
    <contour>
      <point x="170" y="71" type="line"/>
      <point x="294" y="71" type="line"/>
      <point x="294" y="1348" type="line"/>
      <point x="170" y="1348" type="line"/>
    </contour>
  </outline>
</glyph>
<glyph name="cyrillic_bar_long" format="2">
  <advance width="1697"/>
  <anchor x="850" y="689" name="_center"/>
  <outline>
    <contour>
      <point x="262" y="625" type="line"/>
      <point x="1438" y="625" type="line"/>
      <point x="1438" y="753" type="line"/>
      <point x="262" y="753" type="line"/>
    </contour>
  </outline>
</glyph>
<glyph name="f_f_i" format="2">
  <advance width="1351"/>
  <anchor x="397" y="0" name="caret_1"/>
  <anchor x="794" y="0" name="caret_2"/>
  <outline>
    <contour>
      <point x="679" y="0" type="line"/>
      <point x="883" y="0" type="line"/>
      <point x="883" y="1056" type="line" smooth="yes"/>
      <point x="883" y="1275"/>
      <point x="850" y="1408"/>
      <point x="996" y="1408" type="curve" smooth="yes"/>
      <point x="1016" y="1408"/>
      <point x="1101" y="1394"/>
      <point x="1101" y="1337" type="curve" smooth="yes"/>
      <point x="1101" y="1318"/>
      <point x="1097" y="1294"/>
      <point x="1088" y="1264" type="curve"/>
      <point x="1228" y="1264" type="line"/>
      <point x="1236" y="1281"/>
      <point x="1246" y="1324"/>
      <point x="1246" y="1356" type="curve" smooth="yes"/>
      <point x="1246" y="1480"/>
      <point x="1148" y="1549"/>
      <point x="973" y="1549" type="curve" smooth="yes"/>
      <point x="730" y="1549"/>
      <point x="679" y="1365"/>
      <point x="679" y="1105" type="curve" smooth="yes"/>
    </contour>
    <contour>
      <point x="287" y="0" type="line"/>
      <point x="491" y="0" type="line"/>
      <point x="491" y="956" type="line" smooth="yes"/>
      <point x="491" y="1175"/>
      <point x="458" y="1308"/>
      <point x="574" y="1308" type="curve" smooth="yes"/>
      <point x="624" y="1308"/>
      <point x="679" y="1294"/>
      <point x="679" y="1237" type="curve"/>
      <point x="679" y="1064" type="line"/>
      <point x="806" y="1164" type="line"/>
      <point x="814" y="1181"/>
      <point x="824" y="1224"/>
      <point x="824" y="1256" type="curve" smooth="yes"/>
      <point x="824" y="1377"/>
      <point x="693" y="1449"/>
      <point x="551" y="1449" type="curve" smooth="yes"/>
      <point x="338" y="1449"/>
      <point x="287" y="1265"/>
      <point x="287" y="1005" type="curve" smooth="yes"/>
    </contour>
    <contour>
      <point x="77" y="842" type="line"/>
      <point x="722" y="842" type="line"/>
      <point x="722" y="974" type="line"/>
      <point x="77" y="974" type="line"/>
    </contour>
    <contour>
      <point x="469" y="842" type="line"/>
      <point x="1114" y="842" type="line"/>
      <point x="1114" y="974" type="line"/>
      <point x="469" y="974" type="line"/>
    </contour>
    <contour>
      <point x="1071" y="0" type="line"/>
      <point x="1275" y="0" type="line"/>
      <point x="1275" y="974" type="line"/>
      <point x="1071" y="974" type="line"/>
    </contour>
  </outline>
</glyph>
<glyph name="f_j" format="2">
  <advance width="993"/>
  <anchor x="242" y="0" name="bottom_1"/>
  <anchor x="727" y="0" name="bottom_2"/>
  <anchor x="484.5" y="0" name="caret_1"/>
  <anchor x="242" y="1518" name="top_1"/>
  <anchor x="727" y="1518" name="top_2"/>
  <outline>
    <contour>
      <point x="287" y="0" type="line"/>
      <point x="491" y="0" type="line"/>
      <point x="491" y="937" type="line"/>
      <point x="396" y="842" type="line"/>
      <point x="722" y="842" type="line"/>
      <point x="722" y="974" type="line"/>
      <point x="396" y="974" type="line"/>
      <point x="491" y="879" type="line"/>
      <point x="491" y="1056" type="line" smooth="yes"/>
      <point x="491" y="1275"/>
      <point x="458" y="1408"/>
      <point x="604" y="1408" type="curve" smooth="yes"/>
      <point x="624" y="1408"/>
      <point x="709" y="1394"/>
      <point x="709" y="1337" type="curve" smooth="yes"/>
      <point x="709" y="1318"/>
      <point x="705" y="1294"/>
      <point x="696" y="1264" type="curve"/>
      <point x="836" y="1264" type="line"/>
      <point x="844" y="1281"/>
      <point x="854" y="1324"/>
      <point x="854" y="1356" type="curve" smooth="yes"/>
      <point x="854" y="1480"/>
      <point x="756" y="1549"/>
      <point x="581" y="1549" type="curve" smooth="yes"/>
      <point x="338" y="1549"/>
      <point x="287" y="1365"/>
      <point x="287" y="1105" type="curve" smooth="yes"/>
      <point x="287" y="879" type="line"/>
      <point x="382" y="974" type="line"/>
      <point x="77" y="974" type="line"/>
      <point x="77" y="842" type="line"/>
      <point x="382" y="842" type="line"/>
      <point x="287" y="937" type="line"/>
    </contour>
    <contour>
      <point x="597" y="-569" type="curve" smooth="yes"/>
      <point x="824" y="-569"/>
      <point x="883" y="-384"/>
      <point x="883" y="-125" type="curve" smooth="yes"/>
      <point x="883" y="974" type="line"/>
      <point x="678" y="974" type="line"/>
      <point x="678" y="-75" type="line" smooth="yes"/>
      <point x="678" y="-292"/>
      <point x="695" y="-435"/>
      <point x="593" y="-435" type="curve" smooth="yes"/>
      <point x="561" y="-435"/>
      <point x="494" y="-419"/>
      <point x="494" y="-358" type="curve" smooth="yes"/>
      <point x="494" y="-347"/>
      <point x="495" y="-335"/>
      <point x="502" y="-305" type="curve"/>
      <point x="355" y="-305" type="line"/>
      <point x="352" y="-323"/>
      <point x="350" y="-349"/>
      <point x="350" y="-360" type="curve" smooth="yes"/>
      <point x="350" y="-515"/>
      <point x="469" y="-569"/>
    </contour>
  </outline>
</glyph>
<glyph name="f_t" format="2">
  <advance width="1236"/>
  <anchor x="309" y="0" name="bottom_1"/>
  <anchor x="928" y="0" name="bottom_2"/>
  <anchor x="618" y="0" name="caret_1"/>
  <anchor x="309" y="1518" name="top_1"/>
  <anchor x="928" y="1518" name="top_2"/>
  <outline>
    <contour>
      <point x="913" y="-29" type="curve" smooth="yes"/>
      <point x="987" y="-29"/>
      <point x="1102" y="-12"/>
      <point x="1158" y="5" type="curve"/>
      <point x="1158" y="140" type="line"/>
      <point x="1086" y="117"/>
      <point x="1024" y="105"/>
      <point x="971" y="105" type="curve" smooth="yes"/>
      <point x="860" y="105"/>
      <point x="885" y="182"/>
      <point x="885" y="382" type="curve" smooth="yes"/>
      <point x="885" y="842" type="line"/>
      <point x="1110" y="842" type="line"/>
      <point x="1110" y="974" type="line"/>
      <point x="885" y="974" type="line"/>
      <point x="885" y="1343" type="line" smooth="yes"/>
      <point x="885" y="1481"/>
      <point x="750" y="1549"/>
      <point x="578" y="1549" type="curve" smooth="yes"/>
      <point x="317" y="1549"/>
      <point x="286" y="1365"/>
      <point x="286" y="1105" type="curve" smooth="yes"/>
      <point x="286" y="974" type="line"/>
      <point x="77" y="974" type="line"/>
      <point x="77" y="842" type="line"/>
      <point x="286" y="842" type="line"/>
      <point x="286" y="0" type="line"/>
      <point x="490" y="0" type="line"/>
      <point x="490" y="842" type="line"/>
      <point x="692" y="842" type="line"/>
      <point x="692" y="241" type="line" smooth="yes"/>
      <point x="692" y="109"/>
      <point x="719" y="-29"/>
    </contour>
    <contour>
      <point x="521" y="974" type="curve" smooth="yes"/>
      <point x="490" y="974" type="line"/>
      <point x="490" y="1056" type="line" smooth="yes"/>
      <point x="490" y="1275"/>
      <point x="446" y="1408"/>
      <point x="601" y="1408" type="curve" smooth="yes"/>
      <point x="681" y="1408"/>
      <point x="760" y="1388"/>
      <point x="760" y="1265" type="curve"/>
      <point x="760" y="1249" type="line"/>
      <point x="760" y="996"/>
      <point x="742" y="976"/>
    </contour>
  </outline>
</glyph>
<glyph name="five.dnom" format="2">
  <advance width="692"/>
  <note>
five
</note>
  <outline>
    <contour>
      <point x="298" y="-24" type="curve" smooth="yes"/>
      <point x="519" y="-24"/>
      <point x="673" y="114"/>
      <point x="673" y="307" type="curve" smooth="yes"/>
      <point x="673" y="504"/>
      <point x="511" y="591"/>
      <point x="343" y="591" type="curve" smooth="yes"/>
      <point x="226" y="591"/>
      <point x="181" y="548"/>
      <point x="129" y="494" type="curve"/>
      <point x="170" y="490" type="line"/>
      <point x="235" y="858" type="line"/>
      <point x="138" y="810" type="line"/>
      <point x="606" y="810" type="line"/>
      <point x="606" y="944" type="line"/>
      <point x="143" y="944" type="line"/>
      <point x="59" y="468" type="line"/>
      <point x="133" y="429" type="line"/>
      <point x="178" y="458"/>
      <point x="232" y="475"/>
      <point x="299" y="475" type="curve" smooth="yes"/>
      <point x="432" y="475"/>
      <point x="512" y="414"/>
      <point x="512" y="293" type="curve" smooth="yes"/>
      <point x="512" y="159"/>
      <point x="410" y="86"/>
      <point x="292" y="86" type="curve" smooth="yes"/>
      <point x="208" y="86"/>
      <point x="124" y="116"/>
      <point x="47" y="153" type="curve"/>
      <point x="12" y="62" type="line"/>
      <point x="95" y="9"/>
      <point x="188" y="-24"/>
    </contour>
  </outline>
</glyph>
<glyph name="four.dnom" format="2">
  <advance width="712"/>
  <note>
four
</note>
  <outline>
    <contour>
      <point x="437" y="0" type="line"/>
      <point x="589" y="0" type="line"/>
      <point x="589" y="315" type="line"/>
      <point x="467" y="212" type="line"/>
      <point x="715" y="212" type="line"/>
      <point x="715" y="328" type="line"/>
      <point x="467" y="328" type="line"/>
      <point x="589" y="230" type="line"/>
      <point x="589" y="563" type="line"/>
      <point x="437" y="563" type="line"/>
      <point x="437" y="230" type="line"/>
      <point x="527" y="328" type="line"/>
      <point x="123" y="328" type="line"/>
      <point x="176" y="283" type="line"/>
      <point x="277" y="505"/>
      <point x="351" y="702"/>
      <point x="424" y="963" type="curve"/>
      <point x="281" y="963" type="line"/>
      <point x="199" y="684"/>
      <point x="115" y="468"/>
      <point x="-8" y="212" type="curve"/>
      <point x="527" y="212" type="line"/>
      <point x="437" y="315" type="line"/>
    </contour>
  </outline>
</glyph>
<glyph name="four.osf" format="2">
  <advance width="1308"/>
  <outline>
    <contour>
      <point x="816" y="-367" type="line"/>
      <point x="1020" y="-367" type="line"/>
      <point x="1020" y="179" type="line"/>
      <point x="806" y="0" type="line"/>
      <point x="1182" y="0" type="line"/>
      <point x="1182" y="143" type="line"/>
      <point x="809" y="143" type="line"/>
      <point x="1020" y="-25" type="line"/>
      <point x="1020" y="543" type="line"/>
      <point x="816" y="543" type="line"/>
      <point x="816" y="-25" type="line"/>
      <point x="1000" y="143" type="line"/>
      <point x="240" y="143" type="line"/>
      <point x="326" y="37" type="line"/>
      <point x="503" y="369"/>
      <point x="643" y="691"/>
      <point x="786" y="1070" type="curve"/>
      <point x="608" y="1070" type="line"/>
      <point x="465" y="692"/>
      <point x="323" y="366"/>
      <point x="122" y="0" type="curve"/>
      <point x="1002" y="0" type="line"/>
      <point x="816" y="179" type="line"/>
    </contour>
  </outline>
</glyph>
<glyph name="nine.osf" format="2">
  <advance width="1161"/>
  <outline>
    <contour>
      <point x="272" y="-461" type="line"/>
      <point x="544" y="-444"/>
      <point x="706" y="-339"/>
      <point x="791" y="-264" type="curve" smooth="yes"/>
      <point x="871" y="-192"/>
      <point x="934" y="-91"/>
      <point x="963" y="-30" type="curve" smooth="yes"/>
      <point x="1073" y="184"/>
      <point x="1065" y="380"/>
      <point x="1065" y="471" type="curve" smooth="yes"/>
      <point x="1065" y="903"/>
      <point x="850" y="1027"/>
      <point x="586" y="1029" type="curve" smooth="yes"/>
      <point x="252" y="1031"/>
      <point x="87" y="815"/>
      <point x="87" y="532" type="curve" smooth="yes"/>
      <point x="87" y="253"/>
      <point x="284" y="63"/>
      <point x="554" y="63" type="curve" smooth="yes"/>
      <point x="729" y="63"/>
      <point x="870" y="146"/>
      <point x="961" y="365" type="curve"/>
      <point x="875" y="340" type="line"/>
      <point x="872" y="192"/>
      <point x="853" y="49"/>
      <point x="754" y="-80" type="curve" smooth="yes"/>
      <point x="694" y="-177"/>
      <point x="557" y="-291"/>
      <point x="274" y="-317" type="curve"/>
    </contour>
    <contour>
      <point x="553" y="207" type="curve" smooth="yes"/>
      <point x="332" y="207"/>
      <point x="279" y="398"/>
      <point x="279" y="551" type="curve" smooth="yes"/>
      <point x="279" y="784"/>
      <point x="411" y="901"/>
      <point x="574" y="899" type="curve" smooth="yes"/>
      <point x="772" y="897"/>
      <point x="867" y="722"/>
      <point x="865" y="531" type="curve" smooth="yes"/>
      <point x="863" y="294"/>
      <point x="703" y="207"/>
    </contour>
  </outline>
</glyph>
<glyph name="one.osf" format="2">
  <advance width="658"/>
  <outline>
    <contour>
      <point x="291" y="0" type="line"/>
      <point x="499" y="0" type="line"/>
      <point x="499" y="1029" type="line"/>
      <point x="406" y="1029" type="line"/>
      <point x="300" y="881"/>
      <point x="225" y="795"/>
      <point x="76" y="672" type="curve"/>
      <point x="141" y="617" type="line"/>
      <point x="205" y="668"/>
      <point x="244" y="710"/>
      <point x="360" y="845" type="curve"/>
      <point x="291" y="837" type="line"/>
    </contour>
  </outline>
</glyph>
<glyph name="seven.osf" format="2">
  <advance width="1210"/>
  <outline>
    <contour>
      <point x="338" y="-327" type="curve"/>
      <point x="506" y="-374" type="line"/>
      <point x="619" y="143"/>
      <point x="816" y="613"/>
      <point x="1088" y="1021" type="curve"/>
      <point x="128" y="1021" type="line"/>
      <point x="128" y="825" type="line"/>
      <point x="896" y="825" type="line"/>
      <point x="841" y="929" type="line"/>
      <point x="623" y="535"/>
      <point x="453" y="143"/>
    </contour>
  </outline>
</glyph>
<glyph name="slash.fig" format="2">
  <advance width="1234"/>
  <anchor x="620" y="716" name="_center"/>
  <outline>
    <contour>
      <point x="88" y="-134" type="line"/>
      <point x="214" y="-134" type="line"/>
      <point x="1151" y="1566" type="line"/>
      <point x="1025" y="1566" type="line"/>
    </contour>
  </outline>
</glyph>
<glyph name="strokelongcomb.case" format="2">
  <anchor x="754" y="1147" name="_center"/>
  <outline>
    <contour>
      <point x="32" y="1109" type="line"/>
      <point x="1476" y="1109" type="line"/>
      <point x="1476" y="1186" type="line"/>
      <point x="32" y="1186" type="line"/>
    </contour>
  </outline>
</glyph>
<glyph name="two.dnom" format="2">
  <advance width="764"/>
  <note>
two
</note>
  <outline>
    <contour>
      <point x="3" y="0" type="line"/>
      <point x="738" y="0" type="line"/>
      <point x="738" y="128" type="line"/>
      <point x="227" y="128" type="line"/>
      <point x="204" y="91" type="line"/>
      <point x="347" y="188"/>
      <point x="496" y="339"/>
      <point x="558" y="390" type="curve" smooth="yes"/>
      <point x="663" y="494"/>
      <point x="713" y="574"/>
      <point x="713" y="675" type="curve" smooth="yes"/>
      <point x="713" y="857"/>
      <point x="582" y="966"/>
      <point x="375" y="966" type="curve" smooth="yes"/>
      <point x="160" y="966"/>
      <point x="36" y="846"/>
      <point x="36" y="711" type="curve" smooth="yes"/>
      <point x="36" y="697"/>
      <point x="37" y="694"/>
      <point x="44" y="651" type="curve"/>
      <point x="204" y="655" type="line"/>
      <point x="204" y="695" type="line" smooth="yes"/>
      <point x="204" y="770"/>
      <point x="255" y="860"/>
      <point x="365" y="860" type="curve" smooth="yes"/>
      <point x="483" y="860"/>
      <point x="535" y="791"/>
      <point x="535" y="701" type="curve" smooth="yes"/>
      <point x="535" y="579"/>
      <point x="461" y="464"/>
      <point x="308" y="308" type="curve" smooth="yes"/>
    </contour>
  </outline>
</glyph>
<glyph name="zero.dnom" format="2">
  <advance width="906"/>
  <note>
zero
</note>
  <outline>
    <contour>
      <point x="453" y="-21" type="curve" smooth="yes"/>
      <point x="699" y="-21"/>
      <point x="883" y="189"/>
      <point x="883" y="472" type="curve" smooth="yes"/>
      <point x="883" y="753"/>
      <point x="696" y="965"/>
      <point x="453" y="965" type="curve" smooth="yes"/>
      <point x="209" y="965"/>
      <point x="23" y="753"/>
      <point x="23" y="472" type="curve" smooth="yes"/>
      <point x="23" y="190"/>
      <point x="208" y="-21"/>
    </contour>
    <contour>
      <point x="453" y="95" type="curve" smooth="yes"/>
      <point x="304" y="95"/>
      <point x="199" y="249"/>
      <point x="199" y="472" type="curve" smooth="yes"/>
      <point x="199" y="695"/>
      <point x="304" y="850"/>
      <point x="453" y="850" type="curve" smooth="yes"/>
      <point x="602" y="850"/>
      <point x="707" y="695"/>
      <point x="707" y="472" type="curve" smooth="yes"/>
      <point x="707" y="249"/>
      <point x="602" y="95"/>
    </contour>
  </outline>
</glyph>
<glyph name="zero.osf" format="2">
  <advance width="1266"/>
  <outline>
    <contour>
      <point x="633" y="-35" type="curve" smooth="yes"/>
      <point x="927" y="-35"/>
      <point x="1157" y="194"/>
      <point x="1157" y="487" type="curve" smooth="yes"/>
      <point x="1157" y="781"/>
      <point x="927" y="1010"/>
      <point x="633" y="1010" type="curve" smooth="yes"/>
      <point x="339" y="1010"/>
      <point x="109" y="781"/>
      <point x="109" y="487" type="curve" smooth="yes"/>
      <point x="109" y="194"/>
      <point x="339" y="-35"/>
    </contour>
    <contour>
      <point x="633" y="115" type="curve" smooth="yes"/>
      <point x="434" y="115"/>
      <point x="279" y="278"/>
      <point x="279" y="487" type="curve" smooth="yes"/>
      <point x="279" y="697"/>
      <point x="434" y="860"/>
      <point x="633" y="860" type="curve" smooth="yes"/>
      <point x="832" y="860"/>
      <point x="987" y="697"/>
      <point x="987" y="487" type="curve" smooth="yes"/>
      <point x="987" y="278"/>
      <point x="832" y="115"/>
    </contour>
  </outline>
</glyph>
